<svg xmlns="http://www.w3.org/2000/svg" width="2056" height="887" fill="none"><path fill="#f1f0ee" d="M0 0h2056v887H0z"/><rect width="392" height="73" x="85" y="245" fill="#c4c4c4" rx="36.5"/><path fill="#3f3f3f" d="M175.938 279.194v-1.649h7.765v1.649h-2.894V287h-1.976v-7.806zm10.974 3.707V287h-1.967v-9.455h1.911v3.615h.083a2 2 0 0 1 .776-.983q.536-.36 1.343-.36.74 0 1.288.323.555.318.859.919.31.595.305 1.426V287h-1.967v-4.164q.004-.655-.332-1.02-.333-.365-.933-.365-.402 0-.711.171-.304.171-.48.498a1.7 1.7 0 0 0-.175.781m9.377 4.237q-1.094 0-1.884-.443a3.03 3.03 0 0 1-1.209-1.265q-.425-.82-.425-1.943 0-1.095.425-1.921.424-.826 1.195-1.288.776-.46 1.819-.461.702 0 1.307.226.609.222 1.062.669.456.448.711 1.127.253.673.253 1.579v.54h-5.987v-1.219h4.136q0-.425-.184-.752a1.3 1.3 0 0 0-.513-.513 1.46 1.46 0 0 0-.752-.189q-.449 0-.794.208a1.45 1.45 0 0 0-.536.549 1.56 1.56 0 0 0-.198.762v1.158q0 .526.193.91.2.382.559.591.36.207.854.207.328 0 .6-.092t.467-.277q.193-.185.295-.452l1.819.12a2.5 2.5 0 0 1-.568 1.145 2.85 2.85 0 0 1-1.099.757q-.669.267-1.546.267m4.538-.138v-7.091h1.906v1.237h.074q.194-.66.651-.997a1.7 1.7 0 0 1 1.053-.341q.147 0 .318.018t.3.051v1.745a2.5 2.5 0 0 0-.383-.074 3 3 0 0 0-.448-.032q-.433 0-.775.189a1.4 1.4 0 0 0-.536.517 1.5 1.5 0 0 0-.194.766V287zm7.138.134a2.95 2.95 0 0 1-1.209-.236 1.95 1.95 0 0 1-.841-.706q-.304-.471-.304-1.172 0-.591.217-.993.216-.402.591-.646.374-.245.849-.37.48-.124 1.006-.175.62-.065.997-.12.38-.06.55-.176a.38.38 0 0 0 .171-.341v-.028q0-.438-.277-.678-.272-.24-.776-.241-.53 0-.845.236a1.1 1.1 0 0 0-.415.582l-1.819-.148q.138-.646.545-1.117.406-.475 1.048-.73.645-.258 1.495-.258.591 0 1.131.138.546.14.965.43.424.29.67.747.244.453.244 1.085V287h-1.865v-.983h-.055a2 2 0 0 1-.457.586 2.1 2.1 0 0 1-.688.392 2.8 2.8 0 0 1-.928.139m.563-1.357q.434 0 .767-.171.332-.176.521-.471.19-.296.19-.669v-.753q-.093.06-.254.111-.158.046-.356.088-.198.036-.397.069l-.36.051a2.4 2.4 0 0 0-.605.161.97.97 0 0 0-.401.3.73.73 0 0 0-.143.462q0 .401.29.614.296.207.748.208m4.956 3.882v-9.75h1.939v1.191h.088q.129-.286.374-.582.249-.3.646-.498.402-.204.997-.203.775 0 1.431.406.656.401 1.048 1.214.393.808.393 2.027 0 1.187-.384 2.003-.378.813-1.034 1.233-.65.415-1.459.415-.572 0-.974-.189a2 2 0 0 1-.651-.475 2.4 2.4 0 0 1-.387-.587h-.06v3.795zm1.925-6.204q0 .632.176 1.103.175.47.507.734.333.258.808.258.48 0 .813-.263a1.64 1.64 0 0 0 .503-.738 3.2 3.2 0 0 0 .175-1.094q0-.615-.17-1.081a1.6 1.6 0 0 0-.504-.729q-.332-.264-.817-.263-.48 0-.812.254a1.6 1.6 0 0 0-.503.72 3.1 3.1 0 0 0-.176 1.099m6.302 3.545v-7.091h1.966V287zm.988-8.005q-.44 0-.753-.291a.94.94 0 0 1-.309-.706q0-.406.309-.697a1.06 1.06 0 0 1 .753-.296q.438 0 .747.296.315.29.314.697a.93.93 0 0 1-.314.706 1.05 1.05 0 0 1-.747.291m8.453 2.936-1.8.111a.94.94 0 0 0-.199-.416 1.05 1.05 0 0 0-.401-.3 1.4 1.4 0 0 0-.586-.115q-.458 0-.771.194-.314.189-.314.508 0 .254.203.429.203.176.697.282l1.283.258q1.035.213 1.542.683t.508 1.238q0 .696-.411 1.223-.406.526-1.117.822-.706.29-1.63.29-1.407 0-2.243-.586a2.28 2.28 0 0 1-.974-1.606l1.934-.102q.087.43.425.656.336.22.863.221.518 0 .831-.198.318-.204.323-.522a.54.54 0 0 0-.226-.439q-.222-.175-.683-.267l-1.228-.245q-1.039-.207-1.547-.72-.503-.512-.503-1.307 0-.682.369-1.177.375-.494 1.048-.761.68-.268 1.588-.268 1.344 0 2.115.568.775.567.904 1.546m5.172-2.022v1.477h-4.27v-1.477zm-3.301-1.699h1.967v6.611q0 .272.083.425a.46.46 0 0 0 .231.207q.152.06.351.06.138 0 .277-.023l.212-.041.309 1.463a5 5 0 0 1-.415.106q-.269.066-.651.079-.711.027-1.247-.189a1.75 1.75 0 0 1-.826-.674q-.296-.458-.291-1.154zm9.257 8.79h-2.142l3.264-9.455h2.576l3.259 9.455h-2.142l-2.368-7.294h-.074zm-.133-3.716h5.059v1.56h-5.059zm8.192 6.375v-9.75h1.938v1.191h.088q.13-.286.374-.582.25-.3.646-.498.402-.204.998-.203.775 0 1.431.406.655.401 1.048 1.214.392.808.392 2.027 0 1.187-.383 2.003-.379.813-1.034 1.233-.65.415-1.459.415-.572 0-.974-.189a2 2 0 0 1-.651-.475 2.4 2.4 0 0 1-.388-.587h-.06v3.795zm1.925-6.204q0 .632.175 1.103.175.47.508.734.332.258.808.258.48 0 .812-.263.333-.267.503-.738a3.2 3.2 0 0 0 .176-1.094q0-.615-.171-1.081a1.6 1.6 0 0 0-.503-.729q-.333-.264-.817-.263-.48 0-.813.254a1.6 1.6 0 0 0-.503.72 3.1 3.1 0 0 0-.175 1.099m6.301 6.204v-9.75h1.939v1.191h.088q.13-.286.374-.582.249-.3.646-.498.402-.204.997-.203.776 0 1.431.406.656.401 1.048 1.214.393.808.393 2.027 0 1.187-.384 2.003-.378.813-1.034 1.233-.65.415-1.459.415-.572 0-.974-.189a2 2 0 0 1-.651-.475 2.4 2.4 0 0 1-.387-.587h-.06v3.795zm1.925-6.204q0 .632.176 1.103.175.47.507.734.333.258.808.258.48 0 .813-.263a1.64 1.64 0 0 0 .503-.738 3.2 3.2 0 0 0 .175-1.094q0-.615-.17-1.081a1.6 1.6 0 0 0-.504-.729q-.332-.264-.817-.263-.48 0-.812.254-.328.253-.503.72a3.1 3.1 0 0 0-.176 1.099m9.347 3.545v-9.455h3.73q1.076 0 1.833.411.758.407 1.154 1.131.402.72.402 1.662t-.406 1.662a2.8 2.8 0 0 1-1.177 1.122q-.767.402-1.856.402h-2.378v-1.602h2.055q.576 0 .951-.199.378-.202.563-.558.189-.36.189-.827 0-.471-.189-.821a1.26 1.26 0 0 0-.563-.55q-.38-.198-.961-.198h-1.348V287zm11.47.138q-1.075 0-1.86-.457a3.1 3.1 0 0 1-1.205-1.283q-.425-.826-.425-1.916 0-1.098.425-1.92a3.1 3.1 0 0 1 1.205-1.284q.784-.46 1.86-.461 1.076 0 1.856.461.784.457 1.209 1.284.425.822.425 1.92 0 1.09-.425 1.916a3.1 3.1 0 0 1-1.209 1.283q-.78.457-1.856.457m.009-1.523q.49 0 .817-.277.329-.282.494-.766.171-.485.171-1.104 0-.618-.171-1.103a1.7 1.7 0 0 0-.494-.766q-.328-.282-.817-.282-.493 0-.831.282a1.73 1.73 0 0 0-.503.766 3.4 3.4 0 0 0-.166 1.103q0 .62.166 1.104.171.484.503.766.337.277.831.277m4.76 1.385v-7.091h1.906v1.237h.074q.195-.66.651-.997a1.7 1.7 0 0 1 1.053-.341q.147 0 .318.018t.3.051v1.745a2.5 2.5 0 0 0-.383-.074 3 3 0 0 0-.448-.032q-.433 0-.775.189a1.4 1.4 0 0 0-.536.517 1.5 1.5 0 0 0-.194.766V287zm9.446-7.091v1.477h-4.27v-1.477zm-3.3-1.699h1.966v6.611q0 .272.083.425a.46.46 0 0 0 .231.207q.153.06.351.06.138 0 .277-.023l.212-.041.31 1.463a6 6 0 0 1-.416.106q-.267.066-.651.079-.71.027-1.246-.189a1.75 1.75 0 0 1-.827-.674q-.296-.458-.29-1.154zm6.603 8.924q-.678 0-1.209-.236a1.94 1.94 0 0 1-.84-.706q-.305-.471-.305-1.172 0-.591.217-.993t.591-.646.849-.37q.48-.124 1.007-.175.618-.065.997-.12.378-.06.549-.176a.38.38 0 0 0 .171-.341v-.028q0-.438-.277-.678-.273-.24-.776-.241-.53 0-.844.236-.315.231-.416.582l-1.819-.148q.139-.646.545-1.117.406-.475 1.048-.73.646-.258 1.496-.258.591 0 1.131.138.544.14.965.43.424.29.669.747.245.453.245 1.085V287h-1.865v-.983h-.056a2 2 0 0 1-.457.586 2.1 2.1 0 0 1-.688.392 2.8 2.8 0 0 1-.928.139m.564-1.357q.433 0 .766-.171.332-.176.522-.471.189-.296.189-.669v-.753q-.093.06-.254.111-.157.046-.356.088-.198.036-.397.069l-.36.051a2.4 2.4 0 0 0-.604.161.96.96 0 0 0-.402.3.73.73 0 0 0-.143.462q0 .401.291.614.295.207.748.208m6.922-8.232V287h-1.967v-9.455zm7.391 8.015v-6.537h1.653v6.537zm-2.442-2.442v-1.653h6.537v1.653zM326.128 287h-3.351v-9.455h3.379q1.427 0 2.456.568a3.83 3.83 0 0 1 1.583 1.621q.56 1.057.559 2.529 0 1.478-.559 2.54a3.84 3.84 0 0 1-1.592 1.629q-1.034.568-2.475.568m-1.352-1.713h1.269q.887 0 1.491-.314.61-.318.914-.983.31-.67.31-1.727 0-1.047-.31-1.712a2 2 0 0 0-.909-.979q-.604-.314-1.491-.314h-1.274zm10.653 1.851q-1.094 0-1.883-.443a3.04 3.04 0 0 1-1.21-1.265q-.424-.82-.424-1.943 0-1.095.424-1.921.425-.826 1.196-1.288.775-.46 1.819-.461.702 0 1.306.226.61.222 1.062.669.457.448.711 1.127.254.673.254 1.579v.54h-5.988v-1.219h4.137q0-.425-.185-.752a1.3 1.3 0 0 0-.512-.513 1.47 1.47 0 0 0-.753-.189 1.5 1.5 0 0 0-.794.208 1.45 1.45 0 0 0-.535.549q-.195.342-.199.762v1.158q0 .526.194.91.199.382.559.591.36.207.854.207.327 0 .6-.092t.466-.277q.194-.185.296-.452l1.818.12a2.5 2.5 0 0 1-.567 1.145 2.86 2.86 0 0 1-1.099.757q-.67.267-1.547.267m4.538 2.521v-9.75h1.939v1.191h.088q.13-.286.374-.582.25-.3.646-.498.402-.204.997-.203.776 0 1.432.406.655.401 1.048 1.214.392.808.392 2.027 0 1.187-.383 2.003-.379.813-1.034 1.233a2.66 2.66 0 0 1-1.459.415q-.573 0-.974-.189a2 2 0 0 1-.651-.475 2.4 2.4 0 0 1-.388-.587h-.06v3.795zm1.925-6.204q0 .632.176 1.103.175.47.508.734.332.258.808.258.48 0 .812-.263.332-.267.503-.738a3.2 3.2 0 0 0 .176-1.094q0-.615-.171-1.081a1.6 1.6 0 0 0-.503-.729q-.333-.264-.817-.263-.48 0-.813.254a1.6 1.6 0 0 0-.503.72 3.1 3.1 0 0 0-.176 1.099m8.324 3.679q-.679 0-1.21-.236a1.95 1.95 0 0 1-.84-.706q-.304-.471-.304-1.172 0-.591.217-.993.216-.402.59-.646a2.9 2.9 0 0 1 .85-.37q.48-.124 1.006-.175.62-.065.997-.12.38-.06.55-.176a.38.38 0 0 0 .171-.341v-.028q0-.438-.277-.678-.273-.24-.776-.241-.53 0-.845.236a1.08 1.08 0 0 0-.415.582l-1.819-.148q.138-.646.545-1.117.406-.475 1.048-.73.645-.258 1.495-.258.591 0 1.131.138.546.14.965.43.424.29.67.747.244.453.244 1.085V287h-1.865v-.983h-.055a2 2 0 0 1-.457.586 2.1 2.1 0 0 1-.688.392 2.8 2.8 0 0 1-.928.139m.563-1.357q.435 0 .767-.171.332-.176.521-.471.189-.296.189-.669v-.753q-.092.06-.253.111-.158.046-.356.088-.198.036-.397.069l-.36.051a2.4 2.4 0 0 0-.605.161.97.97 0 0 0-.401.3.73.73 0 0 0-.143.462q0 .401.29.614.296.207.748.208m4.956 1.223v-7.091h1.907v1.237h.073q.195-.66.651-.997a1.7 1.7 0 0 1 1.053-.341q.148 0 .318.018t.301.051v1.745a2.5 2.5 0 0 0-.384-.074 3 3 0 0 0-.447-.032q-.435 0-.776.189a1.4 1.4 0 0 0-.535.517q-.195.333-.194.766V287zm9.446-7.091v1.477h-4.27v-1.477zm-3.3-1.699h1.966v6.611q0 .272.083.425a.46.46 0 0 0 .231.207q.153.06.351.06.138 0 .277-.023l.212-.041.31 1.463a6 6 0 0 1-.416.106q-.267.066-.651.079-.71.027-1.246-.189a1.74 1.74 0 0 1-.826-.674q-.296-.458-.291-1.154zm9.129 5.771v-4.072h1.966V287h-1.888v-1.288h-.074a2.1 2.1 0 0 1-.798 1.002q-.554.378-1.353.378-.711 0-1.251-.323a2.2 2.2 0 0 1-.845-.919q-.3-.595-.304-1.426v-4.515h1.966v4.164q.005.629.337.993.333.364.891.364.356 0 .665-.161.309-.166.498-.49.195-.322.19-.798m3.539 3.019v-7.091h1.907v1.237h.074q.193-.66.651-.997a1.7 1.7 0 0 1 1.052-.341q.148 0 .319.018t.3.051v1.745a2.5 2.5 0 0 0-.383-.074 3 3 0 0 0-.448-.032q-.434 0-.776.189a1.4 1.4 0 0 0-.535.517 1.5 1.5 0 0 0-.194.766V287zm8.221.138q-1.094 0-1.883-.443a3.03 3.03 0 0 1-1.21-1.265q-.425-.82-.425-1.943 0-1.095.425-1.921t1.196-1.288q.775-.46 1.819-.461.702 0 1.306.226.609.222 1.062.669.458.448.711 1.127.254.673.254 1.579v.54h-5.988v-1.219h4.137q0-.425-.185-.752a1.3 1.3 0 0 0-.512-.513 1.47 1.47 0 0 0-.753-.189 1.5 1.5 0 0 0-.794.208 1.45 1.45 0 0 0-.535.549q-.195.342-.199.762v1.158q0 .526.194.91.198.382.559.591.36.207.854.207.327 0 .6-.092t.466-.277a1.2 1.2 0 0 0 .295-.452l1.819.12a2.5 2.5 0 0 1-.568 1.145 2.86 2.86 0 0 1-1.098.757q-.67.267-1.547.267"/><rect width="228" height="73" x="366" y="326" fill="#c4c4c4" rx="36.5"/><path fill="#3f3f3f" d="M431.162 368h-2.142l3.264-9.455h2.576l3.259 9.455h-2.142l-2.368-7.294h-.074zm-.134-3.716h5.06v1.56h-5.06zm11.52-3.375v1.477h-4.271v-1.477zm-3.301-1.699h1.967v6.611q0 .272.083.425a.46.46 0 0 0 .23.207q.153.06.351.06.14 0 .277-.023l.213-.041.309 1.463a6 6 0 0 1-.416.106q-.267.066-.65.079-.711.027-1.247-.189a1.74 1.74 0 0 1-.826-.674q-.296-.458-.291-1.154zm8.784 4.127v1.561h-4.312v-1.561zm1.713 4.663v-9.455h1.999v3.901h4.057v-3.901h1.995V368H455.8v-3.906h-4.057V368zm12.866.138q-1.076 0-1.861-.457a3.13 3.13 0 0 1-1.205-1.283q-.424-.826-.424-1.916 0-1.098.424-1.92a3.1 3.1 0 0 1 1.205-1.284q.785-.46 1.861-.461 1.075 0 1.856.461.784.457 1.209 1.284.425.822.425 1.92 0 1.09-.425 1.916a3.1 3.1 0 0 1-1.209 1.283q-.781.457-1.856.457m.009-1.523q.49 0 .817-.277.328-.282.494-.766.171-.485.171-1.104 0-.618-.171-1.103a1.7 1.7 0 0 0-.494-.766q-.327-.282-.817-.282-.493 0-.831.282a1.7 1.7 0 0 0-.503.766 3.4 3.4 0 0 0-.166 1.103q0 .62.166 1.104.17.484.503.766.338.277.831.277m4.76 1.385v-7.091h1.874v1.251h.083q.222-.623.739-.983t1.237-.36q.729 0 1.242.364.512.361.683.979h.074q.216-.61.785-.974.572-.369 1.352-.369.993 0 1.611.632.624.628.624 1.782V368h-1.962v-4.381q0-.59-.314-.886a1.1 1.1 0 0 0-.785-.296q-.536 0-.836.342-.3.336-.3.891V368h-1.906v-4.423q0-.52-.301-.831-.295-.309-.78-.309a1.09 1.09 0 0 0-1.001.623 1.45 1.45 0 0 0-.153.684V368zm15.089.138q-1.095 0-1.884-.443a3.04 3.04 0 0 1-1.21-1.265q-.424-.82-.424-1.943 0-1.095.424-1.921.426-.826 1.196-1.288.775-.46 1.819-.461.702 0 1.306.226.61.222 1.062.669.457.448.711 1.127.254.673.254 1.579v.54h-5.987v-1.219h4.136q0-.425-.185-.752a1.3 1.3 0 0 0-.512-.513 1.47 1.47 0 0 0-.753-.189 1.5 1.5 0 0 0-.794.208 1.45 1.45 0 0 0-.535.549 1.56 1.56 0 0 0-.199.762v1.158q0 .526.194.91.2.382.559.591.36.207.854.207.327 0 .6-.092t.466-.277q.194-.185.296-.452l1.819.12a2.5 2.5 0 0 1-.568 1.145 2.86 2.86 0 0 1-1.099.757q-.67.267-1.546.267m12.712-6.873q-.055-.56-.475-.868-.42-.31-1.141-.31-.489 0-.826.139a1.16 1.16 0 0 0-.517.374.9.9 0 0 0-.175.545.77.77 0 0 0 .106.443q.12.189.327.327.208.134.481.236.272.097.581.166l.85.203q.618.14 1.135.37.518.23.896.567.379.338.586.794.213.457.217 1.048-.005.869-.443 1.505-.434.633-1.256.984-.816.346-1.971.346-1.145 0-1.994-.351-.845-.35-1.32-1.039-.471-.692-.494-1.712h1.934q.032.475.272.794.244.313.651.475.41.157.928.157.508 0 .882-.148.378-.147.586-.41a.95.95 0 0 0 .208-.605.8.8 0 0 0-.189-.536 1.44 1.44 0 0 0-.545-.369 5.5 5.5 0 0 0-.873-.277l-1.029-.259q-1.196-.29-1.888-.909-.693-.618-.688-1.667-.005-.858.457-1.5.466-.642 1.279-1.002t1.846-.36q1.053 0 1.838.36.789.36 1.228 1.002.438.641.452 1.487zm6.584 6.873q-1.094 0-1.883-.443a3.03 3.03 0 0 1-1.21-1.265q-.424-.82-.424-1.943 0-1.095.424-1.921.425-.826 1.196-1.288.775-.46 1.819-.461.702 0 1.306.226.61.222 1.062.669.457.448.711 1.127.254.673.254 1.579v.54h-5.988v-1.219h4.137q0-.425-.185-.752a1.3 1.3 0 0 0-.512-.513 1.47 1.47 0 0 0-.753-.189 1.5 1.5 0 0 0-.794.208 1.45 1.45 0 0 0-.535.549q-.195.342-.199.762v1.158q0 .526.194.91.199.382.559.591.36.207.854.207.327 0 .6-.092t.466-.277.296-.452l1.818.12a2.5 2.5 0 0 1-.567 1.145q-.426.484-1.099.757-.67.267-1.547.267m8.31-7.229v1.477h-4.27v-1.477zm-3.301-1.699h1.967v6.611q0 .272.083.425a.46.46 0 0 0 .231.207q.152.06.351.06.138 0 .277-.023l.212-.041.309 1.463a5 5 0 0 1-.415.106q-.268.066-.651.079-.711.027-1.247-.189a1.75 1.75 0 0 1-.826-.674q-.296-.458-.291-1.154zm13.468-.665h1.999v6.14q0 1.035-.494 1.81a3.3 3.3 0 0 1-1.371 1.21q-.882.429-2.055.429-1.177 0-2.059-.429a3.3 3.3 0 0 1-1.371-1.21q-.489-.775-.489-1.81v-6.14h1.999v5.97q0 .54.235.96.24.42.674.66t1.011.24q.582 0 1.011-.24.435-.24.67-.66.24-.42.24-.96zm3.606 12.114v-9.75h1.939v1.191h.088q.13-.287.374-.582.249-.3.646-.498.402-.204.997-.203.776 0 1.431.406.656.401 1.048 1.214.393.808.393 2.027 0 1.187-.383 2.003-.379.813-1.034 1.233a2.66 2.66 0 0 1-1.459.415q-.573 0-.974-.189a2 2 0 0 1-.651-.475 2.4 2.4 0 0 1-.388-.587h-.06v3.795zm1.925-6.204q0 .632.176 1.103.175.47.508.734.332.258.807.258.48 0 .813-.263.332-.267.503-.738a3.2 3.2 0 0 0 .176-1.094q0-.615-.171-1.081a1.6 1.6 0 0 0-.503-.729q-.332-.264-.818-.263-.48 0-.812.254-.328.253-.503.72a3.1 3.1 0 0 0-.176 1.099"/><rect width="358.566" height="73" x="489" y="407" fill="#2bb034" rx="36.5"/><path fill="#000" d="M615.937 449v-9.455h6.26v1.649h-4.261v2.252h3.845v1.648h-3.845V449zm7.567 0v-7.091h1.967V449zm.988-8.005q-.438 0-.752-.291a.94.94 0 0 1-.31-.706q0-.406.31-.697.314-.296.752-.296.44 0 .748.296a.92.92 0 0 1 .314.697.94.94 0 0 1-.314.706 1.05 1.05 0 0 1-.748.291m2.554 8.005v-7.091h1.907v1.237h.074q.194-.66.651-.997a1.7 1.7 0 0 1 1.052-.341q.148 0 .319.018t.3.051v1.745a2.5 2.5 0 0 0-.383-.074 3 3 0 0 0-.448-.032q-.434 0-.776.189a1.4 1.4 0 0 0-.535.517 1.5 1.5 0 0 0-.194.766V449zm11.22-5.069-1.801.111a.94.94 0 0 0-.198-.416 1.06 1.06 0 0 0-.402-.3 1.4 1.4 0 0 0-.586-.115q-.457 0-.771.194-.314.189-.314.508 0 .254.203.429.203.176.697.282l1.283.258q1.035.213 1.542.683t.508 1.238q0 .696-.411 1.223-.406.526-1.117.822-.706.29-1.63.29-1.407 0-2.243-.586a2.28 2.28 0 0 1-.974-1.606l1.934-.102q.088.43.425.656.336.22.863.221.518 0 .831-.198.318-.204.323-.522a.54.54 0 0 0-.226-.439q-.222-.175-.683-.267l-1.228-.245q-1.039-.207-1.547-.72-.503-.512-.503-1.307 0-.682.369-1.177.375-.494 1.048-.761.68-.268 1.588-.268 1.344 0 2.115.568.775.567.905 1.546m5.171-2.022v1.477h-4.27v-1.477zm-3.301-1.699h1.967v6.611q0 .272.083.425a.46.46 0 0 0 .231.207q.152.06.351.06.138 0 .277-.023l.212-.041.309 1.463a5 5 0 0 1-.415.106q-.269.066-.651.079-.71.027-1.246-.189a1.75 1.75 0 0 1-.827-.674q-.296-.458-.291-1.154zm8.784 4.127v1.561h-4.311v-1.561zm.959-3.143v-1.649h7.765v1.649h-2.894V449h-1.976v-7.806zm9.007 7.806v-7.091h1.967V449zm.988-8.005q-.438 0-.752-.291a.94.94 0 0 1-.31-.706q0-.406.31-.697.314-.296.752-.296t.748.296a.92.92 0 0 1 .314.697.94.94 0 0 1-.314.706 1.05 1.05 0 0 1-.748.291m2.554 8.005v-7.091h1.874v1.251h.084q.22-.623.738-.983.517-.36 1.237-.36.73 0 1.242.364.513.361.683.979h.074q.218-.61.785-.974.573-.369 1.353-.369.991 0 1.611.632.623.628.623 1.782V449h-1.962v-4.381q0-.59-.314-.886a1.1 1.1 0 0 0-.785-.296q-.535 0-.835.342-.3.336-.3.891V449h-1.907v-4.423q0-.52-.3-.831-.295-.309-.78-.309-.329 0-.591.166-.258.162-.411.457a1.46 1.46 0 0 0-.152.684V449zm15.089.138q-1.094 0-1.883-.443a3.03 3.03 0 0 1-1.21-1.265q-.425-.82-.425-1.943 0-1.095.425-1.921t1.196-1.288q.775-.46 1.819-.461.701 0 1.306.226.609.222 1.062.669.457.448.711 1.127.254.673.254 1.579v.54h-5.988v-1.219h4.137q0-.425-.185-.752a1.3 1.3 0 0 0-.513-.513 1.46 1.46 0 0 0-.752-.189q-.448 0-.794.208a1.46 1.46 0 0 0-.536.549 1.56 1.56 0 0 0-.198.762v1.158q0 .526.194.91.198.382.558.591.36.207.854.207.328 0 .601-.092t.466-.277a1.2 1.2 0 0 0 .295-.452l1.819.12a2.5 2.5 0 0 1-.568 1.145 2.86 2.86 0 0 1-1.098.757q-.67.267-1.547.267m13.424-9.593h1.999v6.14q0 1.035-.494 1.81a3.3 3.3 0 0 1-1.371 1.21q-.882.429-2.055.429-1.177 0-2.059-.429a3.3 3.3 0 0 1-1.371-1.21q-.489-.775-.489-1.81v-6.14h1.999v5.97q0 .54.235.96.24.42.674.66.433.24 1.011.24.582 0 1.011-.24.435-.24.67-.66.24-.42.24-.96zm9.506 4.386-1.8.111a.94.94 0 0 0-.199-.416 1.05 1.05 0 0 0-.401-.3 1.4 1.4 0 0 0-.587-.115q-.456 0-.771.194-.314.189-.314.508 0 .254.204.429.202.176.697.282l1.283.258q1.034.213 1.542.683t.508 1.238q0 .696-.411 1.223-.406.526-1.117.822-.706.29-1.63.29-1.409 0-2.244-.586a2.29 2.29 0 0 1-.974-1.606l1.935-.102q.087.43.424.656.337.22.864.221.516 0 .831-.198.318-.204.323-.522a.55.55 0 0 0-.226-.439q-.222-.175-.684-.267l-1.228-.245q-1.038-.207-1.546-.72-.503-.512-.503-1.307 0-.682.369-1.177.374-.494 1.048-.761.678-.268 1.588-.268 1.343 0 2.114.568.776.567.905 1.546m4.632 5.207q-1.095 0-1.884-.443a3.03 3.03 0 0 1-1.209-1.265q-.426-.82-.425-1.943 0-1.095.425-1.921.424-.826 1.195-1.288.776-.46 1.819-.461a3.7 3.7 0 0 1 1.307.226q.61.222 1.061.669.458.448.711 1.127.255.673.254 1.579v.54h-5.987v-1.219h4.136q0-.425-.185-.752a1.3 1.3 0 0 0-.512-.513 1.46 1.46 0 0 0-.753-.189 1.5 1.5 0 0 0-.794.208 1.45 1.45 0 0 0-.535.549 1.56 1.56 0 0 0-.199.762v1.158q0 .526.194.91.2.382.559.591.36.207.854.207.327 0 .6-.092t.466-.277q.195-.185.296-.452l1.819.12a2.5 2.5 0 0 1-.568 1.145 2.86 2.86 0 0 1-1.099.757q-.67.267-1.546.267m4.538-.138v-7.091h1.906v1.237h.074q.193-.66.651-.997a1.7 1.7 0 0 1 1.053-.341q.147 0 .318.018t.3.051v1.745a2.5 2.5 0 0 0-.383-.074 3 3 0 0 0-.448-.032q-.434 0-.775.189a1.4 1.4 0 0 0-.536.517 1.5 1.5 0 0 0-.194.766V449zm11.219-5.069-1.801.111a.93.93 0 0 0-.198-.416 1.06 1.06 0 0 0-.402-.3 1.4 1.4 0 0 0-.586-.115q-.457 0-.771.194-.314.189-.314.508 0 .254.203.429.204.176.697.282l1.284.258q1.034.213 1.542.683.507.471.507 1.238 0 .696-.41 1.223-.407.526-1.118.822-.707.29-1.629.29-1.409 0-2.244-.586a2.28 2.28 0 0 1-.974-1.606l1.934-.102q.088.43.425.656.337.22.863.221.517 0 .831-.198.319-.204.323-.522a.54.54 0 0 0-.226-.439q-.22-.175-.683-.267l-1.228-.245q-1.038-.207-1.546-.72-.504-.512-.504-1.307 0-.682.37-1.177.373-.494 1.048-.761.678-.268 1.588-.268 1.343 0 2.114.568.776.567.905 1.546"/><rect width="938.922" height="73" x="750.078" y="488" fill="#00653e" rx="36.5"/><path fill="#fff" d="M1168.98 530v-9.455h3.73c.71 0 1.32.128 1.82.384.51.252.9.611 1.16 1.075.27.462.41 1.005.41 1.63 0 .628-.14 1.168-.41 1.62-.27.45-.66.794-1.18 1.034-.51.24-1.13.36-1.85.36h-2.5v-1.606h2.17c.38 0 .7-.052.95-.157.26-.105.44-.262.57-.471.12-.209.19-.469.19-.78 0-.314-.07-.579-.19-.794a1.22 1.22 0 0 0-.57-.49q-.375-.17-.96-.17h-1.34V530zm5.1-4.303 2.35 4.303h-2.2l-2.3-4.303zm6.51 4.441q-1.095 0-1.89-.443a3 3 0 0 1-1.2-1.265c-.29-.547-.43-1.195-.43-1.943 0-.73.14-1.37.43-1.921.28-.55.68-.98 1.19-1.288.52-.307 1.12-.461 1.82-.461.47 0 .9.075 1.31.226.4.148.76.371 1.06.669s.54.674.71 1.127c.17.449.25.975.25 1.579v.54h-5.98v-1.219h4.13q0-.425-.18-.752a1.43 1.43 0 0 0-1.27-.702c-.3 0-.56.069-.79.208q-.345.202-.54.549c-.13.228-.19.482-.2.762v1.158c0 .351.07.654.2.91.13.255.32.452.56.591s.52.207.85.207q.33 0 .6-.092c.18-.061.34-.154.47-.277s.22-.274.29-.452l1.82.12q-.135.655-.57 1.145c-.28.323-.65.575-1.1.757-.44.178-.96.267-1.54.267m8.31-7.229v1.477h-4.27v-1.477zm-3.3-1.699h1.96v6.611q0 .273.09.425c.05.098.13.167.23.207s.22.06.35.06c.09 0 .18-.007.28-.023l.21-.041.31 1.463q-.15.046-.42.106c-.18.044-.39.07-.65.079-.47.018-.89-.045-1.25-.189-.35-.145-.63-.37-.82-.674-.2-.305-.3-.69-.29-1.154zm9.13 5.771v-4.072h1.96V530h-1.89v-1.288h-.07c-.16.415-.43.749-.8 1.002q-.555.378-1.35.378c-.47 0-.89-.107-1.25-.323a2.27 2.27 0 0 1-.85-.919q-.3-.595-.3-1.426v-4.515h1.97v4.164q0 .628.33.993c.22.243.52.364.89.364.24 0 .46-.053.67-.161.2-.111.37-.274.5-.49s.19-.481.19-.798m3.54 3.019v-7.091h1.9v1.237h.08c.13-.44.34-.772.65-.997q.45-.341 1.05-.341c.1 0 .2.006.32.018q.165.018.3.051v1.745a3.537 3.537 0 0 0-.83-.106q-.435 0-.78.189c-.22.123-.4.295-.53.517s-.2.477-.2.766V530zm7.28-4.099V530h-1.96v-7.091h1.87v1.251h.08c.16-.412.42-.738.79-.979q.555-.364 1.35-.364c.49 0 .92.107 1.28.323.37.215.65.523.86.923q.3.596.3 1.422V530h-1.96v-4.164c0-.434-.11-.773-.34-1.016-.22-.246-.53-.369-.92-.369-.27 0-.5.057-.71.171-.2.114-.35.28-.47.498-.11.216-.17.476-.17.781m6.12 4.099v-7.091h1.97V530zm.99-8.005q-.435 0-.75-.291a.93.93 0 0 1-.31-.706c0-.271.1-.503.31-.697q.315-.296.75-.296t.75.296a.91.91 0 0 1 .31.697.93.93 0 0 1-.31.706q-.315.291-.75.291m4.52 3.906V530h-1.97v-7.091h1.88v1.251h.08c.16-.412.42-.738.79-.979.37-.243.82-.364 1.34-.364q.75 0 1.29.323c.37.215.65.523.86.923q.3.596.3 1.422V530h-1.97v-4.164q.015-.651-.33-1.016-.33-.369-.93-.369c-.26 0-.49.057-.7.171-.2.114-.35.28-.47.498-.11.216-.17.476-.17.781m9.32 6.906c-.64 0-1.19-.088-1.64-.263q-.69-.259-1.08-.707a2.17 2.17 0 0 1-.53-1.006l1.82-.245q.09.213.27.397c.12.123.28.222.47.296.2.077.45.115.73.115.43 0 .78-.104 1.06-.314q.42-.309.42-1.038v-1.298h-.08q-.135.295-.39.559c-.17.175-.4.318-.67.429s-.59.166-.97.166c-.53 0-1.01-.123-1.45-.369-.43-.249-.78-.629-1.04-1.14-.25-.514-.38-1.164-.38-1.948q0-1.205.39-2.013c.26-.539.61-.942 1.04-1.21q.66-.4 1.44-.401c.4 0 .73.067 1 .203.26.132.48.298.64.498q.255.295.39.582h.07v-1.191h1.95v7.16c0 .603-.15 1.108-.44 1.514q-.45.61-1.23.915c-.52.206-1.12.309-1.79.309m.04-4.386c.31 0 .58-.078.8-.235q.33-.24.51-.684.18-.447.18-1.071 0-.622-.18-1.08a1.47 1.47 0 0 0-.51-.715c-.22-.17-.49-.254-.8-.254-.33 0-.6.087-.82.263-.22.172-.39.412-.5.72-.12.308-.17.663-.17 1.066 0 .41.05.764.17 1.062.11.296.28.525.5.688.22.16.49.24.82.24m13.87-7.876h2v6.14c0 .69-.16 1.293-.49 1.81s-.79.92-1.37 1.21c-.59.286-1.28.429-2.06.429s-1.47-.143-2.06-.429a3.4 3.4 0 0 1-1.37-1.21c-.32-.517-.49-1.12-.49-1.81v-6.14h2v5.97q0 .54.24.96c.16.28.38.5.67.66s.63.24 1.01.24c.39 0 .73-.08 1.01-.24.29-.16.52-.38.67-.66q.24-.42.24-.96zm9.51 4.386-1.8.111a1.011 1.011 0 0 0-.6-.716 1.4 1.4 0 0 0-.59-.115c-.3 0-.56.065-.77.194-.21.126-.31.295-.31.508 0 .169.07.312.2.429.14.117.37.211.7.282l1.28.258c.69.142 1.2.369 1.54.683q.51.471.51 1.238c0 .464-.14.872-.41 1.223s-.64.625-1.12.822c-.47.194-1.01.29-1.63.29-.94 0-1.68-.195-2.24-.586a2.27 2.27 0 0 1-.97-1.606l1.93-.102q.09.43.42.656.345.22.87.221c.34 0 .62-.066.83-.198.21-.136.32-.31.32-.522a.55.55 0 0 0-.22-.439q-.225-.175-.69-.267l-1.23-.245c-.69-.138-1.2-.378-1.54-.72s-.5-.777-.5-1.307q0-.682.36-1.177.375-.494 1.05-.761.675-.268 1.59-.268c.9 0 1.6.189 2.11.568.52.378.82.894.91 1.546m4.63 5.207c-.73 0-1.36-.147-1.88-.443-.53-.298-.93-.72-1.21-1.265-.29-.547-.43-1.195-.43-1.943 0-.73.14-1.37.43-1.921.28-.55.68-.98 1.19-1.288.52-.307 1.13-.461 1.82-.461.47 0 .91.075 1.31.226.41.148.76.371 1.06.669.31.299.54.674.71 1.127.17.449.26.975.26 1.579v.54h-5.99v-1.219h4.13q0-.425-.18-.752-.18-.329-.51-.513a1.5 1.5 0 0 0-.76-.189c-.29 0-.56.069-.79.208-.23.135-.41.318-.53.549-.13.228-.2.482-.2.762v1.158c0 .351.06.654.19.91.13.255.32.452.56.591s.52.207.85.207q.33 0 .6-.092c.19-.061.34-.154.47-.277q.195-.185.3-.452l1.81.12c-.09.437-.28.818-.56 1.145a2.9 2.9 0 0 1-1.1.757c-.45.178-.96.267-1.55.267m4.54-.138v-7.091h1.91v1.237h.07c.13-.44.35-.772.65-.997q.465-.341 1.05-.341a3 3 0 0 1 .62.069v1.745a2.4 2.4 0 0 0-.38-.074 3 3 0 0 0-.45-.032c-.29 0-.55.063-.77.189a1.35 1.35 0 0 0-.54.517c-.13.222-.19.477-.19.766V530zm11.22-5.069-1.8.111a.95.95 0 0 0-.2-.416c-.1-.126-.24-.226-.4-.3a1.4 1.4 0 0 0-.59-.115c-.3 0-.56.065-.77.194-.21.126-.31.295-.31.508 0 .169.06.312.2.429s.37.211.7.282l1.28.258c.69.142 1.2.369 1.54.683q.51.471.51 1.238c0 .464-.14.872-.41 1.223s-.64.625-1.12.822c-.47.194-1.01.29-1.63.29-.94 0-1.68-.195-2.24-.586-.56-.394-.88-.929-.98-1.606l1.94-.102q.09.43.42.656.345.22.87.221c.34 0 .62-.066.83-.198.21-.136.32-.31.32-.522a.53.53 0 0 0-.23-.439c-.14-.116-.37-.206-.68-.267l-1.23-.245c-.69-.138-1.2-.378-1.54-.72q-.51-.513-.51-1.307c0-.455.13-.847.37-1.177q.375-.494 1.05-.761.675-.268 1.59-.268c.89 0 1.6.189 2.11.568.52.378.82.894.91 1.546"/><rect width="385.997" height="73" x="1572" y="569" fill="#e5cc2b" rx="36.5"/><path fill="#3f3f3f" d="M1682.6 611v-9.455h3.73q1.08 0 1.83.384c.51.252.89.611 1.16 1.075.27.462.4 1.005.4 1.63 0 .628-.13 1.168-.41 1.62q-.405.674-1.17 1.034t-1.86.36h-2.5v-1.606h2.18c.38 0 .7-.052.95-.157s.44-.262.56-.471c.13-.209.19-.469.19-.78 0-.314-.06-.579-.19-.794a1.13 1.13 0 0 0-.57-.49c-.25-.113-.57-.17-.95-.17h-1.35V611zm5.11-4.303 2.35 4.303h-2.21l-2.3-4.303zm6.5 4.441c-.73 0-1.35-.147-1.88-.443-.52-.298-.93-.72-1.21-1.265q-.42-.82-.42-1.943 0-1.095.42-1.921.42-.825 1.2-1.288c.51-.307 1.12-.461 1.82-.461.46 0 .9.075 1.3.226.41.148.76.371 1.06.669.31.299.55.674.71 1.127.17.449.26.975.26 1.579v.54h-5.99v-1.219h4.14c0-.283-.06-.534-.19-.752q-.18-.329-.51-.513a1.5 1.5 0 0 0-.75-.189c-.3 0-.57.069-.8.208-.22.135-.4.318-.53.549-.13.228-.2.482-.2.762v1.158c0 .351.06.654.19.91.14.255.32.452.56.591s.53.207.86.207q.315 0 .6-.092a1.23 1.23 0 0 0 .76-.729l1.82.12c-.1.437-.28.818-.57 1.145-.28.323-.65.575-1.1.757-.45.178-.96.267-1.55.267m7.77 0c-.73 0-1.35-.147-1.88-.443-.52-.298-.93-.72-1.21-1.265q-.42-.82-.42-1.943 0-1.095.42-1.921.42-.825 1.2-1.288c.51-.307 1.12-.461 1.81-.461.47 0 .91.075 1.31.226.41.148.76.371 1.06.669.31.299.54.674.71 1.127.17.449.26.975.26 1.579v.54h-5.99v-1.219h4.14c0-.283-.06-.534-.19-.752q-.18-.329-.51-.513a1.5 1.5 0 0 0-.75-.189c-.3 0-.57.069-.8.208-.22.135-.4.318-.53.549-.13.228-.2.482-.2.762v1.158c0 .351.06.654.19.91.14.255.32.452.56.591s.53.207.86.207q.315 0 .6-.092a1.23 1.23 0 0 0 .76-.729l1.82.12q-.15.655-.57 1.145c-.28.323-.65.575-1.1.757-.45.178-.96.267-1.55.267m10.96-7.229-2.48 7.091h-2.21l-2.48-7.091h2.08l1.47 5.074h.07l1.47-5.074zm2.84 7.225c-.45 0-.86-.079-1.21-.236a2 2 0 0 1-.84-.706q-.3-.471-.3-1.172 0-.591.21-.993c.15-.268.34-.483.59-.646s.54-.287.85-.37c.32-.083.66-.141 1.01-.175.41-.043.74-.083 1-.12.25-.04.43-.099.55-.176.11-.076.17-.19.17-.341v-.028c0-.292-.1-.518-.28-.678q-.27-.24-.78-.241-.525 0-.84.236a1.1 1.1 0 0 0-.42.582l-1.82-.148c.1-.431.28-.803.55-1.117q.405-.475 1.05-.73c.43-.172.93-.258 1.49-.258.4 0 .77.046 1.13.138.37.093.69.236.97.43.28.193.51.443.67.747q.24.453.24 1.085V611h-1.86v-.983h-.06a1.9 1.9 0 0 1-.45.586c-.2.166-.42.297-.69.392q-.405.14-.93.139m.56-1.357c.29 0 .55-.057.77-.171.22-.117.39-.274.52-.471s.19-.42.19-.669v-.753c-.06.04-.15.077-.25.111q-.165.046-.36.088a15 15 0 0 1-.76.12q-.345.05-.6.161a.95.95 0 0 0-.4.3.7.7 0 0 0-.15.462q0 .402.3.614c.19.138.44.208.74.208m6.93-8.232V611h-1.97v-9.455zm6.12 6.436v-4.072h1.96V611h-1.88v-1.288h-.08c-.16.415-.42.749-.8 1.002q-.555.378-1.35.378c-.47 0-.89-.107-1.25-.323a2.2 2.2 0 0 1-.84-.919c-.2-.397-.31-.872-.31-1.426v-4.515h1.97v4.164q0 .628.33.993c.23.243.52.364.9.364q.345 0 .66-.161c.21-.111.37-.274.5-.49s.19-.481.19-.798m5.56 3.153c-.45 0-.86-.079-1.21-.236a2 2 0 0 1-.84-.706q-.3-.471-.3-1.172 0-.591.21-.993c.15-.268.34-.483.59-.646s.54-.287.85-.37c.32-.083.66-.141 1.01-.175.41-.043.74-.083 1-.12.25-.04.43-.099.55-.176.11-.076.17-.19.17-.341v-.028c0-.292-.1-.518-.28-.678q-.27-.24-.78-.241-.525 0-.84.236a1.1 1.1 0 0 0-.42.582l-1.82-.148c.1-.431.28-.803.55-1.117q.405-.475 1.05-.73c.43-.172.93-.258 1.49-.258.4 0 .77.046 1.13.138.37.093.69.236.97.43.28.193.51.443.67.747q.24.453.24 1.085V611h-1.86v-.983h-.06a1.9 1.9 0 0 1-.45.586c-.2.166-.42.297-.69.392q-.405.14-.93.139m.56-1.357c.29 0 .55-.057.77-.171.22-.117.39-.274.52-.471s.19-.42.19-.669v-.753c-.06.04-.15.077-.25.111q-.165.046-.36.088a15 15 0 0 1-.76.12q-.345.05-.6.161a.95.95 0 0 0-.4.3.7.7 0 0 0-.15.462c0 .268.1.472.29.614q.3.207.75.208m8.73-5.868v1.477h-4.27v-1.477zm-3.3-1.699h1.97v6.611c0 .182.02.323.08.425.05.098.13.167.23.207s.22.06.35.06c.09 0 .19-.007.28-.023l.21-.041.31 1.463q-.15.046-.42.106c-.17.044-.39.07-.65.079-.47.018-.89-.045-1.24-.189a1.74 1.74 0 0 1-.83-.674c-.2-.305-.29-.69-.29-1.154zm4.58 8.79v-7.091h1.97V611zm.99-8.005q-.435 0-.75-.291a.93.93 0 0 1-.31-.706c0-.271.1-.503.31-.697q.315-.296.75-.296t.75.296a.91.91 0 0 1 .31.697.93.93 0 0 1-.31.706q-.315.291-.75.291m5.76 8.143q-1.08 0-1.86-.457a3.1 3.1 0 0 1-1.21-1.283q-.42-.826-.42-1.916 0-1.098.42-1.92c.28-.551.69-.979 1.21-1.284q.78-.46 1.86-.461c.71 0 1.33.154 1.85.461.53.305.93.733 1.21 1.284.29.548.43 1.188.43 1.92 0 .727-.14 1.365-.43 1.916a3.05 3.05 0 0 1-1.21 1.283c-.52.305-1.14.457-1.85.457m.01-1.523c.32 0 .6-.092.81-.277.22-.188.39-.443.5-.766s.17-.691.17-1.104c0-.412-.06-.78-.17-1.103a1.7 1.7 0 0 0-.5-.766c-.21-.188-.49-.282-.81-.282-.33 0-.61.094-.83.282-.23.187-.39.443-.51.766-.11.323-.16.691-.16 1.103s.05.781.16 1.104c.12.323.28.578.51.766.22.185.5.277.83.277m6.72-2.714V611h-1.96v-7.091h1.87v1.251h.08c.16-.412.42-.738.79-.979q.555-.364 1.35-.364c.49 0 .92.107 1.28.323.37.215.66.523.86.923q.3.596.3 1.422V611h-1.96v-4.164c0-.434-.11-.773-.34-1.016-.22-.246-.53-.369-.92-.369-.27 0-.5.057-.71.171-.2.114-.35.28-.47.498-.11.216-.16.476-.17.781m12.34 4.237q-1.08 0-1.86-.457a3.05 3.05 0 0 1-1.21-1.283q-.42-.826-.42-1.916 0-1.098.42-1.92c.28-.551.68-.979 1.21-1.284q.78-.46 1.86-.461c.71 0 1.33.154 1.85.461.52.305.93.733 1.21 1.284.28.548.43 1.188.43 1.92 0 .727-.15 1.365-.43 1.916-.28.548-.69.976-1.21 1.283-.52.305-1.14.457-1.85.457m0-1.523c.33 0 .6-.092.82-.277.22-.188.39-.443.5-.766s.17-.691.17-1.104c0-.412-.06-.78-.17-1.103a1.7 1.7 0 0 0-.5-.766c-.22-.188-.49-.282-.82-.282-.32 0-.6.094-.83.282-.22.187-.39.443-.5.766a3.4 3.4 0 0 0-.17 1.103c0 .413.06.781.17 1.104s.28.578.5.766c.23.185.51.277.83.277m4.76 1.385v-7.091h1.91v1.237h.07q.195-.66.66-.997.45-.341 1.05-.341c.1 0 .2.006.32.018q.165.018.3.051v1.745c-.1-.028-.22-.053-.39-.074a3 3 0 0 0-.44-.032q-.435 0-.78.189-.33.184-.54.517c-.12.222-.19.477-.19.766V611zm11.72 0h-3.35v-9.455h3.38c.95 0 1.77.19 2.45.568q1.035.564 1.59 1.621c.37.704.56 1.548.56 2.529 0 .985-.19 1.832-.56 2.54a3.85 3.85 0 0 1-1.59 1.629c-.69.379-1.52.568-2.48.568m-1.35-1.713h1.27c.59 0 1.09-.104 1.49-.314.41-.212.71-.54.91-.983.21-.446.31-1.022.31-1.727 0-.698-.1-1.269-.31-1.712-.2-.443-.5-.77-.91-.979-.4-.209-.9-.314-1.49-.314h-1.27zm10.65 1.851c-.73 0-1.36-.147-1.88-.443-.52-.298-.93-.72-1.21-1.265-.28-.547-.43-1.195-.43-1.943 0-.73.15-1.37.43-1.921s.68-.98 1.19-1.288c.52-.307 1.13-.461 1.82-.461.47 0 .91.075 1.31.226.41.148.76.371 1.06.669.31.299.54.674.71 1.127.17.449.26.975.26 1.579v.54h-5.99v-1.219h4.14c0-.283-.07-.534-.19-.752q-.18-.329-.51-.513a1.5 1.5 0 0 0-.75-.189c-.3 0-.57.069-.8.208-.23.135-.4.318-.53.549-.13.228-.2.482-.2.762v1.158c0 .351.06.654.19.91.13.255.32.452.56.591s.53.207.85.207q.33 0 .6-.092c.19-.061.34-.154.47-.277q.195-.185.3-.452l1.82.12q-.15.655-.57 1.145a2.9 2.9 0 0 1-1.1.757c-.45.178-.96.267-1.55.267m4.54 2.521v-9.75h1.94v1.191h.09c.08-.191.21-.385.37-.582.17-.2.38-.366.65-.498.26-.136.6-.203.99-.203q.78 0 1.44.406c.43.268.78.672 1.04 1.214.26.539.4 1.214.4 2.027q0 1.187-.39 2.003c-.25.542-.59.953-1.03 1.233-.44.277-.92.415-1.46.415-.38 0-.71-.063-.97-.189a2 2 0 0 1-.66-.475c-.16-.194-.29-.39-.38-.587h-.06v3.795zm1.93-6.204c0 .421.05.789.17 1.103q.18.47.51.734.33.258.81.258t.81-.263c.22-.178.39-.424.5-.738q.18-.476.18-1.094c0-.41-.06-.77-.17-1.081a1.7 1.7 0 0 0-.51-.729 1.25 1.25 0 0 0-.81-.263c-.32 0-.59.084-.82.254-.21.169-.38.409-.5.72s-.17.677-.17 1.099m8.32 3.679c-.45 0-.86-.079-1.21-.236a2 2 0 0 1-.84-.706c-.2-.314-.31-.705-.31-1.172 0-.394.08-.725.22-.993.15-.268.34-.483.59-.646s.53-.287.85-.37.66-.141 1.01-.175c.41-.043.74-.083 1-.12q.375-.06.54-.176.18-.114.18-.341v-.028c0-.292-.1-.518-.28-.678q-.27-.24-.78-.241-.525 0-.84.236a1.1 1.1 0 0 0-.42.582l-1.82-.148c.1-.431.28-.803.55-1.117q.405-.475 1.05-.73c.43-.172.93-.258 1.49-.258.4 0 .77.046 1.13.138.37.093.69.236.97.43.28.193.5.443.67.747q.24.453.24 1.085V611h-1.86v-.983h-.06c-.11.221-.26.417-.46.586-.19.166-.42.297-.68.392q-.405.14-.93.139m.56-1.357c.29 0 .55-.057.77-.171.22-.117.39-.274.52-.471s.19-.42.19-.669v-.753c-.06.04-.15.077-.25.111q-.165.046-.36.088a15 15 0 0 1-.76.12q-.345.05-.6.161a.95.95 0 0 0-.4.3.7.7 0 0 0-.15.462c0 .268.1.472.29.614q.3.207.75.208m4.96 1.223v-7.091h1.9v1.237h.08c.13-.44.34-.772.65-.997q.45-.341 1.05-.341a3 3 0 0 1 .62.069v1.745a3.537 3.537 0 0 0-.83-.106q-.435 0-.78.189c-.22.123-.4.295-.53.517s-.2.477-.2.766V611zm9.44-7.091v1.477h-4.27v-1.477zm-3.3-1.699h1.97v6.611c0 .182.03.323.08.425.06.098.14.167.23.207.11.04.22.06.35.06.1 0 .19-.007.28-.023l.21-.041.31 1.463c-.1.031-.23.066-.41.106-.18.044-.4.07-.65.079-.48.018-.89-.045-1.25-.189-.35-.145-.63-.37-.83-.674-.19-.305-.29-.69-.29-1.154zm9.13 5.771v-4.072h1.97V611h-1.89v-1.288h-.07c-.16.415-.43.749-.8 1.002q-.555.378-1.35.378-.72 0-1.26-.323a2.2 2.2 0 0 1-.84-.919q-.3-.595-.3-1.426v-4.515h1.96v4.164c0 .419.12.75.34.993s.52.364.89.364q.36 0 .66-.161c.21-.111.38-.274.5-.49.13-.215.2-.481.19-.798m3.54 3.019v-7.091h1.91v1.237h.07c.13-.44.35-.772.65-.997.31-.228.66-.341 1.06-.341a3 3 0 0 1 .61.069v1.745a2.4 2.4 0 0 0-.38-.074 3 3 0 0 0-.45-.032c-.29 0-.54.063-.77.189a1.35 1.35 0 0 0-.54.517c-.13.222-.19.477-.19.766V611zm8.22.138c-.73 0-1.35-.147-1.88-.443-.52-.298-.93-.72-1.21-1.265q-.42-.82-.42-1.943 0-1.095.42-1.921.42-.825 1.2-1.288c.51-.307 1.12-.461 1.81-.461.47 0 .91.075 1.31.226.41.148.76.371 1.06.669.31.299.54.674.71 1.127.17.449.26.975.26 1.579v.54h-5.99v-1.219h4.14c0-.283-.07-.534-.19-.752q-.18-.329-.51-.513a1.5 1.5 0 0 0-.75-.189c-.3 0-.57.069-.8.208-.23.135-.4.318-.53.549-.13.228-.2.482-.2.762v1.158c0 .351.06.654.19.91.13.255.32.452.56.591s.53.207.86.207q.315 0 .6-.092a1.23 1.23 0 0 0 .76-.729l1.82.12q-.15.655-.57 1.145a2.9 2.9 0 0 1-1.1.757c-.45.178-.96.267-1.55.267"/><path stroke="#c4c4c4" d="M848.5 297v110M1077.5 297v183M1689.5 297v183M1958.5 297v272"/><path fill="#5c5f5e" d="M836.342 285h-3.351v-9.455h3.379q1.427 0 2.456.568a3.83 3.83 0 0 1 1.583 1.621q.56 1.057.559 2.529 0 1.478-.559 2.54a3.84 3.84 0 0 1-1.592 1.629q-1.035.568-2.475.568m-1.352-1.713h1.269q.887 0 1.491-.314.61-.318.914-.983.31-.67.31-1.727 0-1.047-.31-1.712a2 2 0 0 0-.909-.979q-.605-.314-1.491-.314h-1.274zm9.444 1.847q-.68 0-1.21-.236a1.94 1.94 0 0 1-.84-.706q-.305-.471-.305-1.172 0-.591.217-.993t.591-.646a2.9 2.9 0 0 1 .85-.37q.48-.124 1.006-.175.618-.065.997-.12.38-.06.55-.176a.38.38 0 0 0 .17-.341v-.028q0-.438-.277-.678-.272-.24-.775-.241-.531 0-.845.236a1.08 1.08 0 0 0-.415.582l-1.819-.148q.139-.646.544-1.117a2.6 2.6 0 0 1 1.048-.73q.647-.258 1.496-.258.591 0 1.131.138.545.14.965.43.424.29.669.747.245.453.245 1.085V285h-1.865v-.983h-.055a2 2 0 0 1-.457.586 2.1 2.1 0 0 1-.688.392 2.8 2.8 0 0 1-.928.139m.563-1.357q.434 0 .766-.171.333-.176.522-.471.189-.296.189-.669v-.753q-.092.06-.254.111a5 5 0 0 1-.355.088q-.198.036-.397.069l-.36.051a2.4 2.4 0 0 0-.605.161 1 1 0 0 0-.402.3.73.73 0 0 0-.143.462q0 .401.291.614.295.207.748.208m5.916 3.882q-.373 0-.702-.06a2.6 2.6 0 0 1-.535-.143l.443-1.468q.347.106.623.115a.8.8 0 0 0 .485-.129q.208-.138.337-.471l.115-.3-2.543-7.294h2.068l1.468 5.207h.074l1.482-5.207h2.082l-2.756 7.857a3.3 3.3 0 0 1-.541.997 2.2 2.2 0 0 1-.854.661q-.517.235-1.246.235m12.303-7.728-1.801.111a.9.9 0 0 0-.198-.416 1.06 1.06 0 0 0-.402-.3 1.4 1.4 0 0 0-.586-.115q-.457 0-.771.194-.314.189-.314.508 0 .254.203.429.204.176.697.282l1.284.258q1.034.213 1.542.683.507.471.507 1.238 0 .696-.41 1.223-.407.526-1.118.822-.706.29-1.629.29-1.409 0-2.244-.586a2.29 2.29 0 0 1-.974-1.606l1.934-.102q.088.43.425.656.338.22.863.221.518 0 .831-.198.319-.204.324-.522a.55.55 0 0 0-.227-.439q-.22-.175-.683-.267l-1.228-.245q-1.038-.207-1.546-.72-.504-.512-.504-1.307 0-.682.37-1.177.373-.494 1.048-.761.678-.268 1.588-.268 1.343 0 2.114.568.776.567.905 1.546M1058.39 285l-2.7-9.455h2.18l1.57 6.57h.08l1.72-6.57h1.87l1.72 6.584h.09l1.56-6.584h2.18l-2.7 9.455h-1.95l-1.8-6.181h-.07l-1.8 6.181zm13.78.138q-1.095 0-1.89-.443c-.52-.298-.92-.72-1.21-1.265q-.42-.82-.42-1.943 0-1.095.42-1.921.435-.826 1.2-1.288c.52-.307 1.12-.461 1.82-.461.47 0 .9.075 1.31.226.4.148.76.371 1.06.669s.54.674.71 1.127c.17.449.25.975.25 1.579v.54h-5.99v-1.219h4.14q0-.425-.18-.752a1.43 1.43 0 0 0-1.27-.702c-.3 0-.56.069-.79.208q-.345.203-.54.549c-.13.228-.19.482-.2.762v1.158c0 .351.07.654.2.91.13.255.32.452.56.591s.52.207.85.207q.33 0 .6-.092c.18-.061.34-.154.47-.277s.22-.274.29-.452l1.82.12q-.135.655-.57 1.145c-.28.323-.65.575-1.1.757-.44.178-.96.267-1.54.267m7.77 0q-1.095 0-1.89-.443c-.52-.298-.92-.72-1.21-1.265q-.42-.82-.42-1.943 0-1.095.42-1.921.435-.826 1.2-1.288c.52-.307 1.12-.461 1.82-.461.47 0 .9.075 1.31.226.4.148.76.371 1.06.669s.54.674.71 1.127c.17.449.25.975.25 1.579v.54h-5.99v-1.219h4.14q0-.425-.18-.752a1.43 1.43 0 0 0-1.27-.702c-.3 0-.56.069-.79.208q-.345.203-.54.549c-.13.228-.19.482-.2.762v1.158c0 .351.07.654.2.91.13.255.32.452.56.591s.52.207.85.207q.33 0 .6-.092c.18-.061.34-.154.47-.277s.22-.274.29-.452l1.82.12q-.135.655-.57 1.145c-.28.323-.65.575-1.1.757-.44.178-.96.267-1.54.267m6.32-2.178v-2.36h.29l2.27-2.691h2.26l-3.05 3.564h-.47zm-1.78 2.04v-9.455h1.96V285zm4.43 0-2.09-3.088 1.31-1.39 3.08 4.478zm9.03-5.069-1.8.111a1.011 1.011 0 0 0-.6-.716 1.4 1.4 0 0 0-.59-.115c-.3 0-.56.065-.77.194-.21.126-.31.295-.31.508 0 .169.07.312.2.429.14.117.37.211.7.282l1.28.258c.69.142 1.21.369 1.55.683.33.314.5.727.5 1.238 0 .464-.13.872-.41 1.223q-.405.526-1.11.822c-.48.194-1.02.29-1.63.29q-1.41 0-2.25-.586a2.27 2.27 0 0 1-.97-1.606l1.93-.102c.06.286.2.505.43.656.22.147.51.221.86.221.34 0 .62-.066.83-.198.21-.136.32-.31.32-.522a.52.52 0 0 0-.22-.439q-.225-.175-.69-.267l-1.22-.245c-.7-.138-1.21-.378-1.55-.72s-.5-.777-.5-1.307c0-.455.12-.847.37-1.177.25-.329.59-.583 1.04-.761q.69-.268 1.59-.268c.9 0 1.6.189 2.12.568.51.378.82.894.9 1.546M1665.54 275.545h2.46l2.6 6.353h.12l2.6-6.353h2.46V285h-1.93v-6.154h-.08l-2.45 6.108H1670l-2.45-6.131h-.08V285h-1.93zm15.06 9.593q-1.08 0-1.86-.457a3.2 3.2 0 0 1-1.21-1.283q-.42-.826-.42-1.916 0-1.098.42-1.92a3.15 3.15 0 0 1 1.21-1.284q.78-.46 1.86-.461c.72 0 1.33.154 1.85.461.53.305.93.733 1.21 1.284.29.548.43 1.188.43 1.92 0 .727-.14 1.365-.43 1.916a3.05 3.05 0 0 1-1.21 1.283c-.52.305-1.13.457-1.85.457m.01-1.523c.32 0 .6-.092.81-.277.22-.188.39-.443.5-.766s.17-.691.17-1.104c0-.412-.06-.78-.17-1.103a1.7 1.7 0 0 0-.5-.766c-.21-.188-.49-.282-.81-.282-.33 0-.61.094-.83.282-.23.187-.39.443-.51.766-.11.323-.16.691-.16 1.103s.05.781.16 1.104c.12.323.28.578.51.766.22.185.5.277.83.277m6.72-2.714V285h-1.96v-7.091h1.87v1.251h.08c.16-.412.42-.738.79-.979q.555-.364 1.35-.364.735 0 1.29.323c.36.215.65.523.85.923q.3.595.3 1.422V285h-1.96v-4.164c0-.434-.11-.773-.34-1.016-.22-.246-.53-.369-.92-.369-.27 0-.5.057-.7.171q-.3.171-.48.498c-.11.216-.16.476-.17.781m9.9-2.992v1.477h-4.27v-1.477zm-3.31-1.699h1.97v6.611c0 .182.03.323.08.425q.09.147.24.207c.1.04.21.06.35.06q.135 0 .27-.023l.22-.041.3 1.463c-.09.031-.23.066-.41.106-.18.044-.4.07-.65.079-.48.018-.89-.045-1.25-.189-.35-.145-.63-.37-.82-.674q-.3-.458-.3-1.154zm6.71 4.691V285h-1.97v-9.455h1.91v3.615h.08a2 2 0 0 1 .78-.983c.36-.24.8-.36 1.34-.36q.735 0 1.29.323c.37.212.66.518.86.919.2.397.31.872.3 1.426V285h-1.96v-4.164c0-.437-.11-.777-.34-1.02q-.33-.365-.93-.365c-.27 0-.5.057-.71.171q-.3.171-.48.498c-.11.216-.17.476-.17.781m12.04-.97-1.8.111a1.011 1.011 0 0 0-.6-.716 1.4 1.4 0 0 0-.59-.115c-.3 0-.56.065-.77.194-.21.126-.31.295-.31.508 0 .169.07.312.2.429.14.117.37.211.7.282l1.28.258c.69.142 1.21.369 1.54.683q.51.471.51 1.238c0 .464-.13.872-.41 1.223-.27.351-.64.625-1.12.822-.47.194-1.01.29-1.63.29-.93 0-1.68-.195-2.24-.586a2.27 2.27 0 0 1-.97-1.606l1.93-.102c.06.286.2.505.43.656.22.147.51.221.86.221.34 0 .62-.066.83-.198.21-.136.32-.31.32-.522a.52.52 0 0 0-.22-.439q-.225-.175-.69-.267l-1.22-.245c-.7-.138-1.21-.378-1.55-.72s-.5-.777-.5-1.307c0-.455.12-.847.37-1.177.25-.329.59-.583 1.04-.761q.69-.268 1.59-.268c.9 0 1.6.189 2.12.568q.765.567.9 1.546M1932.61 258.545h2.46l2.6 6.353h.12l2.6-6.353h2.46V268h-1.93v-6.154h-.08l-2.45 6.108h-1.32l-2.45-6.131h-.08V268h-1.93zm15.06 9.593q-1.08 0-1.86-.457a3.2 3.2 0 0 1-1.21-1.283q-.42-.826-.42-1.916 0-1.098.42-1.92a3.15 3.15 0 0 1 1.21-1.284q.78-.46 1.86-.461c.72 0 1.33.154 1.85.461.53.305.93.733 1.21 1.284.29.548.43 1.188.43 1.92 0 .727-.14 1.365-.43 1.916a3.05 3.05 0 0 1-1.21 1.283c-.52.305-1.13.457-1.85.457m.01-1.523c.32 0 .6-.092.81-.277.22-.188.39-.443.5-.766s.17-.691.17-1.104c0-.412-.06-.78-.17-1.103a1.7 1.7 0 0 0-.5-.766c-.21-.188-.49-.282-.81-.282-.33 0-.61.094-.83.282q-.33.281-.51.766c-.11.323-.16.691-.16 1.103s.05.781.16 1.104q.18.484.51.766c.22.185.5.277.83.277m6.72-2.714V268h-1.96v-7.091h1.87v1.251h.08c.16-.412.42-.738.79-.979q.555-.364 1.35-.364.735 0 1.29.323c.36.215.65.523.85.923q.3.595.3 1.422V268h-1.96v-4.164q0-.651-.33-1.016-.345-.369-.93-.369c-.27 0-.5.057-.7.171q-.3.171-.48.498c-.11.216-.16.476-.17.781m9.9-2.992v1.477h-4.27v-1.477zm-3.31-1.699h1.97v6.611c0 .182.03.323.08.425q.09.147.24.207c.1.04.21.06.35.06q.135 0 .27-.023l.22-.041.3 1.463c-.09.031-.23.066-.41.106-.18.044-.4.07-.65.079-.48.018-.89-.045-1.25-.189-.35-.145-.63-.37-.82-.674q-.3-.458-.3-1.154zm6.71 4.691V268h-1.97v-9.455h1.91v3.615h.08a2 2 0 0 1 .78-.983c.36-.24.8-.36 1.34-.36q.735 0 1.29.323c.37.212.66.518.86.919q.315.595.3 1.426V268h-1.96v-4.164c0-.437-.11-.777-.34-1.02q-.33-.365-.93-.365c-.27 0-.5.057-.71.171q-.3.171-.48.498c-.11.216-.17.476-.17.781m8.11-5.356V268h-1.97v-9.455zm2.79 12.114c-.25 0-.49-.02-.7-.06q-.33-.056-.54-.143l.44-1.468q.345.106.63.115c.18.006.35-.037.48-.129.14-.092.25-.249.34-.471l.11-.3-2.54-7.294h2.07l1.47 5.207h.07l1.48-5.207h2.08l-2.75 7.857q-.195.573-.54.997a2.2 2.2 0 0 1-.86.661c-.34.157-.76.235-1.24.235m-37.68 7.196h-2.02a1.93 1.93 0 0 0-.66-1.223 2 2 0 0 0-.62-.332 2.4 2.4 0 0 0-.76-.116c-.48 0-.91.122-1.27.365-.37.24-.65.591-.85 1.053q-.3.687-.3 1.671 0 1.01.3 1.699c.2.458.49.804.85 1.038q.54.351 1.26.351c.27 0 .52-.035.74-.106.23-.071.44-.174.62-.309.18-.139.32-.307.44-.504.12-.196.2-.421.25-.674l2.02.01q-.075.65-.39 1.255a3.7 3.7 0 0 1-.84 1.076c-.34.314-.76.563-1.24.748a4.6 4.6 0 0 1-1.63.272c-.84 0-1.6-.191-2.26-.572-.67-.382-1.19-.934-1.57-1.657-.38-.724-.58-1.599-.58-2.627 0-1.031.2-1.908.59-2.632a4 4 0 0 1 1.57-1.652q1.005-.573 2.25-.573c.55 0 1.05.077 1.52.231s.89.379 1.25.674c.37.292.66.651.89 1.076.23.424.38.911.44 1.458m3.37 2.046V284h-1.97v-9.455h1.91v3.615h.08a2 2 0 0 1 .78-.983c.36-.24.8-.36 1.34-.36q.735 0 1.29.323c.37.212.66.518.86.919q.315.595.3 1.426V284h-1.96v-4.164c0-.437-.11-.777-.34-1.02q-.33-.365-.93-.365c-.27 0-.5.057-.71.171q-.3.171-.48.498c-.11.216-.17.476-.17.781m9.37 4.237c-.73 0-1.35-.147-1.88-.443-.52-.298-.93-.72-1.21-1.265q-.42-.82-.42-1.943 0-1.095.42-1.921t1.2-1.288c.51-.307 1.12-.461 1.81-.461.47 0 .91.075 1.31.226.41.148.76.371 1.06.669.31.299.54.674.71 1.127.17.449.26.975.26 1.579v.54h-5.99v-1.219h4.14c0-.283-.07-.534-.19-.752q-.18-.329-.51-.513a1.5 1.5 0 0 0-.75-.189c-.3 0-.57.069-.8.208-.23.135-.4.318-.53.549-.13.228-.2.482-.2.762v1.158c0 .351.06.654.19.91.13.255.32.452.56.591s.53.207.86.207q.315 0 .6-.092a1.23 1.23 0 0 0 .76-.729l1.82.12q-.15.655-.57 1.145a2.9 2.9 0 0 1-1.1.757c-.45.178-.96.267-1.55.267m7.74 0c-.72 0-1.35-.153-1.87-.461a3.1 3.1 0 0 1-1.2-1.293q-.42-.827-.42-1.902 0-1.089.42-1.911c.29-.551.69-.98 1.21-1.288q.78-.466 1.86-.466c.61 0 1.16.112 1.62.337.47.224.83.54 1.1.946q.405.609.45 1.431h-1.85q-.09-.53-.42-.854-.33-.327-.87-.328c-.31 0-.57.084-.8.25-.23.163-.4.401-.53.715a3.2 3.2 0 0 0-.19 1.141c0 .452.07.837.19 1.154s.3.558.53.724c.23.167.49.25.8.25q.33 0 .6-.139.27-.138.45-.401.18-.269.24-.642h1.85a2.94 2.94 0 0 1-.44 1.431c-.26.409-.62.729-1.09.96-.46.231-1 .346-1.64.346m6.21-2.178.01-2.36h.28l2.27-2.691h2.26l-3.05 3.564h-.47zm-1.78 2.04v-9.455h1.97V284zm4.43 0-2.08-3.088 1.31-1.39 3.08 4.478zm3.14 0v-7.091h1.96V284zm.99-8.005c-.3 0-.55-.097-.76-.291a.946.946 0 0 1 0-1.403c.21-.197.46-.296.76-.296.29 0 .54.099.74.296a.92.92 0 0 1 .32.697.94.94 0 0 1-.32.706c-.2.194-.45.291-.74.291m4.52 3.906V284h-1.97v-7.091h1.87v1.251h.09c.15-.412.42-.738.79-.979.37-.243.81-.364 1.34-.364q.735 0 1.29.323c.36.215.65.523.85.923.2.397.31.871.31 1.422V284h-1.97v-4.164q0-.651-.33-1.016-.345-.369-.93-.369c-.27 0-.5.057-.7.171s-.36.28-.47.498c-.11.216-.17.476-.17.781"/></svg>