<svg xmlns="http://www.w3.org/2000/svg" width="2056" height="1184" fill="none"><path fill="#f1f0ee" d="M0 0h2056v1184H0z"/><rect width="217" height="73" x="133" y="556" fill="#00653e" rx="36.5"/><path fill="#fff" d="M183.035 588.545h1.999v6.14q0 1.035-.494 1.81a3.3 3.3 0 0 1-1.371 1.21q-.882.429-2.055.429-1.177 0-2.059-.429a3.3 3.3 0 0 1-1.371-1.21q-.489-.775-.489-1.81v-6.14h1.999v5.97q0 .54.235.96.24.42.674.66.433.24 1.011.24.582 0 1.011-.24.434-.24.67-.66.24-.42.24-.96zm5.573 5.356V598h-1.967v-7.091h1.875v1.251h.083q.236-.618.789-.979.554-.364 1.343-.364.74 0 1.288.323.55.323.854.923.305.596.305 1.422V598h-1.966v-4.164q.004-.651-.333-1.016-.337-.369-.928-.369-.396 0-.701.171-.3.171-.471.498a1.7 1.7 0 0 0-.171.781m6.12 4.099v-7.091h1.874v1.251h.084q.22-.623.738-.983.517-.36 1.237-.36.73 0 1.242.364.513.361.683.979h.074q.218-.61.785-.974.573-.369 1.353-.369.992 0 1.611.632.623.628.623 1.782V598h-1.962v-4.381q0-.59-.314-.886a1.1 1.1 0 0 0-.785-.296q-.535 0-.835.342-.3.336-.3.891V598h-1.907v-4.423q0-.52-.3-.831-.296-.309-.78-.309-.328 0-.591.166-.258.162-.411.457a1.46 1.46 0 0 0-.152.684V598zm15.061.138q-1.076 0-1.86-.457a3.1 3.1 0 0 1-1.205-1.283q-.425-.826-.425-1.916 0-1.098.425-1.92a3.1 3.1 0 0 1 1.205-1.284q.785-.46 1.86-.461 1.077 0 1.856.461.785.457 1.21 1.284.424.822.424 1.92 0 1.09-.424 1.916a3.1 3.1 0 0 1-1.21 1.283q-.78.457-1.856.457m.01-1.523q.489 0 .817-.277.327-.282.494-.766.171-.484.171-1.104 0-.618-.171-1.103a1.7 1.7 0 0 0-.494-.766q-.328-.282-.817-.282-.495 0-.831.282-.333.281-.504.766-.166.485-.166 1.103 0 .62.166 1.104.171.484.504.766.336.277.831.277m8.531-5.706v1.477h-4.27v-1.477zm-3.301-1.699h1.967v6.611q0 .273.083.425a.46.46 0 0 0 .231.207q.151.06.351.06.138 0 .277-.023l.212-.041.309 1.463a5 5 0 0 1-.415.106q-.268.066-.651.079-.711.027-1.247-.189a1.74 1.74 0 0 1-.826-.674q-.296-.458-.291-1.154zm4.582 8.79v-7.091h1.967V598zm.988-8.005q-.438 0-.753-.291a.94.94 0 0 1-.309-.706q0-.406.309-.697.315-.296.753-.296.439 0 .748.296a.92.92 0 0 1 .314.697.94.94 0 0 1-.314.706 1.05 1.05 0 0 1-.748.291m9.165.914L227.285 598h-2.216l-2.479-7.091h2.077l1.473 5.074h.074l1.468-5.074zm2.838 7.225q-.68 0-1.21-.236a1.94 1.94 0 0 1-.84-.706q-.305-.471-.305-1.172 0-.591.217-.993.218-.402.591-.646a2.9 2.9 0 0 1 .85-.37q.48-.124 1.006-.175.619-.064.997-.12.38-.06.55-.176a.38.38 0 0 0 .17-.341v-.028q0-.438-.277-.678-.272-.24-.775-.241-.531 0-.845.236a1.08 1.08 0 0 0-.415.582l-1.819-.148q.139-.646.544-1.117a2.6 2.6 0 0 1 1.048-.73q.647-.258 1.496-.258.591 0 1.131.138.545.14.965.43.424.29.669.747.245.453.245 1.085V598h-1.865v-.983h-.055a2 2 0 0 1-.457.586 2.1 2.1 0 0 1-.688.392 2.8 2.8 0 0 1-.928.139m.563-1.357q.434 0 .766-.171.333-.175.522-.471.189-.295.189-.669v-.753q-.092.06-.254.111a5 5 0 0 1-.355.088q-.198.036-.397.069l-.36.051a2.4 2.4 0 0 0-.605.161 1 1 0 0 0-.402.3.73.73 0 0 0-.143.462q0 .402.291.614.295.207.748.208m8.727-5.868v1.477h-4.27v-1.477zm-3.3-1.699h1.966v6.611q0 .273.083.425a.46.46 0 0 0 .231.207q.153.06.351.06.139 0 .277-.023l.212-.041.31 1.463a6 6 0 0 1-.416.106q-.267.066-.651.079-.71.027-1.246-.189a1.75 1.75 0 0 1-.827-.674q-.295-.458-.29-1.154zm7.737 8.928q-1.094 0-1.884-.443a3.03 3.03 0 0 1-1.209-1.265q-.425-.82-.425-1.943 0-1.095.425-1.921.424-.825 1.195-1.288.777-.46 1.819-.461.702 0 1.307.226.609.222 1.062.669.456.448.711 1.127.253.673.253 1.579v.54h-5.987v-1.219h4.136q0-.425-.184-.752a1.3 1.3 0 0 0-.513-.513 1.46 1.46 0 0 0-.752-.189q-.449 0-.794.208a1.45 1.45 0 0 0-.536.549 1.56 1.56 0 0 0-.198.762v1.158q0 .526.194.91.198.383.558.591t.854.207q.329 0 .6-.092.272-.092.467-.277.193-.185.295-.452l1.819.12a2.5 2.5 0 0 1-.568 1.145 2.85 2.85 0 0 1-1.099.757q-.669.267-1.546.267m7.151-.023a2.7 2.7 0 0 1-1.464-.415q-.65-.42-1.034-1.233-.378-.816-.378-2.003 0-1.219.392-2.027.393-.812 1.043-1.214a2.67 2.67 0 0 1 1.436-.406q.596 0 .993.203.401.198.646.498.249.295.379.582h.06v-3.555h1.962V598h-1.939v-1.136h-.083a2.6 2.6 0 0 1-.393.587q-.249.286-.651.475-.397.189-.969.189m.623-1.565q.476 0 .803-.258.333-.263.508-.734.18-.471.18-1.103 0-.633-.175-1.099a1.6 1.6 0 0 0-.508-.72 1.3 1.3 0 0 0-.808-.254q-.485 0-.817.263a1.6 1.6 0 0 0-.503.729 3.1 3.1 0 0 0-.171 1.081q0 .618.171 1.094.175.471.503.738.332.264.817.263m8.074 1.45v-9.455h3.73q1.075 0 1.833.411.757.406 1.154 1.131.402.72.402 1.662t-.406 1.662-1.178 1.122q-.766.402-1.855.402h-2.378v-1.602h2.054q.577 0 .951-.199.379-.203.564-.558.189-.36.189-.827 0-.471-.189-.821a1.27 1.27 0 0 0-.564-.55q-.378-.198-.96-.198h-1.348V598zm10.212.134q-.68 0-1.21-.236a1.94 1.94 0 0 1-.84-.706q-.305-.471-.305-1.172 0-.591.217-.993t.591-.646a2.9 2.9 0 0 1 .85-.37q.48-.124 1.006-.175.62-.064.997-.12.38-.06.55-.176a.38.38 0 0 0 .17-.341v-.028q0-.438-.277-.678-.272-.24-.775-.241-.531 0-.845.236a1.08 1.08 0 0 0-.415.582l-1.819-.148q.139-.646.544-1.117a2.6 2.6 0 0 1 1.048-.73q.647-.258 1.496-.258.591 0 1.131.138.545.14.965.43.425.29.669.747.245.453.245 1.085V598h-1.865v-.983h-.055a2 2 0 0 1-.457.586 2.1 2.1 0 0 1-.688.392 2.8 2.8 0 0 1-.928.139m.563-1.357q.434 0 .766-.171.333-.175.522-.471.189-.295.189-.669v-.753q-.092.06-.254.111a5 5 0 0 1-.355.088q-.199.036-.397.069l-.36.051a2.4 2.4 0 0 0-.605.161 1 1 0 0 0-.402.3.73.73 0 0 0-.143.462q0 .402.291.614.295.207.748.208m8.728-5.868v1.477h-4.271v-1.477zm-3.301-1.699h1.966v6.611q0 .273.083.425a.46.46 0 0 0 .231.207q.153.06.351.06.139 0 .277-.023l.212-.041.31 1.463a6 6 0 0 1-.416.106q-.267.066-.651.079-.71.027-1.246-.189a1.74 1.74 0 0 1-.826-.674q-.296-.458-.291-1.154zm4.582 8.79v-7.091h1.966V598zm.988-8.005q-.44 0-.753-.291a.94.94 0 0 1-.309-.706q0-.406.309-.697a1.06 1.06 0 0 1 .753-.296q.438 0 .747.296.315.29.314.697a.93.93 0 0 1-.314.706 1.05 1.05 0 0 1-.747.291m5.785 8.143q-1.094 0-1.883-.443a3.03 3.03 0 0 1-1.21-1.265q-.425-.82-.425-1.943 0-1.095.425-1.921.425-.825 1.196-1.288.775-.46 1.819-.461.701 0 1.306.226.609.222 1.062.669.457.448.711 1.127.254.673.254 1.579v.54h-5.988v-1.219h4.137q0-.425-.185-.752a1.3 1.3 0 0 0-.513-.513 1.46 1.46 0 0 0-.752-.189q-.448 0-.794.208a1.46 1.46 0 0 0-.536.549 1.56 1.56 0 0 0-.198.762v1.158q0 .526.194.91.198.383.558.591t.854.207q.328 0 .601-.092t.466-.277a1.2 1.2 0 0 0 .295-.452l1.819.12a2.5 2.5 0 0 1-.568 1.145 2.86 2.86 0 0 1-1.098.757q-.67.267-1.547.267m6.505-4.237V598h-1.967v-7.091h1.874v1.251h.083q.236-.618.79-.979.554-.364 1.343-.364.74 0 1.288.323.55.323.854.923.305.596.305 1.422V598h-1.967v-4.164q.005-.651-.332-1.016-.337-.369-.928-.369-.397 0-.702.171-.3.171-.47.498a1.7 1.7 0 0 0-.171.781m9.892-2.992v1.477h-4.271v-1.477zm-3.301-1.699h1.967v6.611q0 .273.083.425a.46.46 0 0 0 .23.207q.153.06.351.06.14 0 .277-.023l.213-.041.309 1.463a6 6 0 0 1-.416.106q-.267.066-.65.079-.711.027-1.247-.189a1.74 1.74 0 0 1-.826-.674q-.295-.458-.291-1.154z"/><rect width="213" height="69" x="395" y="561" stroke="#00653e" stroke-width="4" rx="34.5"/><path fill="#00653e" d="M433.227 601v-9.455h3.731q1.076 0 1.832.411.758.406 1.154 1.131.402.72.402 1.662t-.406 1.662-1.177 1.122q-.767.402-1.856.402h-2.378v-1.602h2.055q.576 0 .951-.199.378-.203.563-.558.189-.36.189-.827 0-.471-.189-.821a1.26 1.26 0 0 0-.563-.55q-.38-.198-.961-.198h-1.348V601zm10.212.134q-.678 0-1.209-.236a1.95 1.95 0 0 1-.841-.706q-.304-.471-.304-1.172 0-.591.217-.993.216-.402.591-.646.373-.245.849-.37.48-.124 1.006-.175.619-.064.998-.12.378-.06.549-.176a.38.38 0 0 0 .171-.341v-.028q0-.438-.277-.678-.273-.24-.776-.241-.53 0-.845.236a1.1 1.1 0 0 0-.415.582l-1.819-.148q.138-.646.545-1.117.406-.475 1.048-.73.646-.258 1.495-.258.591 0 1.131.138.545.14.965.43.425.29.67.747.244.453.244 1.085V601h-1.865v-.983h-.055a2 2 0 0 1-.457.586 2.1 2.1 0 0 1-.688.392 2.8 2.8 0 0 1-.928.139m.563-1.357q.435 0 .767-.171.332-.175.521-.471.19-.295.19-.669v-.753q-.093.06-.254.111-.157.046-.356.088-.198.036-.397.069l-.36.051a2.4 2.4 0 0 0-.605.161.97.97 0 0 0-.401.3.73.73 0 0 0-.143.462q0 .402.29.614.296.207.748.208m8.728-5.868v1.477h-4.27v-1.477zm-3.301-1.699h1.967v6.611q0 .273.083.425a.46.46 0 0 0 .231.207q.152.06.35.06.14 0 .277-.023l.213-.041.309 1.463a5 5 0 0 1-.415.106q-.268.066-.651.079-.711.027-1.247-.189a1.74 1.74 0 0 1-.826-.674q-.296-.458-.291-1.154zm4.582 8.79v-7.091h1.966V601zm.988-8.005a1.07 1.07 0 0 1-.753-.291.94.94 0 0 1-.309-.706q0-.406.309-.697.314-.296.753-.296.438 0 .748.296a.92.92 0 0 1 .314.697.94.94 0 0 1-.314.706 1.05 1.05 0 0 1-.748.291m5.785 8.143q-1.094 0-1.883-.443a3.04 3.04 0 0 1-1.21-1.265q-.424-.82-.424-1.943 0-1.095.424-1.921.425-.825 1.196-1.288.775-.46 1.819-.461.702 0 1.306.226.61.222 1.062.669.457.448.711 1.127.254.673.254 1.579v.54h-5.988v-1.219h4.137q0-.425-.185-.752a1.3 1.3 0 0 0-.512-.513 1.47 1.47 0 0 0-.753-.189 1.5 1.5 0 0 0-.794.208 1.45 1.45 0 0 0-.535.549q-.195.342-.199.762v1.158q0 .526.194.91.199.383.559.591t.854.207q.327 0 .6-.092t.466-.277.296-.452l1.818.12a2.5 2.5 0 0 1-.567 1.145q-.426.484-1.099.757-.67.267-1.547.267m6.505-4.237V601h-1.967v-7.091h1.875v1.251h.083q.236-.618.789-.979.554-.364 1.344-.364.738 0 1.288.323t.854.923q.304.596.304 1.422V601h-1.966v-4.164q.005-.651-.333-1.016-.337-.369-.928-.369-.396 0-.701.171-.3.171-.471.498a1.7 1.7 0 0 0-.171.781m9.892-2.992v1.477h-4.27v-1.477zm-3.301-1.699h1.967v6.611q0 .273.083.425a.46.46 0 0 0 .231.207q.152.06.351.06.138 0 .277-.023l.212-.041.309 1.463a5 5 0 0 1-.415.106q-.268.066-.651.079-.711.027-1.247-.189a1.74 1.74 0 0 1-.826-.674q-.296-.458-.291-1.154zm11.196 5.503h1.699l.854 1.099.84.978 1.584 1.986h-1.865l-1.09-1.339-.558-.794zm5.12-1.44q0 1.546-.586 2.631-.582 1.085-1.588 1.657-1.002.568-2.253.568-1.26 0-2.262-.572-1.002-.573-1.584-1.657-.582-1.086-.581-2.627 0-1.546.581-2.632.582-1.085 1.584-1.652 1.002-.573 2.262-.573 1.251 0 2.253.573 1.006.567 1.588 1.652.586 1.086.586 2.632m-2.027 0q0-1.002-.3-1.69-.295-.687-.835-1.043t-1.265-.356-1.265.356-.84 1.043q-.296.688-.296 1.69t.296 1.689q.3.688.84 1.044.54.355 1.265.355t1.265-.355.835-1.044q.3-.687.3-1.689m8.018 1.708v-4.072h1.967V601h-1.889v-1.288h-.073q-.24.622-.799 1.002-.553.378-1.353.378-.711 0-1.251-.323a2.2 2.2 0 0 1-.845-.919q-.3-.595-.304-1.426v-4.515h1.966v4.164q.005.628.337.993.333.364.891.364.356 0 .665-.161.31-.166.499-.49.194-.322.189-.798m6.771 3.157q-1.094 0-1.883-.443a3.03 3.03 0 0 1-1.21-1.265q-.425-.82-.425-1.943 0-1.095.425-1.921.425-.825 1.196-1.288.775-.46 1.819-.461.702 0 1.306.226.609.222 1.062.669.457.448.711 1.127.254.673.254 1.579v.54h-5.988v-1.219h4.137q0-.425-.185-.752a1.3 1.3 0 0 0-.512-.513 1.47 1.47 0 0 0-.753-.189 1.5 1.5 0 0 0-.794.208 1.45 1.45 0 0 0-.535.549q-.195.342-.199.762v1.158q0 .526.194.91.198.383.558.591t.855.207q.327 0 .6-.092t.466-.277a1.2 1.2 0 0 0 .295-.452l1.819.12a2.5 2.5 0 0 1-.568 1.145 2.86 2.86 0 0 1-1.098.757q-.67.267-1.547.267m10.438-5.207-1.8.111a.94.94 0 0 0-.199-.416 1.05 1.05 0 0 0-.401-.3 1.4 1.4 0 0 0-.587-.115q-.456 0-.771.194-.314.189-.314.508 0 .254.203.429t.698.282l1.283.258q1.034.213 1.542.683.507.471.508 1.238 0 .696-.411 1.223-.406.527-1.117.822-.706.29-1.63.29-1.409 0-2.244-.586a2.29 2.29 0 0 1-.974-1.606l1.935-.102q.088.43.424.656.337.22.864.221.516 0 .831-.198.318-.204.323-.522a.55.55 0 0 0-.226-.439q-.222-.175-.684-.267l-1.228-.245q-1.039-.207-1.546-.72-.504-.513-.503-1.307 0-.682.369-1.177.374-.494 1.048-.761.679-.268 1.588-.268 1.344 0 2.114.568.776.568.905 1.546m5.172-2.022v1.477h-4.271v-1.477zm-3.301-1.699h1.967v6.611q0 .273.083.425a.46.46 0 0 0 .23.207q.153.06.351.06.14 0 .277-.023l.213-.041.309 1.463a6 6 0 0 1-.416.106q-.267.066-.65.079-.711.027-1.247-.189a1.74 1.74 0 0 1-.826-.674q-.295-.458-.291-1.154zm4.582 8.79v-7.091h1.966V601zm.988-8.005q-.44 0-.753-.291a.94.94 0 0 1-.309-.706q0-.406.309-.697a1.06 1.06 0 0 1 .753-.296q.438 0 .748.296a.92.92 0 0 1 .313.697.94.94 0 0 1-.313.706 1.05 1.05 0 0 1-.748.291m5.758 8.143q-1.076 0-1.861-.457a3.1 3.1 0 0 1-1.205-1.283q-.424-.826-.424-1.916 0-1.098.424-1.92a3.1 3.1 0 0 1 1.205-1.284q.785-.46 1.861-.461 1.075 0 1.855.461a3.1 3.1 0 0 1 1.21 1.284q.425.822.425 1.92 0 1.09-.425 1.916a3.1 3.1 0 0 1-1.21 1.283q-.78.457-1.855.457m.009-1.523q.489 0 .817-.277.327-.282.494-.766.171-.484.171-1.104 0-.618-.171-1.103a1.7 1.7 0 0 0-.494-.766q-.328-.282-.817-.282-.494 0-.831.282a1.7 1.7 0 0 0-.503.766 3.4 3.4 0 0 0-.167 1.103q0 .62.167 1.104.17.484.503.766.337.277.831.277m6.726-2.714V601h-1.967v-7.091h1.875v1.251h.083q.236-.618.789-.979.554-.364 1.344-.364.738 0 1.288.323t.854.923q.304.596.304 1.422V601h-1.966v-4.164q.005-.651-.333-1.016-.337-.369-.928-.369-.396 0-.701.171-.3.171-.471.498a1.7 1.7 0 0 0-.171.781m8.087 0V601h-1.967v-7.091h1.875v1.251h.083q.236-.618.789-.979.553-.364 1.344-.364.738 0 1.288.323a2.2 2.2 0 0 1 .854.923q.304.596.304 1.422V601h-1.966v-4.164q.005-.651-.333-1.016-.337-.369-.928-.369-.396 0-.701.171-.3.171-.471.498a1.7 1.7 0 0 0-.171.781m8.142 4.233q-.678 0-1.209-.236a1.94 1.94 0 0 1-.84-.706q-.305-.471-.305-1.172 0-.591.217-.993.216-.402.591-.646.374-.245.849-.37.48-.124 1.007-.175.618-.064.997-.12.378-.06.549-.176a.38.38 0 0 0 .171-.341v-.028q0-.438-.277-.678-.273-.24-.776-.241-.53 0-.844.236-.314.231-.416.582l-1.819-.148q.138-.646.545-1.117.406-.475 1.048-.73.646-.258 1.496-.258.591 0 1.131.138.544.14.964.43.426.29.67.747.245.453.245 1.085V601h-1.866v-.983h-.055a2 2 0 0 1-.457.586 2.1 2.1 0 0 1-.688.392 2.8 2.8 0 0 1-.928.139m.563-1.357q.434 0 .767-.171.332-.175.521-.471.19-.295.19-.669v-.753q-.092.06-.254.111-.157.046-.356.088-.198.036-.397.069l-.36.051a2.4 2.4 0 0 0-.604.161.96.96 0 0 0-.402.3.73.73 0 0 0-.143.462q0 .402.291.614.296.207.747.208m4.956 1.223v-7.091h1.967V601zm.988-8.005q-.438 0-.752-.291a.94.94 0 0 1-.31-.706q0-.406.31-.697.314-.296.752-.296.44 0 .748.296a.92.92 0 0 1 .314.697.94.94 0 0 1-.314.706 1.05 1.05 0 0 1-.748.291M558.62 601v-7.091h1.907v1.237h.074q.193-.66.651-.997a1.7 1.7 0 0 1 1.052-.341q.148 0 .319.018t.3.051v1.745a2.5 2.5 0 0 0-.383-.074 3 3 0 0 0-.448-.032q-.434 0-.776.189a1.4 1.4 0 0 0-.535.517 1.5 1.5 0 0 0-.194.766V601zm8.221.138q-1.094 0-1.883-.443a3.03 3.03 0 0 1-1.21-1.265q-.425-.82-.425-1.943 0-1.095.425-1.921.425-.825 1.196-1.288.775-.46 1.819-.461.701 0 1.306.226.609.222 1.062.669.457.448.711 1.127.254.673.254 1.579v.54h-5.988v-1.219h4.136q0-.425-.184-.752a1.3 1.3 0 0 0-.513-.513 1.46 1.46 0 0 0-.752-.189q-.448 0-.794.208a1.46 1.46 0 0 0-.536.549 1.56 1.56 0 0 0-.198.762v1.158q0 .526.194.91.198.383.558.591t.854.207q.329 0 .6-.092.273-.092.467-.277a1.2 1.2 0 0 0 .295-.452l1.819.12a2.5 2.5 0 0 1-.568 1.145 2.86 2.86 0 0 1-1.098.757q-.67.267-1.547.267"/><rect width="213" height="69" x="661" y="238" stroke="#00653e" stroke-width="4" rx="34.5"/><path fill="#00653e" d="M736.192 271.5v-.997q0-.425.166-.868.167-.443.438-.836.273-.392.591-.655l.868.512a4.6 4.6 0 0 0-.425.85 2.9 2.9 0 0 0-.161.988v1.006zm2.331 0v-.997q0-.425.166-.868t.439-.836a3.2 3.2 0 0 1 .591-.655l.868.512a4.5 4.5 0 0 0-.425.85 2.9 2.9 0 0 0-.162.988v1.006zm3.259 6.5v-9.455h3.73q1.075 0 1.833.411.757.407 1.154 1.131.402.72.402 1.662t-.406 1.662q-.407.72-1.178 1.122-.766.402-1.855.402h-2.378v-1.602h2.054q.577 0 .951-.199.379-.202.564-.558.189-.36.189-.827 0-.471-.189-.821a1.27 1.27 0 0 0-.564-.55q-.378-.198-.96-.198h-1.348V278zm12.927-3.019v-4.072h1.967V278h-1.888v-1.288h-.074q-.24.623-.799 1.002-.554.378-1.352.378-.711 0-1.251-.323a2.2 2.2 0 0 1-.845-.919q-.3-.595-.305-1.426v-4.515h1.967v4.164q.004.629.337.993.332.364.891.364.355 0 .665-.161.309-.166.498-.49.194-.322.189-.798m3.54 3.019v-7.091h1.907v1.237h.074q.194-.66.651-.997a1.7 1.7 0 0 1 1.052-.341q.148 0 .319.018t.3.051v1.745a2.5 2.5 0 0 0-.383-.074 3 3 0 0 0-.448-.032q-.434 0-.776.189a1.4 1.4 0 0 0-.535.517q-.194.333-.194.766V278zm5.319 2.659v-9.75h1.939v1.191h.088q.13-.286.374-.582.25-.3.646-.498.402-.204.998-.203.776 0 1.431.406.655.401 1.048 1.214.392.808.392 2.027 0 1.187-.383 2.003-.379.813-1.034 1.233a2.66 2.66 0 0 1-1.459.415q-.572 0-.974-.189a2 2 0 0 1-.651-.475 2.4 2.4 0 0 1-.388-.587h-.06v3.795zm1.926-6.204q0 .632.175 1.103.175.47.508.734.332.258.808.258.48 0 .812-.263.333-.267.503-.738a3.2 3.2 0 0 0 .176-1.094q0-.615-.171-1.081a1.6 1.6 0 0 0-.503-.729q-.333-.264-.817-.263-.48 0-.813.254a1.6 1.6 0 0 0-.503.72 3.1 3.1 0 0 0-.175 1.099m9.505 3.683q-1.075 0-1.861-.457a3.1 3.1 0 0 1-1.204-1.283q-.426-.826-.425-1.916 0-1.098.425-1.92a3.1 3.1 0 0 1 1.204-1.284q.786-.46 1.861-.461 1.076 0 1.856.461.785.457 1.209 1.284.425.822.425 1.92 0 1.09-.425 1.916a3.1 3.1 0 0 1-1.209 1.283q-.78.457-1.856.457m.009-1.523q.49 0 .817-.277.328-.282.494-.766.171-.485.171-1.104 0-.618-.171-1.103a1.7 1.7 0 0 0-.494-.766q-.327-.282-.817-.282-.494 0-.831.282a1.73 1.73 0 0 0-.503.766 3.4 3.4 0 0 0-.166 1.103q0 .62.166 1.104.171.484.503.766.337.277.831.277m10.66-3.684-1.801.111a.94.94 0 0 0-.198-.416 1.06 1.06 0 0 0-.402-.3 1.4 1.4 0 0 0-.586-.115q-.457 0-.771.194-.314.189-.314.508 0 .254.203.429.203.176.697.282l1.283.258q1.035.213 1.542.683t.508 1.238q0 .696-.411 1.223-.406.526-1.117.822-.706.29-1.63.29-1.407 0-2.243-.586a2.28 2.28 0 0 1-.974-1.606l1.934-.102q.088.43.425.656.336.22.863.221.518 0 .831-.198.318-.204.323-.522a.54.54 0 0 0-.226-.439q-.222-.175-.683-.267l-1.228-.245q-1.039-.207-1.547-.72-.503-.512-.503-1.307 0-.682.369-1.177.375-.494 1.048-.761.68-.268 1.588-.268 1.344 0 2.115.568.775.567.905 1.546m4.631 5.207q-1.094 0-1.883-.443a3.03 3.03 0 0 1-1.21-1.265q-.425-.82-.425-1.943 0-1.095.425-1.921t1.196-1.288q.775-.46 1.819-.461.701 0 1.306.226.609.222 1.062.669.457.448.711 1.127.254.673.254 1.579v.54h-5.988v-1.219h4.136q0-.425-.184-.752a1.3 1.3 0 0 0-.513-.513 1.46 1.46 0 0 0-.752-.189q-.448 0-.794.208a1.46 1.46 0 0 0-.536.549 1.56 1.56 0 0 0-.198.762v1.158q0 .526.194.91.198.382.558.591.36.207.854.207.328 0 .601-.092t.466-.277a1.2 1.2 0 0 0 .295-.452l1.819.12a2.5 2.5 0 0 1-.568 1.145 2.86 2.86 0 0 1-1.098.757q-.67.267-1.547.267m6.186-9.593v.998q0 .424-.166.868a3.7 3.7 0 0 1-1.03 1.491l-.867-.513q.23-.364.406-.808.18-.442.18-1.029v-1.007zm2.322 0v.998q0 .424-.166.868a3.7 3.7 0 0 1-.434.83 3.4 3.4 0 0 1-.6.661l-.868-.513q.236-.364.411-.808.18-.442.18-1.029v-1.007z"/><rect width="213" height="69" x="661" y="367" stroke="#00653e" stroke-width="4" rx="34.5"/><path fill="#00653e" d="M723.369 400.5v-.997q0-.425.167-.868.166-.443.438-.836.273-.392.591-.655l.868.512a4.6 4.6 0 0 0-.425.85 2.9 2.9 0 0 0-.161.988v1.006zm2.332 0v-.997q0-.425.166-.868.167-.443.438-.836.273-.392.591-.655l.868.512a4.5 4.5 0 0 0-.424.85 2.9 2.9 0 0 0-.162.988v1.006zm3.259 6.5v-9.455h3.73q1.07 0 1.828.384.762.379 1.159 1.075.402.693.402 1.63 0 .942-.407 1.62a2.63 2.63 0 0 1-1.177 1.034q-.766.36-1.856.36h-2.497v-1.606h2.174q.573 0 .951-.157.378-.158.563-.471.19-.313.19-.78 0-.471-.19-.794a1.16 1.16 0 0 0-.568-.49q-.378-.17-.955-.17h-1.348V407zm5.106-4.303 2.35 4.303h-2.207l-2.299-4.303zm6.506 4.441q-1.095 0-1.884-.443a3.04 3.04 0 0 1-1.21-1.265q-.424-.82-.424-1.943 0-1.095.424-1.921.426-.826 1.196-1.288.775-.46 1.819-.461.702 0 1.306.226.61.222 1.062.669.457.448.711 1.127.254.673.254 1.579v.54h-5.987v-1.219h4.136q0-.425-.185-.752a1.3 1.3 0 0 0-.512-.513 1.47 1.47 0 0 0-.753-.189 1.5 1.5 0 0 0-.794.208 1.45 1.45 0 0 0-.535.549 1.56 1.56 0 0 0-.199.762v1.158q0 .526.194.91.2.382.559.591.36.207.854.207.327 0 .6-.092t.466-.277.296-.452l1.819.12a2.5 2.5 0 0 1-.568 1.145 2.86 2.86 0 0 1-1.099.757q-.67.267-1.546.267m6.504-9.593V407h-1.966v-9.455zm3.598 9.589q-.68 0-1.21-.236a1.94 1.94 0 0 1-.84-.706q-.305-.471-.305-1.172 0-.591.217-.993t.591-.646.849-.37a6.5 6.5 0 0 1 1.007-.175q.619-.065.997-.12.378-.06.549-.176a.38.38 0 0 0 .171-.341v-.028q0-.438-.277-.678-.272-.24-.775-.241-.531 0-.845.236-.314.231-.416.582l-1.819-.148q.139-.646.545-1.117.406-.475 1.048-.73.647-.258 1.496-.258.591 0 1.131.138.545.14.965.43.424.29.669.747.245.453.245 1.085V407h-1.865v-.983h-.056a2 2 0 0 1-.457.586 2.1 2.1 0 0 1-.688.392 2.8 2.8 0 0 1-.927.139m.563-1.357q.433 0 .766-.171.333-.175.522-.471t.189-.669v-.753q-.092.06-.254.111-.157.046-.355.088l-.397.069-.36.051a2.4 2.4 0 0 0-.605.161.97.97 0 0 0-.402.3.73.73 0 0 0-.143.462q0 .401.291.614.295.208.748.208m8.727-5.868v1.477h-4.27v-1.477zm-3.301-1.699h1.967v6.611q0 .272.083.425a.46.46 0 0 0 .231.207q.151.06.351.06.138 0 .277-.023l.212-.041.309 1.463a5 5 0 0 1-.415.106q-.268.066-.651.079-.71.027-1.246-.189a1.75 1.75 0 0 1-.827-.674q-.295-.458-.291-1.154zm7.738 8.928q-1.095 0-1.884-.443a3.03 3.03 0 0 1-1.209-1.265q-.425-.82-.425-1.943 0-1.095.425-1.921.424-.826 1.195-1.288.776-.46 1.819-.461a3.7 3.7 0 0 1 1.307.226q.61.222 1.061.669.457.448.711 1.127.255.673.254 1.579v.54h-5.987v-1.219h4.136q0-.425-.185-.752a1.3 1.3 0 0 0-.512-.513 1.47 1.47 0 0 0-.753-.189 1.5 1.5 0 0 0-.794.208 1.45 1.45 0 0 0-.535.549 1.56 1.56 0 0 0-.199.762v1.158q0 .526.194.91.2.382.559.591.36.207.854.207.327 0 .6-.092t.466-.277q.195-.185.296-.452l1.819.12a2.5 2.5 0 0 1-.568 1.145 2.86 2.86 0 0 1-1.099.757q-.67.267-1.546.267m7.151-.023a2.7 2.7 0 0 1-1.464-.415q-.651-.42-1.034-1.233-.379-.816-.379-2.003 0-1.219.393-2.027.392-.812 1.043-1.214a2.67 2.67 0 0 1 1.436-.406q.596 0 .992.203.402.198.647.498.249.296.378.582h.06v-3.555h1.962V407h-1.939v-1.136h-.083a2.5 2.5 0 0 1-.392.587q-.249.285-.651.475-.397.189-.969.189m.623-1.565q.476 0 .803-.258.333-.263.508-.734.18-.471.18-1.103 0-.633-.176-1.099a1.57 1.57 0 0 0-.507-.72 1.3 1.3 0 0 0-.808-.254q-.485 0-.817.263-.333.262-.504.729t-.17 1.081q0 .618.17 1.094.175.471.504.738.332.263.817.263m6.995-2.649V407h-1.967v-7.091h1.875v1.251h.083q.235-.618.789-.979.554-.364 1.343-.364.74 0 1.288.323.55.323.855.923.304.595.304 1.422V407h-1.966v-4.164q.005-.651-.333-1.016-.337-.369-.928-.369-.396 0-.701.171-.3.171-.471.498a1.7 1.7 0 0 0-.171.781m9.352 4.237q-1.095 0-1.884-.443a3.03 3.03 0 0 1-1.209-1.265q-.425-.82-.425-1.943 0-1.095.425-1.921.424-.826 1.195-1.288.776-.46 1.819-.461.702 0 1.307.226.61.222 1.061.669.457.448.711 1.127.255.673.254 1.579v.54h-5.987v-1.219h4.136q0-.425-.185-.752a1.3 1.3 0 0 0-.512-.513 1.46 1.46 0 0 0-.752-.189q-.449 0-.794.208a1.45 1.45 0 0 0-.536.549 1.57 1.57 0 0 0-.199.762v1.158q0 .526.194.91.2.382.559.591.36.207.854.207.328 0 .6-.092.273-.092.466-.277.194-.185.296-.452l1.819.12a2.5 2.5 0 0 1-.568 1.145 2.85 2.85 0 0 1-1.099.757q-.67.267-1.546.267m10.438-5.207-1.801.111a.94.94 0 0 0-.198-.416 1.06 1.06 0 0 0-.402-.3 1.4 1.4 0 0 0-.586-.115q-.457 0-.771.194-.314.189-.314.508 0 .254.203.429.203.176.697.282l1.283.258q1.035.213 1.542.683t.508 1.238q0 .696-.411 1.223-.406.526-1.117.822-.706.29-1.63.29-1.407 0-2.243-.586a2.28 2.28 0 0 1-.974-1.606l1.934-.102q.088.43.425.656.336.22.863.221.517 0 .831-.198.318-.204.323-.522a.54.54 0 0 0-.226-.439q-.221-.175-.683-.267l-1.228-.245q-1.039-.207-1.547-.72-.503-.512-.503-1.307 0-.682.369-1.177.375-.494 1.048-.761.68-.268 1.588-.268 1.344 0 2.115.568.775.567.905 1.546m7.299 0-1.8.111a.94.94 0 0 0-.199-.416 1.05 1.05 0 0 0-.401-.3 1.4 1.4 0 0 0-.586-.115q-.457 0-.771.194-.315.189-.314.508 0 .254.203.429.203.176.697.282l1.283.258q1.035.213 1.542.683t.508 1.238q0 .696-.411 1.223-.406.526-1.117.822-.706.29-1.63.29-1.407 0-2.243-.586a2.28 2.28 0 0 1-.974-1.606l1.934-.102q.087.43.425.656.336.22.863.221.517 0 .831-.198.318-.204.323-.522a.54.54 0 0 0-.226-.439q-.222-.175-.683-.267l-1.228-.245q-1.039-.207-1.547-.72-.503-.512-.503-1.307 0-.682.369-1.177.374-.494 1.048-.761.68-.268 1.588-.268 1.344 0 2.115.568.775.567.904 1.546m3.048-4.386v.998q0 .424-.166.868a3.7 3.7 0 0 1-1.029 1.491l-.868-.513q.23-.364.406-.808.18-.442.18-1.029v-1.007zm2.322 0v.998q0 .424-.166.868a3.6 3.6 0 0 1-.434.83 3.3 3.3 0 0 1-.6.661l-.868-.513q.236-.364.411-.808.18-.442.18-1.029v-1.007z"/><rect width="213" height="69" x="661" y="496" stroke="#00653e" stroke-width="4" rx="34.5"/><path fill="#00653e" d="M730.142 529.5v-.997q0-.425.167-.868.165-.444.438-.836t.591-.655l.868.512a4.6 4.6 0 0 0-.425.85 2.9 2.9 0 0 0-.161.988v1.006zm2.332 0v-.997q0-.425.166-.868.166-.444.438-.836.273-.392.591-.655l.868.512a4.6 4.6 0 0 0-.425.85 2.9 2.9 0 0 0-.161.988v1.006zm3.632 6.5h-2.142l3.263-9.455h2.576l3.26 9.455h-2.142l-2.369-7.294h-.073zm-.134-3.716h5.059v1.56h-5.059zm12.739.697v-4.072h1.967V536h-1.889v-1.288h-.073q-.24.622-.799 1.002-.553.378-1.353.378-.711 0-1.251-.323a2.2 2.2 0 0 1-.845-.919q-.3-.595-.304-1.426v-4.515h1.966v4.164q.005.628.337.993.333.364.891.364.356 0 .665-.161.309-.166.499-.49.194-.322.189-.798m7.311-4.072v1.477h-4.27v-1.477zm-3.3-1.699h1.966v6.611q0 .273.083.425a.46.46 0 0 0 .231.207q.153.06.351.06.138 0 .277-.023l.212-.041.31 1.463a6 6 0 0 1-.416.106q-.267.066-.651.079-.71.027-1.246-.189a1.75 1.75 0 0 1-.827-.674q-.296-.458-.29-1.154zm7.709 8.928q-1.075 0-1.86-.457a3.1 3.1 0 0 1-1.205-1.283q-.425-.826-.425-1.916 0-1.098.425-1.92a3.1 3.1 0 0 1 1.205-1.284q.785-.46 1.86-.461 1.076 0 1.856.461.784.457 1.209 1.284.426.822.425 1.92 0 1.09-.425 1.916a3.1 3.1 0 0 1-1.209 1.283q-.78.457-1.856.457m.009-1.523q.49 0 .817-.277.329-.282.494-.766.171-.484.171-1.104 0-.618-.171-1.103a1.7 1.7 0 0 0-.494-.766q-.327-.282-.817-.282-.493 0-.831.282a1.73 1.73 0 0 0-.503.766 3.4 3.4 0 0 0-.166 1.103q0 .62.166 1.104.171.484.503.766.338.277.831.277m6.726-2.714V536H765.2v-7.091h1.874v1.251h.083q.235-.618.79-.979.554-.364 1.343-.364.738 0 1.288.323t.854.923q.305.596.305 1.422V536h-1.967v-4.164q.004-.651-.332-1.016-.337-.369-.928-.369a1.4 1.4 0 0 0-.702.171q-.3.171-.471.498a1.74 1.74 0 0 0-.171.781m9.325 4.237q-1.077 0-1.861-.457a3.1 3.1 0 0 1-1.205-1.283q-.424-.826-.424-1.916 0-1.098.424-1.92a3.1 3.1 0 0 1 1.205-1.284q.784-.46 1.861-.461 1.075 0 1.855.461a3.1 3.1 0 0 1 1.21 1.284q.425.822.425 1.92 0 1.09-.425 1.916a3.1 3.1 0 0 1-1.21 1.283q-.78.457-1.855.457m.009-1.523q.489 0 .817-.277.327-.282.494-.766.171-.484.171-1.104 0-.618-.171-1.103a1.7 1.7 0 0 0-.494-.766q-.328-.282-.817-.282-.494 0-.831.282a1.7 1.7 0 0 0-.503.766 3.4 3.4 0 0 0-.167 1.103q0 .62.167 1.104.17.484.503.766.337.277.831.277m4.759 1.385v-7.091h1.875v1.251h.083q.222-.623.738-.983.518-.36 1.238-.36.73 0 1.241.364.513.361.684.979h.074q.216-.61.784-.974.573-.369 1.353-.369.993 0 1.611.632.624.628.623 1.782V536h-1.962v-4.381q0-.59-.314-.886a1.1 1.1 0 0 0-.784-.296q-.536 0-.836.342-.3.336-.3.891V536h-1.907v-4.423q0-.52-.3-.831-.295-.309-.78-.309-.327 0-.591.166-.258.162-.411.457a1.46 1.46 0 0 0-.152.684V536zm12.818 2.659q-.373 0-.702-.06a2.6 2.6 0 0 1-.535-.143l.443-1.468q.347.106.623.115a.8.8 0 0 0 .485-.129q.207-.138.337-.471l.115-.3-2.543-7.294h2.068l1.468 5.207h.074l1.482-5.207h2.082l-2.756 7.857a3.3 3.3 0 0 1-.54.997q-.338.43-.854.661-.518.235-1.247.235m8.457-12.114v.998q0 .424-.166.868a3.63 3.63 0 0 1-1.029 1.491l-.868-.513q.23-.364.406-.808.18-.442.18-1.029v-1.007zm2.323 0v.998q0 .424-.167.868a3.6 3.6 0 0 1-.434.83 3.3 3.3 0 0 1-.6.661l-.868-.513q.236-.364.411-.808.18-.442.18-1.029v-1.007z"/><rect width="213" height="69" x="661" y="625" stroke="#00653e" stroke-width="4" rx="34.5"/><path fill="#00653e" d="M721.821 658.5v-.997q0-.425.166-.868.166-.444.438-.836.273-.392.591-.655l.868.512a4.6 4.6 0 0 0-.425.85 2.9 2.9 0 0 0-.161.988v1.006zm2.331 0v-.997q0-.425.166-.868.166-.444.439-.836a3.2 3.2 0 0 1 .591-.655l.867.512a4.6 4.6 0 0 0-.424.85 2.9 2.9 0 0 0-.162.988v1.006zm11.601.355h-2.022a2 2 0 0 0-.226-.697 1.8 1.8 0 0 0-.439-.526 1.9 1.9 0 0 0-.618-.332 2.4 2.4 0 0 0-.753-.116q-.733 0-1.279.365-.544.36-.844 1.053-.3.687-.3 1.671 0 1.01.3 1.699.304.687.849 1.038t1.26.351q.402 0 .744-.106a2 2 0 0 0 .614-.309 1.8 1.8 0 0 0 .443-.504q.18-.294.249-.674l2.022.01a3.7 3.7 0 0 1-.392 1.255 3.8 3.8 0 0 1-.836 1.076 3.9 3.9 0 0 1-1.246.748 4.6 4.6 0 0 1-1.63.272q-1.264 0-2.262-.572-.993-.573-1.57-1.657-.572-1.086-.572-2.627 0-1.546.582-2.632.581-1.085 1.578-1.652.997-.573 2.244-.573.822 0 1.523.231.706.231 1.252.674.544.438.886 1.076.346.637.443 1.458m4.6 6.283q-1.076 0-1.86-.457a3.1 3.1 0 0 1-1.205-1.283q-.425-.826-.425-1.916 0-1.098.425-1.92a3.1 3.1 0 0 1 1.205-1.284q.785-.46 1.86-.461 1.076 0 1.856.461.785.457 1.21 1.284.424.822.424 1.92 0 1.09-.424 1.916a3.1 3.1 0 0 1-1.21 1.283q-.78.457-1.856.457m.01-1.523q.489 0 .817-.277.327-.282.494-.766.171-.484.171-1.104 0-.618-.171-1.103a1.7 1.7 0 0 0-.494-.766q-.328-.282-.817-.282-.495 0-.831.282-.333.281-.504.766-.166.485-.166 1.103 0 .62.166 1.104.171.484.504.766.336.277.831.277m4.759 1.385v-7.091h1.874v1.251h.084q.221-.623.738-.983t1.237-.36q.73 0 1.242.364.513.361.684.979h.073q.218-.61.785-.974.573-.369 1.353-.369.993 0 1.611.632.623.628.623 1.782V665h-1.962v-4.381q0-.59-.314-.886a1.1 1.1 0 0 0-.785-.296q-.535 0-.835.342-.3.336-.3.891V665h-1.907v-4.423q0-.52-.3-.831-.295-.309-.78-.309-.329 0-.591.166-.258.162-.411.457a1.46 1.46 0 0 0-.152.684V665zm11.858 2.659v-9.75h1.939v1.191h.087q.13-.287.374-.582.25-.3.647-.498.401-.203.997-.203.776 0 1.431.406.655.402 1.048 1.214.392.808.392 2.027 0 1.187-.383 2.003-.378.813-1.034 1.233-.65.415-1.459.415-.572 0-.974-.189a2 2 0 0 1-.651-.475 2.5 2.5 0 0 1-.388-.587h-.06v3.795zm1.925-6.204q0 .632.175 1.103.175.47.508.734.333.258.808.258.48 0 .812-.263.333-.267.504-.738.175-.476.175-1.094 0-.615-.171-1.081a1.6 1.6 0 0 0-.503-.729q-.333-.264-.817-.263-.48 0-.813.254a1.6 1.6 0 0 0-.503.72 3.1 3.1 0 0 0-.175 1.099m9.533 3.683q-1.095 0-1.884-.443a3.03 3.03 0 0 1-1.209-1.265q-.425-.82-.425-1.943 0-1.095.425-1.921.424-.825 1.195-1.288.776-.46 1.819-.461.702 0 1.307.226.61.222 1.061.669.457.448.711 1.127.254.673.254 1.579v.54h-5.987v-1.219h4.136q0-.425-.185-.752a1.3 1.3 0 0 0-.512-.513 1.46 1.46 0 0 0-.752-.189q-.449 0-.794.208a1.45 1.45 0 0 0-.536.549 1.56 1.56 0 0 0-.198.762v1.158q0 .526.193.91.2.383.559.591t.854.207q.328 0 .6-.092.273-.092.466-.277.194-.185.296-.452l1.819.12a2.5 2.5 0 0 1-.568 1.145 2.85 2.85 0 0 1-1.099.757q-.67.267-1.546.267m8.309-7.229v1.477h-4.27v-1.477zm-3.3-1.699h1.966v6.611q0 .273.083.425a.46.46 0 0 0 .231.207q.153.06.351.06.138 0 .277-.023l.212-.041.31 1.463a6 6 0 0 1-.416.106q-.267.066-.651.079-.71.027-1.246-.189a1.75 1.75 0 0 1-.827-.674q-.295-.458-.29-1.154zm7.737 8.928q-1.094 0-1.884-.443a3.03 3.03 0 0 1-1.209-1.265q-.425-.82-.425-1.943 0-1.095.425-1.921.424-.825 1.195-1.288.776-.46 1.819-.461.702 0 1.307.226.609.222 1.062.669.456.448.711 1.127.253.673.253 1.579v.54h-5.987v-1.219h4.136q0-.425-.184-.752a1.3 1.3 0 0 0-.513-.513 1.46 1.46 0 0 0-.752-.189q-.449 0-.794.208a1.45 1.45 0 0 0-.536.549 1.56 1.56 0 0 0-.198.762v1.158q0 .526.193.91.2.383.559.591t.854.207q.328 0 .6-.092.273-.092.467-.277.193-.185.295-.452l1.819.12a2.5 2.5 0 0 1-.568 1.145 2.85 2.85 0 0 1-1.099.757q-.669.267-1.546.267m6.504-4.237V665h-1.966v-7.091h1.874v1.251h.083q.235-.618.79-.979.554-.364 1.343-.364.739 0 1.288.323.55.323.854.923.305.596.305 1.422V665h-1.967v-4.164q.004-.651-.332-1.016-.337-.369-.928-.369a1.4 1.4 0 0 0-.702.171q-.3.171-.471.498a1.74 1.74 0 0 0-.171.781m9.325 4.237q-1.09 0-1.875-.461a3.1 3.1 0 0 1-1.2-1.293q-.415-.827-.415-1.902 0-1.089.42-1.911.424-.826 1.205-1.288.78-.466 1.855-.466.929 0 1.625.337.697.337 1.104.946.406.609.447 1.431h-1.855q-.079-.53-.416-.854-.332-.327-.872-.328-.457 0-.799.25-.337.244-.526.715-.19.47-.19 1.141 0 .678.185 1.154.189.475.531.724.342.25.799.25.337 0 .604-.139.273-.138.448-.401.18-.269.236-.642h1.855a2.9 2.9 0 0 1-.443 1.431 2.7 2.7 0 0 1-1.085.96q-.692.346-1.638.346m7.657 0q-1.094 0-1.883-.443a3.03 3.03 0 0 1-1.21-1.265q-.425-.82-.425-1.943 0-1.095.425-1.921.425-.825 1.196-1.288.775-.46 1.819-.461.701 0 1.306.226.609.222 1.062.669.457.448.711 1.127.254.673.254 1.579v.54h-5.988v-1.219h4.137q0-.425-.185-.752a1.3 1.3 0 0 0-.513-.513 1.46 1.46 0 0 0-.752-.189q-.448 0-.794.208a1.46 1.46 0 0 0-.536.549 1.56 1.56 0 0 0-.198.762v1.158q0 .526.194.91.198.383.558.591t.854.207q.328 0 .601-.092t.466-.277a1.2 1.2 0 0 0 .295-.452l1.819.12a2.5 2.5 0 0 1-.568 1.145 2.86 2.86 0 0 1-1.098.757q-.67.267-1.547.267m6.186-9.593v.998q0 .424-.166.868a3.7 3.7 0 0 1-1.029 1.491l-.868-.513q.23-.364.406-.808.18-.442.18-1.029v-1.007zm2.322 0v.998q0 .424-.166.868a3.7 3.7 0 0 1-.434.83 3.3 3.3 0 0 1-.6.661l-.868-.513q.236-.364.411-.808.18-.442.18-1.029v-1.007z"/><rect width="213" height="69" x="661" y="754" stroke="#00653e" stroke-width="4" rx="34.5"/><path fill="#00653e" d="M735.093 787.5v-.997q0-.425.167-.868.166-.444.438-.836.273-.392.591-.655l.868.512a4.6 4.6 0 0 0-.425.85 2.9 2.9 0 0 0-.161.988v1.006zm2.332 0v-.997q0-.425.166-.868.166-.444.439-.836.272-.392.59-.655l.868.512a4.5 4.5 0 0 0-.424.85 2.9 2.9 0 0 0-.162.988v1.006zm3.259 6.5v-9.455h3.73q1.072 0 1.828.384.762.378 1.159 1.075.402.693.402 1.63 0 .942-.407 1.62-.406.675-1.177 1.034-.766.36-1.856.36h-2.497v-1.606h2.174q.573 0 .951-.157a1.13 1.13 0 0 0 .563-.471q.19-.313.19-.78 0-.471-.19-.794a1.16 1.16 0 0 0-.567-.49q-.379-.17-.956-.17h-1.348V794zm5.106-4.303 2.35 4.303h-2.207l-2.299-4.303zm6.506 4.441q-1.095 0-1.884-.443a3.03 3.03 0 0 1-1.209-1.265q-.426-.82-.425-1.943 0-1.095.425-1.921.424-.826 1.195-1.288.776-.46 1.819-.461a3.7 3.7 0 0 1 1.307.226q.61.222 1.061.669.457.448.711 1.127.255.673.254 1.579v.54h-5.987v-1.219h4.136q0-.425-.185-.752a1.3 1.3 0 0 0-.512-.513 1.46 1.46 0 0 0-.753-.189 1.5 1.5 0 0 0-.794.208 1.45 1.45 0 0 0-.535.549 1.56 1.56 0 0 0-.199.762v1.158q0 .526.194.91.2.383.559.591t.854.207q.328 0 .6-.092.273-.092.466-.277.195-.185.296-.452l1.819.12a2.5 2.5 0 0 1-.568 1.145 2.86 2.86 0 0 1-1.099.757q-.67.267-1.546.267m5.886-.138-1.93-7.091h1.99l1.098 4.764h.065l1.145-4.764h1.953l1.163 4.737h.06l1.08-4.737h1.985L764.866 794h-2.082l-1.218-4.46h-.088l-1.219 4.46zm11.68.134q-.678 0-1.209-.236a1.94 1.94 0 0 1-.84-.706q-.305-.471-.305-1.172 0-.591.217-.993.218-.402.591-.646.374-.245.849-.37.48-.124 1.007-.175.619-.064.997-.12.378-.06.549-.176a.38.38 0 0 0 .171-.341v-.028q0-.438-.277-.678-.272-.24-.775-.241-.531 0-.845.236-.315.231-.416.582l-1.819-.148q.139-.646.545-1.117.406-.475 1.048-.73.647-.258 1.496-.258.591 0 1.131.138.545.14.965.43.425.29.669.747.245.453.245 1.085V794h-1.865v-.983h-.056a2 2 0 0 1-.457.586 2.1 2.1 0 0 1-.688.392 2.8 2.8 0 0 1-.928.139m.564-1.357q.433 0 .766-.171.333-.175.522-.471.189-.295.189-.669v-.753q-.092.06-.254.111-.157.046-.355.088l-.397.069-.361.051a2.4 2.4 0 0 0-.604.161.97.97 0 0 0-.402.3.73.73 0 0 0-.143.462q0 .402.291.614.295.207.748.208m4.955 1.223v-7.091h1.907v1.237h.074q.193-.66.651-.997a1.7 1.7 0 0 1 1.052-.341q.148 0 .319.018t.3.051v1.745a2.5 2.5 0 0 0-.383-.074 3 3 0 0 0-.448-.032q-.434 0-.775.189a1.4 1.4 0 0 0-.536.517 1.5 1.5 0 0 0-.194.766V794zm7.603.115a2.7 2.7 0 0 1-1.464-.415q-.65-.42-1.034-1.233-.378-.816-.378-2.003 0-1.219.392-2.027.393-.812 1.043-1.214a2.67 2.67 0 0 1 1.436-.406q.595 0 .993.203.401.198.646.498.249.295.378.582h.06v-3.555h1.962V794h-1.938v-1.136h-.084a2.5 2.5 0 0 1-.392.587q-.249.286-.651.475-.397.189-.969.189m.623-1.565q.476 0 .803-.258.333-.264.508-.734.18-.471.18-1.103 0-.633-.175-1.099a1.6 1.6 0 0 0-.508-.72 1.3 1.3 0 0 0-.808-.254q-.485 0-.817.263-.333.263-.503.729a3.1 3.1 0 0 0-.171 1.081q0 .618.171 1.094.175.471.503.738.332.264.817.263m10.928-3.619-1.8.111a.94.94 0 0 0-.199-.416 1.05 1.05 0 0 0-.401-.3 1.4 1.4 0 0 0-.587-.115q-.456 0-.771.194-.313.189-.313.508 0 .254.203.429.202.175.697.282l1.283.258q1.033.212 1.542.683.508.471.508 1.238 0 .696-.411 1.223-.406.527-1.117.822-.706.29-1.63.29-1.408 0-2.243-.586a2.29 2.29 0 0 1-.975-1.606l1.935-.102q.088.43.424.656.338.22.864.221.516 0 .831-.198.318-.204.323-.522a.55.55 0 0 0-.226-.439q-.222-.175-.684-.267l-1.228-.245q-1.038-.207-1.546-.72-.504-.513-.503-1.307 0-.682.369-1.177.374-.494 1.048-.761.678-.268 1.588-.268 1.343 0 2.114.568.776.568.905 1.546m3.048-4.386v.998q0 .424-.166.868a3.7 3.7 0 0 1-1.029 1.491l-.868-.513q.23-.364.406-.808.18-.443.18-1.029v-1.007zm2.322 0v.998q0 .424-.166.868a3.7 3.7 0 0 1-.434.83 3.3 3.3 0 0 1-.6.661l-.868-.513q.236-.364.411-.808.18-.443.18-1.029v-1.007z"/><rect width="213" height="69" x="661" y="883" stroke="#00653e" stroke-width="4" rx="34.5"/><path fill="#00653e" d="M737.982 916.5v-.997q0-.425.166-.868.166-.444.438-.836.273-.392.591-.655l.868.512a4.5 4.5 0 0 0-.424.85 2.9 2.9 0 0 0-.162.988v1.006zm2.331 0v-.997q0-.425.166-.868.166-.444.439-.836a3.2 3.2 0 0 1 .591-.655l.868.512a4.5 4.5 0 0 0-.425.85 2.9 2.9 0 0 0-.162.988v1.006zm11.601.355h-2.022a2 2 0 0 0-.226-.697 1.8 1.8 0 0 0-.439-.526 1.9 1.9 0 0 0-.618-.332 2.4 2.4 0 0 0-.753-.116q-.734 0-1.278.365-.545.36-.845 1.053-.3.687-.3 1.671 0 1.01.3 1.699.304.687.849 1.038t1.26.351q.402 0 .744-.106a2 2 0 0 0 .614-.309 1.8 1.8 0 0 0 .443-.504q.18-.294.249-.674l2.022.01a3.772 3.772 0 0 1-1.228 2.331 3.9 3.9 0 0 1-1.246.748 4.6 4.6 0 0 1-1.63.272q-1.264 0-2.262-.572-.993-.573-1.57-1.657-.572-1.086-.572-2.627 0-1.546.582-2.632.581-1.085 1.579-1.652.996-.573 2.243-.573a4.9 4.9 0 0 1 1.524.231q.705.231 1.251.674.544.438.886 1.076.347.637.443 1.458m3.363 2.046V923h-1.966v-9.455h1.911v3.615h.083a2 2 0 0 1 .776-.983q.535-.36 1.343-.36.738 0 1.288.323.553.318.859.919.309.595.304 1.426V923h-1.966v-4.164q.005-.656-.333-1.02-.332-.365-.932-.365-.402 0-.711.171-.304.171-.48.498a1.7 1.7 0 0 0-.176.781m8.168 4.233q-.678 0-1.21-.236a1.95 1.95 0 0 1-.84-.706q-.304-.471-.304-1.172 0-.591.217-.993.216-.402.59-.646a2.9 2.9 0 0 1 .85-.37q.48-.124 1.006-.175.62-.064.997-.12.38-.06.55-.176a.38.38 0 0 0 .171-.341v-.028q0-.438-.277-.678-.273-.24-.776-.241-.53 0-.845.236a1.08 1.08 0 0 0-.415.582l-1.819-.148q.138-.646.545-1.117.406-.475 1.048-.73.645-.258 1.495-.258.591 0 1.131.138.546.14.965.43.424.29.67.747.244.453.244 1.085V923h-1.865v-.983h-.055a2 2 0 0 1-.457.586 2.1 2.1 0 0 1-.688.392 2.8 2.8 0 0 1-.928.139m.563-1.357q.435 0 .767-.171.332-.175.521-.471.189-.295.189-.669v-.753q-.092.06-.253.111-.158.046-.356.088-.198.036-.397.069l-.36.051a2.4 2.4 0 0 0-.605.161.97.97 0 0 0-.401.3.73.73 0 0 0-.143.462q0 .402.29.614.296.207.748.208m6.923-2.876V923h-1.967v-7.091h1.874v1.251h.083q.235-.618.79-.979.554-.364 1.343-.364.74 0 1.288.323.55.323.854.923.305.595.305 1.422V923h-1.967v-4.164q.005-.651-.332-1.016-.337-.369-.928-.369a1.4 1.4 0 0 0-.702.171q-.3.171-.471.498-.165.324-.17.781m9.315 6.906q-.957 0-1.639-.263-.68-.259-1.081-.707a2.2 2.2 0 0 1-.521-1.006l1.819-.245q.083.213.263.397t.475.296q.3.115.73.115.641 0 1.057-.314.42-.309.42-1.038v-1.298h-.083a1.88 1.88 0 0 1-1.053.988 2.6 2.6 0 0 1-.969.166 2.9 2.9 0 0 1-1.454-.369q-.651-.374-1.039-1.14-.383-.771-.383-1.948 0-1.205.392-2.013.393-.808 1.043-1.21a2.7 2.7 0 0 1 1.436-.401q.596 0 .997.203.402.198.647.498.25.295.383.582h.074v-1.191h1.952v7.16q0 .905-.443 1.514-.442.61-1.228.915-.78.309-1.795.309m.041-4.386q.476 0 .803-.235.333-.24.508-.684.18-.447.18-1.071 0-.622-.175-1.08a1.57 1.57 0 0 0-.508-.715 1.3 1.3 0 0 0-.808-.254q-.484 0-.817.263a1.57 1.57 0 0 0-.503.72 3 3 0 0 0-.171 1.066q0 .615.171 1.062.175.444.503.688.333.24.817.24m8.222 1.717q-1.093 0-1.884-.443a3.03 3.03 0 0 1-1.209-1.265q-.425-.82-.425-1.943 0-1.095.425-1.921t1.196-1.288q.775-.46 1.819-.461.701 0 1.306.226.609.222 1.062.669.456.448.711 1.127.254.673.254 1.579v.54h-5.988v-1.219h4.136q0-.425-.184-.752a1.3 1.3 0 0 0-.513-.513 1.46 1.46 0 0 0-.752-.189q-.448 0-.794.208a1.46 1.46 0 0 0-.536.549 1.56 1.56 0 0 0-.198.762v1.158q0 .526.194.91.198.383.558.591t.854.207q.328 0 .6-.092t.467-.277q.193-.185.295-.452l1.819.12a2.5 2.5 0 0 1-.568 1.145 2.86 2.86 0 0 1-1.098.757q-.67.267-1.547.267m6.186-9.593v.998q0 .424-.166.868a3.7 3.7 0 0 1-1.03 1.491l-.867-.513q.23-.364.406-.808.18-.443.18-1.029v-1.007zm2.322 0v.998q0 .424-.166.868a3.7 3.7 0 0 1-.434.83 3.4 3.4 0 0 1-.6.661l-.868-.513q.236-.364.411-.808.18-.443.18-1.029v-1.007z"/><path fill="#003812" d="m394 592-10-5.774v11.548zm-44 1h35v-2h-35zM659 275l-10-5.774v11.548zm-157 1h148v-2H502z"/><path stroke="#003812" stroke-width="2" d="M876 275h65M876 407h65M876 531h65M876 664h65M876 793h65M876 921h65"/><path fill="#003812" d="m659 407-10-5.774v11.548zm-157 1h148v-2H502zM659 531l-10-5.774v11.548zm-157 1h148v-2H502zM1042 598l-10-5.774v11.548zm-101 1h92v-2h-92zM659 664l-10-5.774v11.548zm-157 1h148v-2H502zM659 793l-10-5.774v11.548zm-157 1h148v-2H502zM659 921l-10-5.774v11.548zm-157 1h148v-2H502z"/><path stroke="#003812" stroke-width="2" d="M503 275v284M503 632v289M942 275v646"/><path fill="#c9c9c9" fill-opacity=".3" d="M1042 265h169v653h-169zM1379 265h169v653h-169z"/><path fill="#d1d1d1" fill-opacity=".11" d="M1211 265h168v653h-168zM1548 265h348v653h-348z"/><rect width="506" height="73" x="1042" y="556" fill="#00653e" rx="36.5"/><path fill="#fff" d="M1155.79 588.545V598h-2v-9.455zm3.58 5.356V598h-1.97v-7.091h1.87v1.251h.09c.15-.412.42-.738.79-.979.37-.243.81-.364 1.34-.364q.735 0 1.29.323c.36.215.65.523.85.923.2.397.31.871.31 1.422V598h-1.97v-4.164q0-.651-.33-1.016-.345-.369-.93-.369c-.27 0-.5.057-.7.171s-.36.28-.47.498c-.11.216-.17.476-.17.781m12.47-2.992-2.48 7.091h-2.21l-2.48-7.091h2.08l1.47 5.074h.07l1.47-5.074zm4.01 7.229c-.73 0-1.35-.147-1.88-.443-.52-.298-.93-.72-1.21-1.265q-.42-.82-.42-1.943 0-1.095.42-1.921.42-.825 1.2-1.288c.51-.307 1.12-.461 1.81-.461.47 0 .91.075 1.31.226.41.148.76.371 1.06.669.31.299.54.674.71 1.127.17.449.26.975.26 1.579v.54h-5.99v-1.219h4.14c0-.283-.07-.534-.19-.752q-.18-.329-.51-.513a1.5 1.5 0 0 0-.75-.189c-.3 0-.57.069-.8.208-.23.135-.4.318-.53.549-.13.228-.2.482-.2.762v1.158c0 .351.06.654.19.91.13.255.32.452.56.591s.53.207.86.207q.315 0 .6-.092a1.23 1.23 0 0 0 .76-.729l1.82.12q-.15.655-.57 1.145a2.9 2.9 0 0 1-1.1.757c-.45.178-.96.267-1.55.267m10.44-5.207-1.8.111a1.011 1.011 0 0 0-.6-.716 1.4 1.4 0 0 0-.59-.115c-.3 0-.56.065-.77.194-.21.126-.31.295-.31.508 0 .169.07.312.2.429.14.117.37.211.7.282l1.28.258c.69.142 1.21.369 1.54.683q.51.471.51 1.238c0 .464-.13.872-.41 1.223-.27.351-.64.625-1.12.822-.47.194-1.01.29-1.63.29-.93 0-1.68-.195-2.24-.586a2.27 2.27 0 0 1-.97-1.606l1.93-.102c.06.286.2.505.43.656.22.147.51.221.86.221.34 0 .62-.066.83-.198.21-.136.32-.31.32-.522a.55.55 0 0 0-.22-.439q-.225-.175-.69-.267l-1.22-.245c-.7-.138-1.21-.378-1.55-.72s-.5-.777-.5-1.307c0-.455.12-.847.37-1.177.24-.329.59-.583 1.04-.761q.69-.268 1.59-.268c.9 0 1.6.189 2.12.568q.765.568.9 1.546m5.17-2.022v1.477h-4.27v-1.477zm-3.3-1.699h1.97v6.611c0 .182.03.323.08.425a.47.47 0 0 0 .23.207c.1.04.22.06.35.06.1 0 .19-.007.28-.023l.21-.041.31 1.463c-.1.031-.24.066-.41.106-.18.044-.4.07-.65.079-.48.018-.89-.045-1.25-.189a1.74 1.74 0 0 1-.83-.674c-.19-.305-.29-.69-.29-1.154zm7.74 8.928c-.73 0-1.36-.147-1.88-.443-.53-.298-.93-.72-1.21-1.265-.29-.547-.43-1.195-.43-1.943 0-.73.14-1.37.43-1.921.28-.55.68-.98 1.19-1.288.52-.307 1.12-.461 1.82-.461.47 0 .9.075 1.31.226.4.148.76.371 1.06.669s.54.674.71 1.127c.17.449.25.975.25 1.579v.54h-5.98v-1.219h4.13q0-.425-.18-.752a1.43 1.43 0 0 0-1.27-.702c-.3 0-.56.069-.79.208q-.345.202-.54.549c-.13.228-.19.482-.2.762v1.158c0 .351.07.654.2.91.13.255.32.452.56.591s.52.207.85.207q.33 0 .6-.092c.18-.061.34-.154.47-.277s.23-.274.29-.452l1.82.12q-.135.655-.57 1.145c-.28.323-.65.575-1.09.757-.45.178-.97.267-1.55.267m7.15-.023c-.54 0-1.03-.138-1.46-.415-.44-.28-.78-.691-1.04-1.233-.25-.544-.38-1.212-.38-2.003 0-.813.13-1.488.4-2.027.26-.542.61-.946 1.04-1.214a2.66 2.66 0 0 1 1.43-.406c.4 0 .73.067 1 .203.27.132.48.298.64.498.17.197.3.391.38.582h.06v-3.555h1.96V598h-1.93v-1.136h-.09q-.135.296-.39.587c-.17.19-.38.349-.65.475s-.59.189-.97.189m.62-1.565q.48 0 .81-.258c.22-.176.39-.42.5-.734q.18-.471.18-1.103c0-.422-.05-.788-.17-1.099a1.6 1.6 0 0 0-.51-.72q-.33-.255-.81-.254-.48 0-.81.263c-.23.175-.39.418-.51.729-.11.311-.17.671-.17 1.081 0 .412.06.777.17 1.094q.18.471.51.738.33.264.81.263m8.08 1.45v-9.455h3.73c.71 0 1.33.137 1.83.411.5.271.89.648 1.15 1.131.27.48.41 1.034.41 1.662s-.14 1.182-.41 1.662-.66.854-1.18 1.122c-.51.268-1.13.402-1.85.402h-2.38v-1.602h2.05c.39 0 .7-.066.95-.199.26-.135.44-.321.57-.558.12-.24.19-.516.19-.827 0-.314-.07-.588-.19-.821a1.28 1.28 0 0 0-.57-.55q-.375-.198-.96-.198h-1.34V598zm10.21.134c-.45 0-.86-.079-1.21-.236a2 2 0 0 1-.84-.706c-.2-.314-.31-.705-.31-1.172 0-.394.08-.725.22-.993.15-.268.34-.483.59-.646s.53-.287.85-.37.66-.141 1.01-.175c.41-.043.74-.083 1-.12q.375-.06.54-.176.18-.114.18-.341v-.028c0-.292-.1-.518-.28-.678q-.27-.24-.78-.241-.525 0-.84.236a1.1 1.1 0 0 0-.42.582l-1.82-.148c.1-.431.28-.803.55-1.117q.405-.475 1.05-.73c.43-.172.93-.258 1.49-.258.4 0 .77.046 1.13.138.37.093.69.236.97.43.28.193.5.443.67.747q.24.453.24 1.085V598h-1.86v-.983h-.06c-.11.221-.26.417-.46.586-.19.166-.42.297-.68.392q-.405.14-.93.139m.56-1.357c.29 0 .55-.057.77-.171.22-.117.39-.274.52-.471s.19-.42.19-.669v-.753c-.06.04-.15.077-.25.111q-.165.046-.36.088a15 15 0 0 1-.76.12q-.345.05-.6.161a.95.95 0 0 0-.4.3.7.7 0 0 0-.15.462c0 .268.1.472.29.614q.3.207.75.208m8.73-5.868v1.477h-4.27v-1.477zm-3.3-1.699h1.97v6.611c0 .182.02.323.08.425.05.098.13.167.23.207s.22.06.35.06c.09 0 .18-.007.28-.023l.21-.041.31 1.463q-.15.046-.42.106c-.18.044-.39.07-.65.079-.47.018-.89-.045-1.24-.189a1.74 1.74 0 0 1-.83-.674c-.2-.305-.29-.69-.29-1.154zm4.58 8.79v-7.091h1.97V598zm.99-8.005q-.435 0-.75-.291a.93.93 0 0 1-.31-.706c0-.271.1-.503.31-.697q.315-.296.75-.296t.75.296a.91.91 0 0 1 .31.697.93.93 0 0 1-.31.706q-.315.291-.75.291m5.78 8.143c-.73 0-1.35-.147-1.88-.443-.52-.298-.93-.72-1.21-1.265q-.42-.82-.42-1.943 0-1.095.42-1.921.42-.825 1.2-1.288c.51-.307 1.12-.461 1.82-.461.46 0 .9.075 1.3.226.41.148.76.371 1.06.669.31.299.55.674.71 1.127.17.449.26.975.26 1.579v.54h-5.99v-1.219h4.14c0-.283-.06-.534-.19-.752q-.18-.329-.51-.513a1.5 1.5 0 0 0-.75-.189c-.3 0-.57.069-.8.208-.22.135-.4.318-.53.549-.13.228-.2.482-.2.762v1.158c0 .351.06.654.19.91.14.255.32.452.56.591s.53.207.86.207q.315 0 .6-.092a1.23 1.23 0 0 0 .76-.729l1.82.12c-.1.437-.28.818-.57 1.145-.28.323-.65.575-1.1.757-.45.178-.96.267-1.55.267m6.51-4.237V598h-1.97v-7.091h1.88v1.251h.08c.16-.412.42-.738.79-.979.37-.243.82-.364 1.34-.364q.735 0 1.29.323c.37.215.65.523.85.923.21.397.31.871.31 1.422V598h-1.97v-4.164c.01-.434-.11-.773-.33-1.016q-.33-.369-.93-.369c-.26 0-.5.057-.7.171s-.36.28-.47.498c-.11.216-.17.476-.17.781m9.89-2.992v1.477h-4.27v-1.477zm-3.3-1.699h1.97v6.611c0 .182.02.323.08.425.05.098.13.167.23.207s.22.06.35.06c.09 0 .19-.007.28-.023l.21-.041.31 1.463q-.15.046-.42.106c-.17.044-.39.07-.65.079-.47.018-.89-.045-1.24-.189a1.74 1.74 0 0 1-.83-.674c-.2-.305-.29-.69-.29-1.154zm25.82 3.283v1.56h-13v-1.56zm3.83 5.507v-9.455h3.73c.72 0 1.33.137 1.84.411.5.271.89.648 1.15 1.131.27.48.4 1.034.4 1.662s-.13 1.182-.4 1.662-.67.854-1.18 1.122q-.765.402-1.86.402h-2.37v-1.602h2.05c.38 0 .7-.066.95-.199a1.3 1.3 0 0 0 .56-.558c.13-.24.19-.516.19-.827 0-.314-.06-.588-.19-.821a1.25 1.25 0 0 0-.56-.55q-.375-.198-.96-.198h-1.35V598zm11.5.138c-.73 0-1.36-.147-1.88-.443-.53-.298-.93-.72-1.21-1.265-.29-.547-.43-1.195-.43-1.943 0-.73.14-1.37.43-1.921.28-.55.68-.98 1.19-1.288.52-.307 1.13-.461 1.82-.461.47 0 .91.075 1.31.226.41.148.76.371 1.06.669.31.299.54.674.71 1.127.17.449.26.975.26 1.579v.54h-5.99v-1.219h4.13q0-.425-.18-.752-.18-.329-.51-.513a1.5 1.5 0 0 0-.76-.189c-.29 0-.56.069-.79.208-.23.135-.41.318-.53.549-.13.228-.2.482-.2.762v1.158c0 .351.06.654.19.91.13.255.32.452.56.591s.52.207.85.207q.33 0 .6-.092c.19-.061.34-.154.47-.277q.195-.185.3-.452l1.81.12c-.09.437-.28.818-.56 1.145a2.9 2.9 0 0 1-1.1.757c-.45.178-.96.267-1.55.267m4.54-.138v-7.091h1.91v1.237h.07c.13-.44.35-.772.65-.997q.465-.341 1.05-.341a3 3 0 0 1 .62.069v1.745a2.4 2.4 0 0 0-.38-.074 3 3 0 0 0-.45-.032c-.29 0-.55.063-.77.189a1.35 1.35 0 0 0-.54.517c-.13.222-.19.477-.19.766V598zm11.22-5.069-1.8.111a.95.95 0 0 0-.2-.416c-.1-.126-.24-.226-.4-.3a1.4 1.4 0 0 0-.59-.115c-.3 0-.56.065-.77.194-.21.126-.31.295-.31.508 0 .169.06.312.2.429s.37.211.7.282l1.28.258c.69.142 1.2.369 1.54.683q.51.471.51 1.238c0 .464-.14.872-.41 1.223s-.64.625-1.12.822c-.47.194-1.01.29-1.63.29-.94 0-1.68-.195-2.24-.586-.56-.394-.88-.929-.98-1.606l1.94-.102q.09.43.42.656.345.22.87.221c.34 0 .62-.066.83-.198.21-.136.32-.31.32-.522a.53.53 0 0 0-.23-.439c-.14-.116-.37-.206-.68-.267l-1.23-.245c-.69-.138-1.2-.378-1.54-.72q-.51-.513-.51-1.307c0-.455.13-.847.37-1.177q.375-.494 1.05-.761.675-.268 1.59-.268c.89 0 1.6.189 2.11.568.52.378.82.894.91 1.546m4.6 5.207q-1.08 0-1.86-.457a3.1 3.1 0 0 1-1.2-1.283c-.29-.551-.43-1.189-.43-1.916 0-.732.14-1.372.43-1.92q.42-.827 1.2-1.284.78-.46 1.86-.461 1.08 0 1.86.461c.52.305.92.733 1.21 1.284q.42.822.42 1.92 0 1.09-.42 1.916c-.29.548-.69.976-1.21 1.283q-.78.457-1.86.457m.01-1.523c.33 0 .6-.092.82-.277.22-.188.38-.443.49-.766.12-.323.17-.691.17-1.104 0-.412-.05-.78-.17-1.103-.11-.323-.27-.579-.49-.766s-.49-.282-.82-.282-.61.094-.83.282-.39.443-.5.766a3.4 3.4 0 0 0-.17 1.103c0 .413.06.781.17 1.104s.28.578.5.766c.22.185.5.277.83.277m6.73-2.714V598h-1.97v-7.091h1.88v1.251h.08c.16-.412.42-.738.79-.979.37-.243.81-.364 1.34-.364q.735 0 1.29.323c.37.215.65.523.85.923.21.397.31.871.31 1.422V598h-1.97v-4.164q0-.651-.33-1.016-.345-.369-.93-.369c-.26 0-.5.057-.7.171s-.36.28-.47.498c-.11.216-.17.476-.17.781m8.14 4.233c-.45 0-.86-.079-1.21-.236a2 2 0 0 1-.84-.706q-.3-.471-.3-1.172 0-.591.21-.993c.15-.268.34-.483.59-.646s.54-.287.85-.37c.32-.083.66-.141 1.01-.175.41-.043.74-.083 1-.12.25-.04.43-.099.55-.176.11-.076.17-.19.17-.341v-.028c0-.292-.1-.518-.28-.678q-.27-.24-.78-.241-.525 0-.84.236a1.1 1.1 0 0 0-.42.582l-1.82-.148c.1-.431.28-.803.55-1.117q.405-.475 1.05-.73c.43-.172.93-.258 1.49-.258.4 0 .77.046 1.13.138.37.093.69.236.97.43.28.193.51.443.67.747q.24.453.24 1.085V598h-1.86v-.983h-.06a1.9 1.9 0 0 1-.45.586c-.2.166-.42.297-.69.392q-.405.14-.93.139m.56-1.357c.29 0 .55-.057.77-.171.22-.117.39-.274.52-.471s.19-.42.19-.669v-.753c-.06.04-.15.077-.25.111q-.165.046-.36.088a15 15 0 0 1-.76.12q-.345.05-.6.161a.95.95 0 0 0-.4.3.7.7 0 0 0-.15.462q0 .402.3.614c.19.138.44.208.74.208m6.93-8.232V598h-1.97v-9.455zm1.57 9.455v-7.091h1.97V598zm.99-8.005q-.435 0-.75-.291a.93.93 0 0 1-.31-.706c0-.271.1-.503.31-.697q.315-.296.75-.296t.75.296a.91.91 0 0 1 .31.697.93.93 0 0 1-.31.706q-.315.291-.75.291m2.52 8.005v-1.173l3.47-4.298v-.05h-3.35v-1.57h5.72v1.279l-3.26 4.192v.05h3.38V598zm10.49.138q-1.095 0-1.89-.443c-.52-.298-.92-.72-1.21-1.265q-.42-.82-.42-1.943 0-1.095.42-1.921.435-.825 1.2-1.288c.52-.307 1.12-.461 1.82-.461.47 0 .9.075 1.31.226.4.148.76.371 1.06.669s.54.674.71 1.127c.17.449.25.975.25 1.579v.54h-5.99v-1.219h4.14q0-.425-.18-.752a1.43 1.43 0 0 0-1.27-.702c-.3 0-.56.069-.79.208q-.345.202-.54.549c-.13.228-.19.482-.2.762v1.158c0 .351.07.654.2.91.13.255.32.452.56.591s.52.207.85.207q.33 0 .6-.092c.18-.061.34-.154.47-.277s.22-.274.29-.452l1.82.12q-.135.655-.57 1.145c-.28.323-.65.575-1.1.757-.44.178-.96.267-1.54.267m7.15-.023c-.54 0-1.03-.138-1.46-.415-.44-.28-.78-.691-1.04-1.233-.25-.544-.38-1.212-.38-2.003 0-.813.13-1.488.4-2.027.26-.542.6-.946 1.04-1.214a2.66 2.66 0 0 1 1.43-.406c.4 0 .73.067 1 .203.26.132.48.298.64.498.17.197.3.391.38.582h.06v-3.555h1.96V598h-1.94v-1.136h-.08q-.135.296-.39.587c-.17.19-.38.349-.65.475s-.59.189-.97.189m.62-1.565q.48 0 .81-.258c.22-.176.39-.42.5-.734q.18-.471.18-1.103c0-.422-.06-.788-.17-1.099a1.6 1.6 0 0 0-.51-.72q-.33-.255-.81-.254c-.32 0-.59.087-.82.263-.22.175-.38.418-.5.729-.11.311-.17.671-.17 1.081 0 .412.06.777.17 1.094.12.314.29.56.5.738.23.176.5.263.82.263m8.08-8.005h2.46l2.61 6.353h.11l2.6-6.353h2.46V598h-1.93v-6.154h-.08l-2.45 6.108h-1.32l-2.45-6.131h-.07V598h-1.94zm11.85 9.455v-7.091h1.97V598zm.99-8.005q-.435 0-.75-.291a.93.93 0 0 1-.31-.706c0-.271.1-.503.31-.697q.315-.296.75-.296c.3 0 .54.099.75.296a.91.91 0 0 1 .31.697.93.93 0 0 1-.31.706 1.05 1.05 0 0 1-.75.291m4.52-1.45V598h-1.96v-9.455zm4.81 9.593c-.73 0-1.36-.147-1.88-.443-.53-.298-.93-.72-1.21-1.265-.29-.547-.43-1.195-.43-1.943 0-.73.14-1.37.43-1.921.28-.55.68-.98 1.19-1.288.52-.307 1.13-.461 1.82-.461.47 0 .91.075 1.31.226.4.148.76.371 1.06.669s.54.674.71 1.127c.17.449.25.975.25 1.579v.54h-5.98v-1.219h4.13q0-.425-.18-.752-.18-.329-.51-.513a1.5 1.5 0 0 0-.76-.189c-.29 0-.56.069-.79.208q-.345.202-.54.549c-.12.228-.19.482-.19.762v1.158c0 .351.06.654.19.91.13.255.32.452.56.591s.52.207.85.207q.33 0 .6-.092c.18-.061.34-.154.47-.277s.23-.274.29-.452l1.82.12c-.09.437-.28.818-.56 1.145a2.9 2.9 0 0 1-1.1.757c-.45.178-.96.267-1.55.267m10.44-5.207-1.8.111a.95.95 0 0 0-.2-.416c-.1-.126-.24-.226-.4-.3a1.4 1.4 0 0 0-.59-.115c-.3 0-.56.065-.77.194-.21.126-.31.295-.31.508 0 .169.06.312.2.429s.37.211.7.282l1.28.258c.69.142 1.2.369 1.54.683q.51.471.51 1.238c0 .464-.14.872-.41 1.223s-.64.625-1.12.822c-.47.194-1.01.29-1.63.29-.94 0-1.68-.195-2.24-.586-.56-.394-.88-.929-.98-1.606l1.94-.102q.09.43.42.656.345.22.87.221c.34 0 .62-.066.83-.198.21-.136.32-.31.32-.522a.53.53 0 0 0-.23-.439c-.14-.116-.37-.206-.68-.267l-1.23-.245c-.69-.138-1.2-.378-1.54-.72q-.51-.513-.51-1.307c0-.455.13-.847.37-1.177q.375-.494 1.05-.761.675-.268 1.59-.268c.89 0 1.6.189 2.11.568.52.378.82.894.91 1.546m5.17-2.022v1.477h-4.27v-1.477zm-3.3-1.699h1.97v6.611c0 .182.02.323.08.425.05.098.13.167.23.207s.22.06.35.06c.09 0 .19-.007.28-.023l.21-.041.31 1.463q-.15.046-.42.106c-.17.044-.39.07-.65.079-.47.018-.89-.045-1.24-.189a1.74 1.74 0 0 1-.83-.674c-.2-.305-.29-.69-.29-1.154zm7.71 8.928q-1.08 0-1.86-.457a3.2 3.2 0 0 1-1.21-1.283q-.42-.826-.42-1.916 0-1.098.42-1.92a3.15 3.15 0 0 1 1.21-1.284q.78-.46 1.86-.461c.72 0 1.33.154 1.85.461.53.305.93.733 1.21 1.284.29.548.43 1.188.43 1.92 0 .727-.14 1.365-.43 1.916a3.05 3.05 0 0 1-1.21 1.283c-.52.305-1.13.457-1.85.457m.01-1.523c.32 0 .6-.092.81-.277.22-.188.39-.443.5-.766s.17-.691.17-1.104c0-.412-.06-.78-.17-1.103a1.7 1.7 0 0 0-.5-.766c-.21-.188-.49-.282-.81-.282-.33 0-.61.094-.83.282q-.33.281-.51.766c-.11.323-.16.691-.16 1.103s.05.781.16 1.104q.18.484.51.766c.22.185.5.277.83.277m6.72-2.714V598h-1.96v-7.091h1.87v1.251h.08c.16-.412.42-.738.79-.979q.555-.364 1.35-.364.735 0 1.29.323c.36.215.65.523.85.923q.3.596.3 1.422V598h-1.96v-4.164q0-.651-.33-1.016-.345-.369-.93-.369c-.27 0-.5.057-.7.171q-.3.171-.48.498c-.11.216-.16.476-.17.781m9.36 4.237q-1.095 0-1.89-.443c-.52-.298-.92-.72-1.21-1.265q-.42-.82-.42-1.943 0-1.095.42-1.921c.29-.55.68-.98 1.2-1.288.52-.307 1.12-.461 1.82-.461.47 0 .9.075 1.3.226.41.148.76.371 1.07.669.3.299.54.674.71 1.127.17.449.25.975.25 1.579v.54h-5.99v-1.219h4.14c0-.283-.06-.534-.19-.752q-.18-.329-.51-.513a1.43 1.43 0 0 0-.75-.189c-.3 0-.56.069-.79.208q-.345.202-.54.549c-.13.228-.2.482-.2.762v1.158c0 .351.07.654.2.91.13.255.31.452.55.591s.53.207.86.207q.33 0 .6-.092a1.235 1.235 0 0 0 .76-.729l1.82.12q-.135.655-.57 1.145c-.28.323-.65.575-1.1.757-.44.178-.96.267-1.54.267m10.43-5.207-1.8.111a.85.85 0 0 0-.2-.416c-.1-.126-.23-.226-.4-.3a1.35 1.35 0 0 0-.58-.115c-.31 0-.56.065-.77.194-.21.126-.32.295-.32.508q0 .254.21.429.195.175.69.282l1.29.258c.68.142 1.2.369 1.54.683q.51.471.51 1.238 0 .696-.42 1.223-.405.527-1.11.822c-.47.194-1.02.29-1.63.29q-1.41 0-2.25-.586c-.55-.394-.87-.929-.97-1.606l1.93-.102c.06.286.2.505.43.656.22.147.51.221.86.221s.62-.066.83-.198c.22-.136.32-.31.33-.522a.56.56 0 0 0-.23-.439c-.15-.116-.38-.206-.68-.267l-1.23-.245c-.69-.138-1.21-.378-1.55-.72-.33-.342-.5-.777-.5-1.307 0-.455.12-.847.37-1.177q.375-.494 1.05-.761c.45-.179.98-.268 1.58-.268.9 0 1.6.189 2.12.568q.78.568.9 1.546"/><rect width="299" height="73" x="1597" y="556" fill="#00653e" rx="36.5"/><path fill="#fff" d="M1668.26 598v-9.455h6.37v1.649h-4.37v2.252h4.04v1.648h-4.04v2.258h4.39V598zm9.89-4.099V598h-1.97v-7.091h1.88v1.251h.08c.16-.412.42-.738.79-.979.37-.243.82-.364 1.34-.364q.75 0 1.29.323c.37.215.65.523.86.923q.3.596.3 1.422V598h-1.96v-4.164c0-.434-.11-.773-.34-1.016q-.33-.369-.93-.369c-.26 0-.49.057-.7.171-.2.114-.35.28-.47.498-.11.216-.17.476-.17.781m8.73 4.214c-.53 0-1.02-.138-1.46-.415-.43-.28-.78-.691-1.03-1.233-.26-.544-.38-1.212-.38-2.003q0-1.219.39-2.027c.26-.542.61-.946 1.04-1.214q.66-.406 1.44-.406.6 0 .99.203c.27.132.49.298.65.498.16.197.29.391.38.582h.06v-3.555h1.96V598h-1.94v-1.136h-.08c-.1.197-.23.393-.4.587-.16.19-.38.349-.65.475-.26.126-.58.189-.97.189m.63-1.565c.31 0 .58-.086.8-.258q.33-.263.51-.734t.18-1.103q0-.633-.18-1.099a1.52 1.52 0 0 0-.5-.72q-.345-.255-.81-.254c-.33 0-.6.087-.82.263-.22.175-.39.418-.5.729-.12.311-.17.671-.17 1.081 0 .412.05.777.17 1.094.11.314.28.56.5.738.22.176.49.263.82.263m9.44-3.213v1.561h-4.31v-1.561zm4.88 4.801q-1.065 0-1.86-.457a3.1 3.1 0 0 1-1.2-1.283c-.28-.551-.43-1.189-.43-1.916 0-.732.15-1.372.43-1.92q.42-.827 1.2-1.284.795-.46 1.86-.461 1.08 0 1.86.461c.52.305.93.733 1.21 1.284q.42.822.42 1.92 0 1.09-.42 1.916c-.28.548-.69.976-1.21 1.283q-.78.457-1.86.457m.01-1.523c.33 0 .6-.092.82-.277.22-.188.38-.443.49-.766.12-.323.17-.691.17-1.104 0-.412-.05-.78-.17-1.103-.11-.323-.27-.579-.49-.766s-.49-.282-.82-.282-.6.094-.83.282c-.22.187-.39.443-.5.766a3.4 3.4 0 0 0-.17 1.103c0 .413.06.781.17 1.104s.28.578.5.766c.23.185.5.277.83.277m8.58-5.706v1.477h-4.38v-1.477zm-3.38 7.091v-7.603q0-.772.3-1.279c.2-.339.48-.593.83-.762q.525-.254 1.2-.254c.3 0 .58.023.82.07.26.046.44.087.57.124l-.35 1.477a3 3 0 0 0-.29-.069 2 2 0 0 0-.34-.032c-.29 0-.49.068-.61.203-.11.132-.17.319-.17.559V598zm8.74-4.663v1.561h-4.31v-1.561zm1.71 4.663v-9.455h3.73c.72 0 1.33.137 1.84.411.5.271.89.648 1.15 1.131.27.48.4 1.034.4 1.662s-.13 1.182-.4 1.662-.67.854-1.18 1.122q-.765.402-1.86.402h-2.37v-1.602h2.05c.38 0 .7-.066.95-.199a1.3 1.3 0 0 0 .56-.558c.13-.24.19-.516.19-.827 0-.314-.06-.588-.19-.821a1.25 1.25 0 0 0-.56-.55q-.375-.198-.96-.198h-1.35V598zm8.38 0v-7.091h1.91v1.237h.07q.195-.66.66-.997.45-.341 1.05-.341c.1 0 .2.006.32.018q.165.018.3.051v1.745c-.1-.028-.22-.053-.39-.074a3 3 0 0 0-.44-.032q-.435 0-.78.189-.33.184-.54.517c-.12.222-.19.477-.19.766V598zm8.2.138q-1.08 0-1.86-.457a3.2 3.2 0 0 1-1.21-1.283q-.42-.826-.42-1.916 0-1.098.42-1.92a3.15 3.15 0 0 1 1.21-1.284q.78-.46 1.86-.461c.71 0 1.33.154 1.85.461.53.305.93.733 1.21 1.284.29.548.43 1.188.43 1.92 0 .727-.14 1.365-.43 1.916a3.05 3.05 0 0 1-1.21 1.283c-.52.305-1.14.457-1.85.457m.01-1.523c.32 0 .6-.092.81-.277.22-.188.39-.443.5-.766s.17-.691.17-1.104c0-.412-.06-.78-.17-1.103a1.7 1.7 0 0 0-.5-.766c-.21-.188-.49-.282-.81-.282-.33 0-.61.094-.83.282-.23.187-.39.443-.51.766-.11.323-.16.691-.16 1.103s.05.781.16 1.104c.12.323.28.578.51.766.22.185.5.277.83.277m7.95 4.192c-.64 0-1.18-.088-1.64-.263q-.675-.259-1.08-.707a2.15 2.15 0 0 1-.52-1.006l1.82-.245c.05.142.14.274.26.397q.18.185.48.296c.2.077.44.115.73.115.42 0 .78-.104 1.05-.314q.42-.309.42-1.038v-1.298h-.08a1.926 1.926 0 0 1-1.05.988c-.27.111-.6.166-.97.166a2.95 2.95 0 0 1-1.46-.369c-.43-.249-.78-.629-1.03-1.14q-.39-.771-.39-1.948c0-.804.13-1.474.4-2.013.26-.539.6-.942 1.04-1.21a2.7 2.7 0 0 1 1.43-.401c.4 0 .73.067 1 .203.27.132.48.298.65.498.16.197.29.391.38.582h.07v-1.191h1.96v7.16q0 .905-.45 1.514c-.29.407-.7.711-1.22.915q-.78.309-1.8.309m.04-4.386q.48 0 .81-.235c.22-.16.39-.388.5-.684q.18-.447.18-1.071c0-.415-.06-.775-.17-1.08a1.6 1.6 0 0 0-.51-.715q-.33-.255-.81-.254-.48 0-.81.263c-.23.172-.39.412-.51.72-.11.308-.17.663-.17 1.066 0 .41.06.764.17 1.062q.18.444.51.688.33.24.81.24m4.99 1.579v-7.091h1.91v1.237h.07c.13-.44.35-.772.65-.997.31-.228.66-.341 1.06-.341.1 0 .2.006.32.018q.165.018.3.051v1.745c-.1-.028-.22-.053-.39-.074a3 3 0 0 0-.45-.032c-.29 0-.54.063-.77.189-.23.123-.4.295-.54.517-.13.222-.19.477-.19.766V598zm7.14.134c-.45 0-.85-.079-1.21-.236a2 2 0 0 1-.84-.706q-.3-.471-.3-1.172 0-.591.21-.993c.15-.268.35-.483.59-.646.25-.163.54-.287.85-.37.32-.083.66-.141 1.01-.175.41-.043.74-.083 1-.12.25-.04.43-.099.55-.176.11-.076.17-.19.17-.341v-.028c0-.292-.09-.518-.28-.678q-.27-.24-.78-.241-.525 0-.84.236a1.1 1.1 0 0 0-.42.582l-1.81-.148q.135-.646.54-1.117.405-.475 1.05-.73c.43-.172.93-.258 1.49-.258q.6 0 1.14.138.54.14.96.43c.28.193.51.443.67.747q.24.453.24 1.085V598h-1.86v-.983h-.06a1.9 1.9 0 0 1-.45.586 2.1 2.1 0 0 1-.69.392q-.405.14-.93.139m.56-1.357c.29 0 .55-.057.77-.171.22-.117.4-.274.52-.471.13-.197.19-.42.19-.669v-.753a1 1 0 0 1-.25.111q-.165.046-.36.088a15 15 0 0 1-.76.12q-.345.05-.6.161a.95.95 0 0 0-.4.3c-.1.123-.14.277-.14.462 0 .268.09.472.29.614.19.138.44.208.74.208m4.96 1.223v-7.091h1.87v1.251h.09a1.9 1.9 0 0 1 .74-.983q.51-.36 1.23-.36c.49 0 .9.121 1.24.364.35.241.57.567.69.979h.07c.15-.406.41-.731.79-.974q.57-.369 1.35-.369c.66 0 1.2.211 1.61.632.42.419.62 1.013.62 1.782V598h-1.96v-4.381c0-.394-.1-.689-.31-.886a1.1 1.1 0 0 0-.79-.296c-.35 0-.63.114-.83.342q-.3.336-.3.891V598h-1.91v-4.423q0-.52-.3-.831-.3-.309-.78-.309a1.1 1.1 0 0 0-1 .623q-.15.291-.15.684V598zm20.03-6.735c-.04-.373-.19-.662-.47-.868q-.42-.31-1.14-.31c-.33 0-.61.047-.83.139-.22.089-.4.214-.52.374a.94.94 0 0 0-.17.545.8.8 0 0 0 .1.443q.12.189.33.327.21.135.48.236c.18.065.38.12.58.166l.85.203q.615.14 1.14.37c.34.153.64.343.89.567.26.225.45.49.59.794s.21.654.22 1.048c-.01.579-.15 1.081-.45 1.505-.29.422-.7.75-1.25.984-.55.23-1.2.346-1.97.346s-1.43-.117-2-.351q-.84-.35-1.32-1.039c-.31-.461-.48-1.032-.49-1.712h1.93q.03.475.27.794.255.313.66.475c.27.105.58.157.92.157s.64-.049.89-.148.44-.235.58-.41a.95.95 0 0 0 .21-.605.77.77 0 0 0-.19-.536q-.18-.217-.54-.369a5.5 5.5 0 0 0-.88-.277l-1.03-.259c-.79-.193-1.42-.497-1.88-.909q-.705-.618-.69-1.667c-.01-.572.15-1.072.45-1.5.32-.428.74-.762 1.28-1.002.55-.24 1.16-.36 1.85-.36.7 0 1.31.12 1.84.36q.78.36 1.23 1.002.435.641.45 1.487zm7.9 3.716v-4.072h1.97V598h-1.89v-1.288h-.07c-.16.415-.43.749-.8 1.002q-.555.378-1.35.378-.72 0-1.26-.323a2.2 2.2 0 0 1-.84-.919c-.2-.397-.3-.872-.31-1.426v-4.515h1.97v4.164c0 .419.12.75.34.993s.52.364.89.364q.36 0 .66-.161c.21-.111.38-.274.5-.49.13-.215.19-.481.19-.798m3.54 5.678v-9.75h1.94v1.191h.09c.08-.191.21-.385.37-.582.17-.2.38-.366.65-.498.27-.136.6-.203 1-.203.51 0 .99.135 1.43.406.43.268.78.672 1.04 1.214.27.539.4 1.214.4 2.027q0 1.187-.39 2.003c-.25.542-.59.953-1.03 1.233-.43.277-.92.415-1.46.415-.38 0-.71-.063-.97-.189a2 2 0 0 1-.65-.475q-.255-.291-.39-.587h-.06v3.795zm1.93-6.204c0 .421.06.789.17 1.103q.18.47.51.734.33.258.81.258t.81-.263c.22-.178.39-.424.5-.738q.18-.476.18-1.094c0-.41-.06-.77-.17-1.081-.12-.311-.28-.554-.51-.729a1.25 1.25 0 0 0-.81-.263q-.48 0-.81.254t-.51.72c-.11.311-.17.677-.17 1.099m6.3 6.204v-9.75h1.94v1.191h.08c.09-.191.22-.385.38-.582.16-.2.38-.366.64-.498.27-.136.61-.203 1-.203.52 0 1 .135 1.43.406q.66.402 1.05 1.214.39.808.39 2.027c0 .791-.12 1.459-.38 2.003-.25.542-.6.953-1.03 1.233-.44.277-.92.415-1.46.415-.38 0-.71-.063-.98-.189a2.1 2.1 0 0 1-.65-.475q-.255-.291-.39-.587h-.06v3.795zm1.92-6.204q0 .632.18 1.103c.12.314.28.558.51.734.22.172.49.258.8.258.32 0 .6-.087.82-.263.22-.178.39-.424.5-.738q.18-.476.18-1.094 0-.615-.18-1.081a1.6 1.6 0 0 0-.5-.729c-.22-.176-.49-.263-.82-.263q-.48 0-.81.254c-.22.169-.38.409-.5.72q-.18.466-.18 1.099m9.51 3.683q-1.08 0-1.86-.457a3.2 3.2 0 0 1-1.21-1.283q-.42-.826-.42-1.916 0-1.098.42-1.92a3.15 3.15 0 0 1 1.21-1.284q.78-.46 1.86-.461c.72 0 1.33.154 1.85.461.53.305.93.733 1.21 1.284.29.548.43 1.188.43 1.92 0 .727-.14 1.365-.43 1.916a3.05 3.05 0 0 1-1.21 1.283c-.52.305-1.13.457-1.85.457m.01-1.523c.32 0 .6-.092.81-.277.22-.188.39-.443.5-.766s.17-.691.17-1.104c0-.412-.06-.78-.17-1.103a1.7 1.7 0 0 0-.5-.766c-.21-.188-.49-.282-.81-.282-.33 0-.61.094-.83.282q-.33.281-.51.766c-.11.323-.16.691-.16 1.103s.05.781.16 1.104q.18.484.51.766c.22.185.5.277.83.277m4.76 1.385v-7.091h1.9v1.237h.08c.13-.44.34-.772.65-.997q.45-.341 1.05-.341a3 3 0 0 1 .62.069v1.745a3.537 3.537 0 0 0-.83-.106q-.435 0-.78.189c-.22.123-.4.295-.53.517s-.2.477-.2.766V598zm9.44-7.091v1.477h-4.27v-1.477zm-3.3-1.699h1.97v6.611c0 .182.03.323.08.425.06.098.14.167.23.207.11.04.22.06.35.06.1 0 .19-.007.28-.023l.21-.041.31 1.463c-.1.031-.23.066-.41.106-.18.044-.4.07-.65.079-.48.018-.89-.045-1.25-.189-.35-.145-.63-.37-.83-.674-.19-.305-.29-.69-.29-1.154z"/><path fill="#003812" d="m1597 595-10-5.774v11.548zm-47 1h38v-2h-38z"/><path fill="#5c5f5e" d="M1095.53 816.545h2.1l2.8 6.851h.12l2.8-6.851h2.1V826h-1.65v-6.495h-.08l-2.62 6.467h-1.22l-2.62-6.481h-.08V826h-1.65zm11.71 9.455v-7.091h1.67V826zm.84-8.097a.98.98 0 0 1-.68-.263.857.857 0 0 1 0-1.284.97.97 0 0 1 .68-.268c.27 0 .5.09.68.268a.857.857 0 0 1 0 1.284.94.94 0 0 1-.68.263m4.22-1.358V826h-1.67v-9.455zm4.86 9.593c-.71 0-1.33-.147-1.84-.443-.52-.298-.91-.72-1.19-1.265q-.42-.82-.42-1.934 0-1.094.42-1.92a3.15 3.15 0 0 1 1.17-1.293q.75-.466 1.77-.466c.44 0 .85.071 1.24.212.39.139.73.354 1.03.646s.54.665.71 1.118c.17.449.26.984.26 1.606v.513h-5.81v-1.127h4.21q0-.48-.21-.854a1.43 1.43 0 0 0-.57-.595 1.6 1.6 0 0 0-.84-.217q-.51 0-.9.249-.39.244-.6.646c-.14.265-.22.556-.22.873v.983c0 .412.08.766.23 1.062q.225.438.63.674c.27.154.59.231.95.231q.36 0 .66-.102.3-.106.51-.309.225-.203.33-.503l1.56.175c-.1.412-.28.773-.56 1.08a2.84 2.84 0 0 1-1.05.711 4.1 4.1 0 0 1-1.47.249m10.17-5.355-1.52.167a1.3 1.3 0 0 0-.23-.434 1.2 1.2 0 0 0-.43-.328 1.5 1.5 0 0 0-.65-.125c-.35 0-.64.076-.88.226-.23.151-.35.347-.34.587a.6.6 0 0 0 .22.503q.24.194.78.318l1.21.259c.67.145 1.17.374 1.49.688.33.314.5.725.5 1.232q0 .67-.39 1.182c-.26.339-.61.603-1.07.794-.45.191-.98.286-1.57.286-.86 0-1.56-.181-2.09-.544a2.19 2.19 0 0 1-.95-1.528l1.63-.157c.07.32.23.561.47.725s.55.244.94.244c.4 0 .71-.081.95-.244.25-.164.37-.365.37-.605a.62.62 0 0 0-.24-.503q-.225-.199-.72-.305l-1.21-.254c-.68-.142-1.18-.38-1.51-.716q-.48-.507-.48-1.283c0-.437.11-.816.35-1.136a2.4 2.4 0 0 1 1.02-.747q.645-.268 1.5-.268c.83 0 1.48.177 1.96.531s.78.832.89 1.435m5.07-1.874v1.293h-4.08v-1.293zm-3.07-1.699h1.67v6.657c0 .225.04.397.1.517.07.117.17.197.28.24s.24.065.38.065c.1 0 .2-.008.29-.023.08-.016.15-.029.2-.042l.28 1.307a3.248 3.248 0 0 1-.98.166c-.42.012-.8-.051-1.13-.189-.34-.142-.61-.36-.8-.656-.2-.295-.29-.665-.29-1.108zm7.48 8.928q-1.035 0-1.8-.457c-.5-.304-.9-.73-1.18-1.278-.27-.548-.41-1.188-.41-1.921 0-.732.14-1.374.41-1.925.28-.551.68-.979 1.18-1.283q.765-.457 1.8-.457c.7 0 1.3.152 1.81.457.5.304.9.732 1.17 1.283q.42.827.42 1.925 0 1.1-.42 1.921c-.27.548-.67.974-1.17 1.278-.51.305-1.11.457-1.81.457m.01-1.338c.38 0 .69-.103.95-.31.25-.209.44-.489.56-.84.13-.351.19-.742.19-1.172 0-.434-.06-.827-.19-1.178a1.85 1.85 0 0 0-.56-.844c-.26-.21-.57-.314-.95-.314q-.57 0-.96.314c-.25.209-.44.49-.56.844-.13.351-.19.744-.19 1.178 0 .43.06.821.19 1.172.12.351.31.631.56.84q.39.31.96.31m6.48-2.955V826h-1.67v-7.091h1.6v1.205h.08q.24-.595.78-.946c.36-.234.81-.351 1.34-.351.49 0 .91.104 1.27.314.37.209.65.512.85.909q.315.596.3 1.445V826h-1.67v-4.256c0-.474-.12-.845-.37-1.113-.24-.268-.58-.402-1.01-.402q-.435 0-.78.194c-.22.126-.4.31-.53.55-.12.24-.19.531-.19.872m9.39 4.293c-.71 0-1.32-.147-1.84-.443-.51-.298-.91-.72-1.19-1.265-.27-.547-.41-1.192-.41-1.934 0-.729.14-1.369.41-1.92.28-.554.67-.985 1.18-1.293.5-.311 1.09-.466 1.76-.466.44 0 .85.071 1.24.212.39.139.74.354 1.04.646s.53.665.71 1.118c.17.449.26.984.26 1.606v.513h-5.82v-1.127h4.21c0-.32-.07-.605-.2-.854a1.57 1.57 0 0 0-.57-.595 1.6 1.6 0 0 0-.84-.217q-.51 0-.9.249c-.26.163-.46.378-.61.646a1.84 1.84 0 0 0-.21.873v.983c0 .412.07.766.22 1.062q.225.438.63.674c.28.154.59.231.96.231q.36 0 .66-.102.285-.106.51-.309.21-.203.33-.503l1.56.175q-.15.619-.57 1.08-.405.457-1.05.711a4.1 4.1 0 0 1-1.47.249m-34.21 9.427c-.08-.25-.19-.473-.32-.67q-.195-.3-.48-.512c-.19-.142-.4-.248-.64-.319q-.36-.111-.78-.111c-.51 0-.96.128-1.36.384-.4.255-.71.631-.94 1.126q-.33.739-.33 1.8 0 1.072.33 1.815c.23.495.54.872.94 1.131.4.255.86.383 1.39.383.48 0 .9-.092 1.25-.277s.63-.446.82-.785c.19-.341.28-.742.28-1.2l.39.06h-2.57v-1.339h3.84v1.136c0 .809-.17 1.509-.52 2.1a3.46 3.46 0 0 1-1.42 1.367c-.6.317-1.29.475-2.08.475-.87 0-1.63-.195-2.29-.586a4.1 4.1 0 0 1-1.54-1.676c-.36-.726-.55-1.588-.55-2.585q0-1.145.33-2.045c.22-.6.52-1.11.91-1.528q.585-.633 1.38-.96c.52-.222 1.1-.333 1.71-.333q.795 0 1.47.231.675.226 1.2.646.54.42.87.997.345.577.45 1.275zm6.5 6.573q-1.05 0-1.8-.457a3.1 3.1 0 0 1-1.19-1.278c-.27-.548-.41-1.188-.41-1.921 0-.732.14-1.374.41-1.925.28-.551.68-.979 1.19-1.283q.75-.457 1.8-.457 1.035 0 1.8.457c.5.304.9.732 1.17 1.283q.42.827.42 1.925 0 1.1-.42 1.921c-.27.548-.67.974-1.17 1.278q-.765.457-1.8.457m.01-1.338c.37 0 .69-.103.94-.31.25-.209.44-.489.56-.84.13-.351.19-.742.19-1.172 0-.434-.06-.827-.19-1.178a1.85 1.85 0 0 0-.56-.844c-.25-.21-.57-.314-.94-.314q-.585 0-.96.314-.39.313-.57.844c-.13.351-.19.744-.19 1.178 0 .43.06.821.19 1.172q.18.526.57.84.375.31.96.31m6.84 1.343c-.45 0-.85-.08-1.21-.24a1.97 1.97 0 0 1-.85-.72c-.21-.317-.31-.708-.31-1.173 0-.4.07-.731.22-.992.15-.262.35-.471.61-.628.25-.157.54-.276.86-.356.32-.083.66-.143 1-.18.42-.043.75-.081 1.01-.115q.39-.055.57-.166.18-.116.18-.356v-.027c0-.348-.11-.617-.31-.808-.21-.191-.51-.286-.89-.286-.41 0-.74.089-.98.267q-.36.268-.48.633l-1.56-.222c.12-.431.33-.791.61-1.08.28-.292.63-.511 1.04-.656.41-.147.86-.221 1.36-.221q.51 0 1.02.12c.34.08.64.212.92.397.28.181.51.429.68.743s.26.706.26 1.177V842h-1.61v-.974h-.05c-.11.197-.25.382-.43.554-.19.169-.41.306-.69.411-.28.101-.6.152-.97.152m.44-1.228q.495 0 .87-.198.375-.204.57-.536c.13-.221.2-.463.2-.725v-.835a.8.8 0 0 1-.27.12c-.12.037-.26.069-.41.097-.16.027-.31.052-.46.074l-.39.055a3 3 0 0 0-.67.166c-.2.077-.35.185-.47.323a.8.8 0 0 0-.17.527c0 .307.11.54.34.697.22.157.51.235.86.235m6.66-8.37V842h-1.67v-9.455zM1265.53 816.545h2.1l2.8 6.851h.12l2.8-6.851h2.1V826h-1.65v-6.495h-.08l-2.62 6.467h-1.22l-2.62-6.481h-.08V826h-1.65zm11.71 9.455v-7.091h1.67V826zm.84-8.097a.98.98 0 0 1-.68-.263.857.857 0 0 1 0-1.284.97.97 0 0 1 .68-.268c.27 0 .5.09.68.268a.857.857 0 0 1 0 1.284.94.94 0 0 1-.68.263m4.22-1.358V826h-1.67v-9.455zm4.86 9.593c-.71 0-1.33-.147-1.84-.443-.52-.298-.91-.72-1.19-1.265q-.42-.82-.42-1.934 0-1.094.42-1.92a3.15 3.15 0 0 1 1.17-1.293q.75-.466 1.77-.466c.44 0 .85.071 1.24.212.39.139.73.354 1.03.646s.54.665.71 1.118c.17.449.26.984.26 1.606v.513h-5.81v-1.127h4.21q0-.48-.21-.854a1.43 1.43 0 0 0-.57-.595 1.6 1.6 0 0 0-.84-.217q-.51 0-.9.249-.39.244-.6.646c-.14.265-.22.556-.22.873v.983c0 .412.08.766.23 1.062q.225.438.63.674c.27.154.59.231.95.231q.36 0 .66-.102.3-.106.51-.309.225-.203.33-.503l1.56.175c-.1.412-.28.773-.56 1.08a2.84 2.84 0 0 1-1.05.711 4.1 4.1 0 0 1-1.47.249m10.17-5.355-1.52.167a1.3 1.3 0 0 0-.23-.434 1.2 1.2 0 0 0-.43-.328 1.5 1.5 0 0 0-.65-.125c-.35 0-.64.076-.88.226-.23.151-.35.347-.34.587a.6.6 0 0 0 .22.503q.24.194.78.318l1.21.259c.67.145 1.17.374 1.49.688.33.314.5.725.5 1.232q0 .67-.39 1.182c-.26.339-.61.603-1.07.794-.45.191-.98.286-1.57.286-.86 0-1.56-.181-2.09-.544a2.19 2.19 0 0 1-.95-1.528l1.63-.157c.07.32.23.561.47.725s.55.244.94.244c.4 0 .71-.081.95-.244.25-.164.37-.365.37-.605a.62.62 0 0 0-.24-.503q-.225-.199-.72-.305l-1.21-.254c-.68-.142-1.18-.38-1.51-.716q-.48-.507-.48-1.283c0-.437.11-.816.35-1.136a2.4 2.4 0 0 1 1.02-.747q.645-.268 1.5-.268c.83 0 1.48.177 1.96.531s.78.832.89 1.435m5.07-1.874v1.293h-4.08v-1.293zm-3.07-1.699h1.67v6.657c0 .225.04.397.1.517.07.117.17.197.28.24s.24.065.38.065c.1 0 .2-.008.29-.023.08-.016.15-.029.2-.042l.28 1.307a3.248 3.248 0 0 1-.98.166c-.42.012-.8-.051-1.13-.189-.34-.142-.61-.36-.8-.656-.2-.295-.29-.665-.29-1.108zm7.48 8.928q-1.035 0-1.8-.457c-.5-.304-.9-.73-1.18-1.278-.27-.548-.41-1.188-.41-1.921 0-.732.14-1.374.41-1.925.28-.551.68-.979 1.18-1.283q.765-.457 1.8-.457c.7 0 1.3.152 1.81.457.5.304.9.732 1.17 1.283q.42.827.42 1.925 0 1.1-.42 1.921c-.27.548-.67.974-1.17 1.278-.51.305-1.11.457-1.81.457m.01-1.338c.38 0 .69-.103.95-.31.25-.209.44-.489.56-.84.13-.351.19-.742.19-1.172 0-.434-.06-.827-.19-1.178a1.85 1.85 0 0 0-.56-.844c-.26-.21-.57-.314-.95-.314q-.57 0-.96.314c-.25.209-.44.49-.56.844-.13.351-.19.744-.19 1.178 0 .43.06.821.19 1.172.12.351.31.631.56.84q.39.31.96.31m6.48-2.955V826h-1.67v-7.091h1.6v1.205h.08q.24-.595.78-.946c.36-.234.81-.351 1.34-.351.49 0 .91.104 1.27.314.37.209.65.512.85.909q.315.596.3 1.445V826h-1.67v-4.256c0-.474-.12-.845-.37-1.113-.24-.268-.58-.402-1.01-.402q-.435 0-.78.194c-.22.126-.4.31-.53.55-.12.24-.19.531-.19.872m9.39 4.293c-.71 0-1.32-.147-1.84-.443-.51-.298-.91-.72-1.19-1.265-.27-.547-.41-1.192-.41-1.934 0-.729.14-1.369.41-1.92.28-.554.67-.985 1.18-1.293.5-.311 1.09-.466 1.76-.466.44 0 .85.071 1.24.212.39.139.74.354 1.04.646s.53.665.71 1.118c.17.449.26.984.26 1.606v.513h-5.82v-1.127h4.21c0-.32-.07-.605-.2-.854a1.57 1.57 0 0 0-.57-.595 1.6 1.6 0 0 0-.84-.217q-.51 0-.9.249c-.26.163-.46.378-.61.646a1.84 1.84 0 0 0-.21.873v.983c0 .412.07.766.22 1.062q.225.438.63.674c.28.154.59.231.96.231q.36 0 .66-.102.285-.106.51-.309.21-.203.33-.503l1.56.175q-.15.619-.57 1.08-.405.457-1.05.711a4.1 4.1 0 0 1-1.47.249m-34.21 9.427c-.08-.25-.19-.473-.32-.67q-.195-.3-.48-.512c-.19-.142-.4-.248-.64-.319q-.36-.111-.78-.111c-.51 0-.96.128-1.36.384-.4.255-.71.631-.94 1.126q-.33.739-.33 1.8 0 1.072.33 1.815c.23.495.54.872.94 1.131.4.255.86.383 1.39.383.48 0 .9-.092 1.25-.277s.63-.446.82-.785c.19-.341.28-.742.28-1.2l.39.06h-2.57v-1.339h3.84v1.136c0 .809-.17 1.509-.52 2.1a3.46 3.46 0 0 1-1.42 1.367c-.6.317-1.29.475-2.08.475-.87 0-1.63-.195-2.29-.586a4.1 4.1 0 0 1-1.54-1.676c-.36-.726-.55-1.588-.55-2.585q0-1.145.33-2.045c.22-.6.52-1.11.91-1.528q.585-.633 1.38-.96c.52-.222 1.1-.333 1.71-.333q.795 0 1.47.231.675.226 1.2.646.54.42.87.997.345.577.45 1.275zm6.5 6.573q-1.05 0-1.8-.457a3.1 3.1 0 0 1-1.19-1.278c-.27-.548-.41-1.188-.41-1.921 0-.732.14-1.374.41-1.925.28-.551.68-.979 1.19-1.283q.75-.457 1.8-.457 1.035 0 1.8.457c.5.304.9.732 1.17 1.283q.42.827.42 1.925 0 1.1-.42 1.921c-.27.548-.67.974-1.17 1.278q-.765.457-1.8.457m.01-1.338c.37 0 .69-.103.94-.31.25-.209.44-.489.56-.84.13-.351.19-.742.19-1.172 0-.434-.06-.827-.19-1.178a1.85 1.85 0 0 0-.56-.844c-.25-.21-.57-.314-.94-.314q-.585 0-.96.314-.39.313-.57.844c-.13.351-.19.744-.19 1.178 0 .43.06.821.19 1.172q.18.526.57.84.375.31.96.31m6.84 1.343c-.45 0-.85-.08-1.21-.24a1.97 1.97 0 0 1-.85-.72c-.21-.317-.31-.708-.31-1.173 0-.4.07-.731.22-.992.15-.262.35-.471.61-.628.25-.157.54-.276.86-.356.32-.083.66-.143 1-.18.42-.043.75-.081 1.01-.115q.39-.055.57-.166.18-.116.18-.356v-.027c0-.348-.11-.617-.31-.808-.21-.191-.51-.286-.89-.286-.41 0-.74.089-.98.267q-.36.268-.48.633l-1.56-.222c.12-.431.33-.791.61-1.08.28-.292.63-.511 1.04-.656.41-.147.86-.221 1.36-.221q.51 0 1.02.12c.34.08.64.212.92.397.28.181.51.429.68.743s.26.706.26 1.177V842h-1.61v-.974h-.05c-.11.197-.25.382-.43.554-.19.169-.41.306-.69.411-.28.101-.6.152-.97.152m.44-1.228q.495 0 .87-.198.375-.204.57-.536c.13-.221.2-.463.2-.725v-.835a.8.8 0 0 1-.27.12c-.12.037-.26.069-.41.097-.16.027-.31.052-.46.074l-.39.055a3 3 0 0 0-.67.166c-.2.077-.35.185-.47.323a.8.8 0 0 0-.17.527c0 .307.11.54.34.697.22.157.51.235.86.235m6.66-8.37V842h-1.67v-9.455zM1433.53 816.545h2.1l2.8 6.851h.12l2.8-6.851h2.1V826h-1.65v-6.495h-.08l-2.62 6.467h-1.22l-2.62-6.481h-.08V826h-1.65zm11.71 9.455v-7.091h1.67V826zm.84-8.097a.98.98 0 0 1-.68-.263.857.857 0 0 1 0-1.284.97.97 0 0 1 .68-.268c.27 0 .5.09.68.268a.857.857 0 0 1 0 1.284.94.94 0 0 1-.68.263m4.22-1.358V826h-1.67v-9.455zm4.86 9.593c-.71 0-1.33-.147-1.84-.443-.52-.298-.91-.72-1.19-1.265q-.42-.82-.42-1.934 0-1.094.42-1.92a3.15 3.15 0 0 1 1.17-1.293q.75-.466 1.77-.466c.44 0 .85.071 1.24.212.39.139.73.354 1.03.646s.54.665.71 1.118c.17.449.26.984.26 1.606v.513h-5.81v-1.127h4.21q0-.48-.21-.854a1.43 1.43 0 0 0-.57-.595 1.6 1.6 0 0 0-.84-.217q-.51 0-.9.249-.39.244-.6.646c-.14.265-.22.556-.22.873v.983c0 .412.08.766.23 1.062q.225.438.63.674c.27.154.59.231.95.231q.36 0 .66-.102.3-.106.51-.309.225-.203.33-.503l1.56.175c-.1.412-.28.773-.56 1.08a2.84 2.84 0 0 1-1.05.711 4.1 4.1 0 0 1-1.47.249m10.17-5.355-1.52.167a1.3 1.3 0 0 0-.23-.434 1.2 1.2 0 0 0-.43-.328 1.5 1.5 0 0 0-.65-.125c-.35 0-.64.076-.88.226-.23.151-.35.347-.34.587a.6.6 0 0 0 .22.503q.24.194.78.318l1.21.259c.67.145 1.17.374 1.49.688.33.314.5.725.5 1.232q0 .67-.39 1.182c-.26.339-.61.603-1.07.794-.45.191-.98.286-1.57.286-.86 0-1.56-.181-2.09-.544a2.19 2.19 0 0 1-.95-1.528l1.63-.157c.07.32.23.561.47.725s.55.244.94.244c.4 0 .71-.081.95-.244.25-.164.37-.365.37-.605a.62.62 0 0 0-.24-.503q-.225-.199-.72-.305l-1.21-.254c-.68-.142-1.18-.38-1.51-.716q-.48-.507-.48-1.283c0-.437.11-.816.35-1.136a2.4 2.4 0 0 1 1.02-.747q.645-.268 1.5-.268c.83 0 1.48.177 1.96.531s.78.832.89 1.435m5.07-1.874v1.293h-4.08v-1.293zm-3.07-1.699h1.67v6.657c0 .225.04.397.1.517.07.117.17.197.28.24s.24.065.38.065c.1 0 .2-.008.29-.023.08-.016.15-.029.2-.042l.28 1.307a3.248 3.248 0 0 1-.98.166c-.42.012-.8-.051-1.13-.189-.34-.142-.61-.36-.8-.656-.2-.295-.29-.665-.29-1.108zm7.48 8.928q-1.035 0-1.8-.457c-.5-.304-.9-.73-1.18-1.278-.27-.548-.41-1.188-.41-1.921 0-.732.14-1.374.41-1.925.28-.551.68-.979 1.18-1.283q.765-.457 1.8-.457c.7 0 1.3.152 1.81.457.5.304.9.732 1.17 1.283q.42.827.42 1.925 0 1.1-.42 1.921c-.27.548-.67.974-1.17 1.278-.51.305-1.11.457-1.81.457m.01-1.338c.38 0 .69-.103.95-.31.25-.209.44-.489.56-.84.13-.351.19-.742.19-1.172 0-.434-.06-.827-.19-1.178a1.85 1.85 0 0 0-.56-.844c-.26-.21-.57-.314-.95-.314q-.57 0-.96.314c-.25.209-.44.49-.56.844-.13.351-.19.744-.19 1.178 0 .43.06.821.19 1.172.12.351.31.631.56.84q.39.31.96.31m6.48-2.955V826h-1.67v-7.091h1.6v1.205h.08q.24-.595.78-.946c.36-.234.81-.351 1.34-.351.49 0 .91.104 1.27.314.37.209.65.512.85.909q.315.596.3 1.445V826h-1.67v-4.256c0-.474-.12-.845-.37-1.113-.24-.268-.58-.402-1.01-.402q-.435 0-.78.194c-.22.126-.4.31-.53.55-.12.24-.19.531-.19.872m9.39 4.293c-.71 0-1.32-.147-1.84-.443-.51-.298-.91-.72-1.19-1.265-.27-.547-.41-1.192-.41-1.934 0-.729.14-1.369.41-1.92.28-.554.67-.985 1.18-1.293.5-.311 1.09-.466 1.76-.466.44 0 .85.071 1.24.212.39.139.74.354 1.04.646s.53.665.71 1.118c.17.449.26.984.26 1.606v.513h-5.82v-1.127h4.21c0-.32-.07-.605-.2-.854a1.57 1.57 0 0 0-.57-.595 1.6 1.6 0 0 0-.84-.217q-.51 0-.9.249c-.26.163-.46.378-.61.646a1.84 1.84 0 0 0-.21.873v.983c0 .412.07.766.22 1.062q.225.438.63.674c.28.154.59.231.96.231q.36 0 .66-.102.285-.106.51-.309.21-.203.33-.503l1.56.175q-.15.619-.57 1.08-.405.457-1.05.711a4.1 4.1 0 0 1-1.47.249m-34.21 9.427c-.08-.25-.19-.473-.32-.67q-.195-.3-.48-.512c-.19-.142-.4-.248-.64-.319q-.36-.111-.78-.111c-.51 0-.96.128-1.36.384-.4.255-.71.631-.94 1.126q-.33.739-.33 1.8 0 1.072.33 1.815c.23.495.54.872.94 1.131.4.255.86.383 1.39.383.48 0 .9-.092 1.25-.277s.63-.446.82-.785c.19-.341.28-.742.28-1.2l.39.06h-2.57v-1.339h3.84v1.136c0 .809-.17 1.509-.52 2.1a3.46 3.46 0 0 1-1.42 1.367c-.6.317-1.29.475-2.08.475-.87 0-1.63-.195-2.29-.586a4.1 4.1 0 0 1-1.54-1.676c-.36-.726-.55-1.588-.55-2.585q0-1.145.33-2.045c.22-.6.52-1.11.91-1.528q.585-.633 1.38-.96c.52-.222 1.1-.333 1.71-.333q.795 0 1.47.231.675.226 1.2.646.54.42.87.997.345.577.45 1.275zm6.5 6.573q-1.05 0-1.8-.457a3.1 3.1 0 0 1-1.19-1.278c-.27-.548-.41-1.188-.41-1.921 0-.732.14-1.374.41-1.925.28-.551.68-.979 1.19-1.283q.75-.457 1.8-.457 1.035 0 1.8.457c.5.304.9.732 1.17 1.283q.42.827.42 1.925 0 1.1-.42 1.921c-.27.548-.67.974-1.17 1.278q-.765.457-1.8.457m.01-1.338c.37 0 .69-.103.94-.31.25-.209.44-.489.56-.84.13-.351.19-.742.19-1.172 0-.434-.06-.827-.19-1.178a1.85 1.85 0 0 0-.56-.844c-.25-.21-.57-.314-.94-.314q-.585 0-.96.314-.39.313-.57.844c-.13.351-.19.744-.19 1.178 0 .43.06.821.19 1.172q.18.526.57.84.375.31.96.31m6.84 1.343c-.45 0-.85-.08-1.21-.24a1.97 1.97 0 0 1-.85-.72c-.21-.317-.31-.708-.31-1.173 0-.4.07-.731.22-.992.15-.262.35-.471.61-.628.25-.157.54-.276.86-.356.32-.083.66-.143 1-.18.42-.043.75-.081 1.01-.115q.39-.055.57-.166.18-.116.18-.356v-.027c0-.348-.11-.617-.31-.808-.21-.191-.51-.286-.89-.286-.41 0-.74.089-.98.267q-.36.268-.48.633l-1.56-.222c.12-.431.33-.791.61-1.08.28-.292.63-.511 1.04-.656.41-.147.86-.221 1.36-.221q.51 0 1.02.12c.34.08.64.212.92.397.28.181.51.429.68.743s.26.706.26 1.177V842h-1.61v-.974h-.05c-.11.197-.25.382-.43.554-.19.169-.41.306-.69.411-.28.101-.6.152-.97.152m.44-1.228q.495 0 .87-.198.375-.204.57-.536c.13-.221.2-.463.2-.725v-.835a.8.8 0 0 1-.27.12c-.12.037-.26.069-.41.097-.16.027-.31.052-.46.074l-.39.055a3 3 0 0 0-.67.166c-.2.077-.35.185-.47.323a.8.8 0 0 0-.17.527c0 .307.11.54.34.697.22.157.51.235.86.235m6.66-8.37V842h-1.67v-9.455zM1687.03 826v-9.455h6.06v1.436h-4.35v2.567h3.93v1.436h-3.93V826zm7.54 0v-7.091h1.67V826zm.84-8.097a.98.98 0 0 1-.68-.263.857.857 0 0 1 0-1.284.97.97 0 0 1 .68-.268c.27 0 .5.09.68.268.2.176.29.39.29.642 0 .249-.09.463-.29.642a.94.94 0 0 1-.68.263m4.22 3.942V826h-1.67v-7.091h1.6v1.205h.08q.24-.595.78-.946c.36-.234.81-.351 1.34-.351.49 0 .91.104 1.27.314.37.209.65.512.85.909q.315.596.3 1.445V826h-1.67v-4.256c0-.474-.12-.845-.37-1.113-.24-.268-.58-.402-1.01-.402q-.435 0-.78.194c-.22.126-.4.31-.53.55-.12.24-.19.531-.19.872m8.29 4.298c-.45 0-.85-.08-1.21-.24a1.97 1.97 0 0 1-.85-.72c-.21-.317-.31-.708-.31-1.173 0-.4.07-.731.22-.992.15-.262.35-.471.61-.628.25-.157.54-.276.86-.356.32-.083.66-.143 1-.18.42-.043.75-.081 1.01-.115q.39-.055.57-.166.18-.116.18-.356v-.027c0-.348-.11-.617-.31-.808-.21-.191-.51-.286-.89-.286-.41 0-.74.089-.98.267-.23.179-.4.39-.48.633l-1.56-.222c.12-.431.33-.791.61-1.08.28-.292.63-.511 1.04-.656.41-.147.86-.221 1.36-.221q.51 0 1.02.12c.34.08.64.212.92.397.29.181.51.429.68.743s.26.706.26 1.177V826h-1.61v-.974h-.05c-.11.197-.25.382-.43.554-.19.169-.41.306-.69.411-.28.101-.6.152-.97.152m.44-1.228q.495 0 .87-.198.375-.204.57-.536c.13-.221.2-.463.2-.725v-.835a.8.8 0 0 1-.27.12c-.12.037-.26.069-.41.097-.16.027-.31.052-.46.074l-.39.055a3 3 0 0 0-.67.166c-.2.077-.35.185-.47.323a.8.8 0 0 0-.17.527c0 .307.11.54.34.697.22.157.51.235.86.235m6.66-8.37V826h-1.67v-9.455zm5.02 0h2.09l2.81 6.851h.11l2.81-6.851h2.09V826h-1.64v-6.495h-.09l-2.61 6.467h-1.23l-2.61-6.481h-.09V826h-1.64zm11.7 9.455v-7.091h1.67V826zm.84-8.097a.98.98 0 0 1-.68-.263.857.857 0 0 1 0-1.284.97.97 0 0 1 .68-.268q.405 0 .69.268c.19.176.28.39.28.642 0 .249-.09.463-.28.642a.98.98 0 0 1-.69.263m4.22-1.358V826h-1.67v-9.455zm4.86 9.593c-.71 0-1.32-.147-1.84-.443-.51-.298-.91-.72-1.19-1.265-.27-.547-.41-1.192-.41-1.934 0-.729.14-1.369.41-1.92.28-.554.67-.985 1.18-1.293.5-.311 1.09-.466 1.76-.466.44 0 .85.071 1.24.212.39.139.74.354 1.04.646s.53.665.71 1.118c.17.449.25.984.25 1.606v.513H1739v-1.127h4.21c0-.32-.07-.605-.2-.854a1.57 1.57 0 0 0-.57-.595 1.6 1.6 0 0 0-.84-.217q-.51 0-.9.249c-.26.163-.46.378-.61.646a1.84 1.84 0 0 0-.21.873v.983c0 .412.07.766.22 1.062q.225.438.63.674.405.231.96.231.36 0 .66-.102.285-.106.51-.309.21-.203.33-.503l1.56.175q-.15.619-.57 1.08-.405.457-1.05.711a4.1 4.1 0 0 1-1.47.249m10.17-5.355-1.52.167a1.15 1.15 0 0 0-.23-.434q-.15-.204-.42-.328a1.6 1.6 0 0 0-.66-.125c-.34 0-.64.076-.87.226-.24.151-.35.347-.35.587 0 .206.07.374.23.503.15.129.41.235.77.318l1.21.259q1.005.217 1.5.688c.33.314.49.725.5 1.232-.01.447-.14.841-.4 1.182-.25.339-.61.603-1.06.794-.46.191-.98.286-1.57.286q-1.305 0-2.1-.544c-.53-.366-.84-.876-.95-1.528l1.63-.157q.12.48.48.725.36.244.93.244.6 0 .96-.244.36-.246.36-.605a.65.65 0 0 0-.23-.503q-.24-.199-.72-.305l-1.21-.254c-.68-.142-1.19-.38-1.51-.716-.33-.338-.49-.766-.49-1.283q0-.656.36-1.136c.24-.323.58-.572 1.01-.747q.645-.268 1.5-.268c.83 0 1.49.177 1.96.531.48.354.78.832.89 1.435m5.07-1.874v1.293h-4.07v-1.293zm-3.07-1.699h1.68v6.657c0 .225.03.397.1.517q.105.175.27.24c.12.043.24.065.38.065a1.835 1.835 0 0 0 .49-.065l.28 1.307c-.09.031-.21.064-.38.101q-.24.056-.6.065c-.42.012-.8-.051-1.13-.189-.34-.142-.6-.36-.8-.656-.19-.295-.29-.665-.29-1.108zm7.49 8.928q-1.035 0-1.8-.457c-.51-.304-.9-.73-1.18-1.278q-.42-.822-.42-1.921 0-1.098.42-1.925c.28-.551.67-.979 1.18-1.283q.765-.457 1.8-.457t1.8.457c.51.304.9.732 1.18 1.283q.42.827.42 1.925 0 1.1-.42 1.921c-.28.548-.67.974-1.18 1.278q-.765.457-1.8.457m.01-1.338c.37 0 .69-.103.94-.31.25-.209.44-.489.56-.84.13-.351.19-.742.19-1.172 0-.434-.06-.827-.19-1.178a1.85 1.85 0 0 0-.56-.844c-.25-.21-.57-.314-.94-.314q-.585 0-.96.314-.375.313-.57.844-.18.527-.18 1.178 0 .645.18 1.172.195.526.57.84.375.31.96.31m6.48-2.955V826h-1.67v-7.091h1.59v1.205h.09q.24-.595.78-.946c.36-.234.8-.351 1.33-.351.49 0 .92.104 1.28.314.36.209.65.512.85.909q.3.596.3 1.445V826h-1.67v-4.256c0-.474-.13-.845-.37-1.113-.25-.268-.58-.402-1.01-.402q-.45 0-.78.194c-.23.126-.41.31-.53.55-.13.24-.19.531-.19.872m9.39 4.293c-.71 0-1.33-.147-1.85-.443-.51-.298-.91-.72-1.18-1.265q-.42-.82-.42-1.934 0-1.094.42-1.92a3.15 3.15 0 0 1 1.17-1.293q.75-.466 1.77-.466c.44 0 .85.071 1.24.212.39.139.73.354 1.03.646s.54.665.71 1.118c.17.449.26.984.26 1.606v.513h-5.81v-1.127h4.21q-.015-.48-.21-.854a1.57 1.57 0 0 0-.57-.595 1.6 1.6 0 0 0-.84-.217q-.51 0-.9.249-.39.244-.6.646c-.15.265-.22.556-.22.873v.983c0 .412.07.766.23 1.062q.225.438.63.674c.27.154.59.231.95.231q.36 0 .66-.102.3-.106.51-.309.225-.203.33-.503l1.56.175c-.1.412-.29.773-.56 1.08-.28.305-.63.542-1.06.711-.42.166-.91.249-1.46.249m-80.46 9.427a2.4 2.4 0 0 0-.32-.67q-.195-.3-.48-.512c-.18-.142-.4-.248-.64-.319q-.36-.111-.78-.111c-.51 0-.96.128-1.36.384-.4.255-.71.631-.94 1.126q-.33.739-.33 1.8 0 1.072.33 1.815c.23.495.54.872.94 1.131.4.255.87.383 1.4.383.48 0 .89-.092 1.24-.277.36-.185.63-.446.82-.785.19-.341.29-.742.29-1.2l.38.06h-2.56v-1.339h3.83v1.136q0 1.213-.51 2.1a3.54 3.54 0 0 1-1.43 1.367q-.9.475-2.07.475c-.87 0-1.64-.195-2.3-.586a4.1 4.1 0 0 1-1.54-1.676q-.54-1.09-.54-2.585c0-.763.1-1.445.32-2.045s.52-1.11.91-1.528q.585-.633 1.38-.96a4.4 4.4 0 0 1 1.72-.333c.52 0 1.01.077 1.46.231q.675.226 1.2.646c.36.28.65.613.88.997.22.385.37.81.44 1.275zm6.5 6.573q-1.035 0-1.8-.457c-.51-.304-.9-.73-1.18-1.278q-.42-.822-.42-1.921 0-1.098.42-1.925c.28-.551.67-.979 1.18-1.283q.765-.457 1.8-.457t1.8.457c.51.304.9.732 1.18 1.283q.42.827.42 1.925 0 1.1-.42 1.921c-.28.548-.67.974-1.18 1.278q-.765.457-1.8.457m.01-1.338c.37 0 .69-.103.94-.31.25-.209.44-.489.56-.84.13-.351.19-.742.19-1.172 0-.434-.06-.827-.19-1.178a1.85 1.85 0 0 0-.56-.844c-.25-.21-.57-.314-.94-.314q-.585 0-.96.314c-.26.209-.44.49-.57.844-.12.351-.19.744-.19 1.178 0 .43.07.821.19 1.172.13.351.31.631.57.84q.375.31.96.31m6.84 1.343c-.44 0-.85-.08-1.21-.24a1.97 1.97 0 0 1-.85-.72c-.21-.317-.31-.708-.31-1.173 0-.4.08-.731.22-.992.15-.262.35-.471.61-.628.25-.157.54-.276.86-.356.32-.083.66-.143 1-.18.42-.043.76-.081 1.01-.115q.39-.055.57-.166.18-.116.18-.356v-.027c0-.348-.11-.617-.31-.808-.21-.191-.51-.286-.89-.286-.41 0-.74.089-.98.267q-.345.268-.48.633l-1.56-.222c.13-.431.33-.791.61-1.08.28-.292.63-.511 1.04-.656.41-.147.86-.221 1.36-.221q.51 0 1.02.12t.93.397c.28.181.5.429.67.743s.26.706.26 1.177V842h-1.61v-.974h-.05c-.11.197-.25.382-.43.554a2 2 0 0 1-.69.411c-.27.101-.6.152-.97.152m.44-1.228q.495 0 .87-.198.375-.204.57-.536c.13-.221.2-.463.2-.725v-.835a.8.8 0 0 1-.27.12c-.12.037-.26.069-.41.097-.16.027-.31.052-.46.074l-.39.055a3 3 0 0 0-.67.166c-.2.077-.35.185-.47.323a.8.8 0 0 0-.17.527c0 .307.12.54.34.697s.51.235.86.235m6.66-8.37V842h-1.67v-9.455zm5.58-.443-3.05 11.32h-1.46l3.04-11.32zm1.14 9.898v-9.455h3.54q1.095 0 1.83.379c.5.252.87.606 1.12 1.062q.39.678.39 1.583 0 .91-.39 1.579a2.6 2.6 0 0 1-1.13 1.03c-.5.24-1.11.36-1.84.36h-2.52v-1.422h2.29c.42 0 .77-.059 1.04-.176q.405-.18.6-.521c.14-.231.2-.514.2-.85s-.06-.621-.2-.858q-.195-.36-.6-.545-.405-.189-1.05-.189h-1.57V842zm4.88-4.284 2.34 4.284h-1.91l-2.3-4.284zm6.54 4.422c-.71 0-1.33-.147-1.85-.443-.51-.298-.9-.72-1.18-1.265q-.42-.82-.42-1.934 0-1.094.42-1.92a3.15 3.15 0 0 1 1.17-1.293q.75-.466 1.77-.466c.44 0 .85.071 1.24.212.39.139.73.354 1.03.646s.54.665.71 1.118c.17.449.26.984.26 1.606v.513h-5.81v-1.127h4.21q0-.48-.21-.854a1.5 1.5 0 0 0-.57-.595 1.6 1.6 0 0 0-.84-.217q-.51 0-.9.249-.39.244-.6.646c-.14.265-.22.556-.22.873v.983c0 .412.08.766.23 1.062q.225.438.63.674c.27.154.59.231.95.231q.36 0 .66-.102.3-.106.51-.309.225-.203.33-.503l1.56.175c-.1.412-.29.773-.56 1.08a2.84 2.84 0 0 1-1.05.711 4.1 4.1 0 0 1-1.47.249m5.99-.138-2-7.091h1.7l1.25 4.986h.06l1.27-4.986h1.69l1.27 4.958h.07l1.23-4.958h1.71l-2.01 7.091h-1.74l-1.33-4.792h-.1l-1.33 4.792zm11.46.143c-.45 0-.86-.08-1.22-.24a1.97 1.97 0 0 1-.85-.72c-.2-.317-.31-.708-.31-1.173 0-.4.08-.731.22-.992.15-.262.35-.471.61-.628s.54-.276.86-.356c.33-.083.66-.143 1-.18q.63-.064 1.02-.115c.25-.037.44-.092.56-.166q.18-.116.18-.356v-.027c0-.348-.1-.617-.31-.808s-.5-.286-.89-.286c-.41 0-.74.089-.98.267q-.345.268-.48.633l-1.56-.222c.13-.431.33-.791.61-1.08a2.7 2.7 0 0 1 1.04-.656c.41-.147.86-.221 1.36-.221q.51 0 1.02.12t.93.397c.28.181.5.429.67.743s.26.706.26 1.177V842h-1.61v-.974h-.05a2.1 2.1 0 0 1-.43.554 2 2 0 0 1-.69.411 2.7 2.7 0 0 1-.96.152m.43-1.228q.51 0 .87-.198.375-.204.57-.536c.14-.221.2-.463.2-.725v-.835a.8.8 0 0 1-.26.12q-.195.055-.42.097c-.15.027-.31.052-.46.074l-.39.055a3 3 0 0 0-.67.166c-.2.077-.35.185-.46.323a.77.77 0 0 0-.18.527c0 .307.12.54.34.697.23.157.51.235.86.235m4.99 1.085v-7.091h1.62v1.182h.07a1.8 1.8 0 0 1 .67-.946q.48-.337 1.08-.337c.1 0 .2.004.31.013.12.007.22.017.29.033v1.537a1.7 1.7 0 0 0-.33-.065c-.15-.021-.3-.032-.44-.032-.31 0-.58.066-.82.199a1.47 1.47 0 0 0-.78 1.338V842zm7.49.125c-.55 0-1.05-.143-1.49-.43-.44-.286-.79-.701-1.04-1.246q-.39-.818-.39-1.985 0-1.182.39-1.995c.26-.544.61-.955 1.06-1.232.44-.28.93-.42 1.48-.42.41 0 .76.071 1.02.212.27.139.48.306.64.503.16.194.28.377.37.55h.06v-3.537h1.68V842h-1.64v-1.117h-.1c-.09.172-.22.355-.38.549-.16.191-.38.354-.64.49q-.405.203-1.02.203m.47-1.371c.35 0 .66-.096.91-.287.24-.194.43-.463.56-.808.13-.344.2-.746.2-1.204 0-.459-.07-.858-.2-1.196a1.65 1.65 0 0 0-.56-.79c-.25-.187-.55-.281-.91-.281q-.555 0-.93.291-.375.29-.57.803a3.5 3.5 0 0 0-.18 1.173q0 .664.18 1.186.195.517.57.817.375.296.93.296m10.7-3.971-1.53.167a1.3 1.3 0 0 0-.22-.434 1.2 1.2 0 0 0-.43-.328c-.18-.083-.4-.125-.65-.125-.35 0-.64.076-.88.226s-.35.347-.35.587c0 .206.07.374.23.503s.41.235.77.318l1.21.259q1.005.217 1.5.688c.33.314.49.725.5 1.232q-.015.67-.39 1.182c-.26.339-.62.603-1.07.794-.46.191-.98.286-1.57.286q-1.305 0-2.1-.544c-.53-.366-.84-.876-.94-1.528l1.63-.157c.07.32.23.561.47.725q.36.244.93.244.6 0 .96-.244c.24-.164.37-.365.37-.605a.62.62 0 0 0-.24-.503q-.225-.199-.72-.305l-1.21-.254c-.68-.142-1.18-.38-1.51-.716q-.495-.507-.48-1.283c-.01-.437.11-.816.35-1.136.24-.323.58-.572 1.01-.747q.66-.268 1.5-.268c.83 0 1.49.177 1.96.531q.72.53.9 1.435"/></svg>